  0
SECTION
  2
HEADER
  9
$ACADVER
  1
AC1009
  9
$FILLMODE
 70
1
  9
$EXTMIN
 10
34.6000
 20
35.3060
 30
0.0000
  9
$EXTMAX
 10
63.5000
 20
63.7540
 30
0.0000
  0
ENDSEC
  0
SECTION
  2
TABLES
  0
TABLE
  2
LTYPE
 70
1
  0
LTYPE
  2
CONTINUOUS
 70
64
  3
Solid line
 72
65
 73
0
 40
0
  0
ENDTAB
  0
TABLE
  2
LAYER
 70
255
  0
LAYER
  2
1
 70
64
 62
22
  6
CONTINUOUS
  0
LAYER
  2
16
 70
64
 62
175
  6
CONTINUOUS
  0
LAYER
  2
17
 70
64
 62
82
  6
CONTINUOUS
  0
LAYER
  2
18
 70
64
 62
82
  6
CONTINUOUS
  0
LAYER
  2
19
 70
64
 62
53
  6
CONTINUOUS
  0
LAYER
  2
20
 70
64
 62
7
  6
CONTINUOUS
  0
LAYER
  2
21
 70
64
 62
253
  6
CONTINUOUS
  0
LAYER
  2
22
 70
64
 62
253
  6
CONTINUOUS
  0
LAYER
  2
23
 70
64
 62
7
  6
CONTINUOUS
  0
LAYER
  2
24
 70
64
 62
7
  6
CONTINUOUS
  0
LAYER
  2
25
 70
64
 62
253
  6
CONTINUOUS
  0
LAYER
  2
26
 70
64
 62
253
  6
CONTINUOUS
  0
LAYER
  2
27
 70
64
 62
253
  6
CONTINUOUS
  0
LAYER
  2
28
 70
64
 62
253
  6
CONTINUOUS
  0
LAYER
  2
39
 70
64
 62
22
  6
CONTINUOUS
  0
LAYER
  2
40
 70
64
 62
175
  6
CONTINUOUS
  0
LAYER
  2
41
 70
64
 62
22
  6
CONTINUOUS
  0
LAYER
  2
42
 70
64
 62
175
  6
CONTINUOUS
  0
LAYER
  2
43
 70
64
 62
82
  6
CONTINUOUS
  0
LAYER
  2
48
 70
64
 62
253
  6
CONTINUOUS
  0
LAYER
  2
49
 70
64
 62
253
  6
CONTINUOUS
  0
LAYER
  2
51
 70
64
 62
253
  6
CONTINUOUS
  0
LAYER
  2
52
 70
64
 62
253
  6
CONTINUOUS
  0
ENDTAB
  0
ENDSEC
  0
SECTION
  2
BLOCKS
  0
BLOCK
  8
0
  2
RECT
 70
64
 10
0.0000
 20
0.0000
 30
0.0000
  3
RECT
  0
SOLID
  8
0
 10
-0.5000
 20
-0.5000
 30
0.0000
 11
0.5000
 21
-0.5000
 31
0.0000
 12
-0.5000
 22
0.5000
 32
0.0000
 13
0.5000
 23
0.5000
 33
0.0000
  0
ENDBLK
  8
0
  0
BLOCK
  8
0
  2
PIE
 70
64
 10
0.0000
 20
0.0000
 30
0.0000
  3
PIE
  0
POLYLINE
  8
0
 66
1
 10
0.0000
 20
0.0000
 30
0.0000
 40
0.5000
 41
0.5000
 70
0
  0
VERTEX
  8
0
 10
0.0000
 20
-0.2500
 30
0.0000
 42
1.0000
  0
VERTEX
  8
0
 10
0.0000
 20
0.2500
 30
0.0000
 42
1.0000
  0
VERTEX
  8
0
 10
0.0000
 20
-0.2500
 30
0.0000
  0
SEQEND
  8
0
  0
ENDBLK
  8
0
  0
BLOCK
  8
0
  2
OCTAGONP
 70
64
 10
0.0000
 20
0.0000
 30
0.0000
  3
OCTAGONP
  0
POLYLINE
  8
0
 66
1
 10
0.0000
 20
0.0000
 30
0.0000
 40
0.5000
 41
0.5000
 70
0
  0
VERTEX
  8
0
 10
-0.2500
 20
-0.1036
 30
0.0000
  0
VERTEX
  8
0
 10
-0.2500
 20
0.1036
 30
0.0000
  0
VERTEX
  8
0
 10
-0.1036
 20
0.2500
 30
0.0000
  0
VERTEX
  8
0
 10
0.1036
 20
0.2500
 30
0.0000
  0
VERTEX
  8
0
 10
0.2500
 20
0.1036
 30
0.0000
  0
VERTEX
  8
0
 10
0.2500
 20
-0.1036
 30
0.0000
  0
VERTEX
  8
0
 10
0.1036
 20
-0.2500
 30
0.0000
  0
VERTEX
  8
0
 10
-0.1036
 20
-0.2500
 30
0.0000
  0
VERTEX
  8
0
 10
-0.2500
 20
-0.1036
 30
0.0000
  0
VERTEX
  8
0
 10
-0.2500
 20
0.1036
 30
0.0000
  0
SEQEND
  8
0
  0
ENDBLK
  8
0
  0
BLOCK
  8
0
  2
SQUAREP
 70
64
 10
0.0000
 20
0.0000
 30
0.0000
  3
SQUAREP
  0
SOLID
  8
0
 10
-0.5000
 20
-0.5000
 30
0.0000
 11
0.5000
 21
-0.5000
 31
0.0000
 12
-0.5000
 22
0.5000
 32
0.0000
 13
0.5000
 23
0.5000
 33
0.0000
  0
ENDBLK
  8
0
  0
BLOCK
  8
0
  2
ROUNDP
 70
64
 10
0.0000
 20
0.0000
 30
0.0000
  3
ROUNDP
  0
POLYLINE
  8
0
 66
1
 10
0.0000
 20
0.0000
 30
0.0000
 40
0.5000
 41
0.5000
 70
0
  0
VERTEX
  8
0
 10
0.0000
 20
-0.2500
 30
0.0000
 42
1.0000
  0
VERTEX
  8
0
 10
0.0000
 20
0.2500
 30
0.0000
 42
1.0000
  0
VERTEX
  8
0
 10
0.0000
 20
-0.2500
 30
0.0000
  0
SEQEND
  8
0
  0
ENDBLK
  8
0
  0
BLOCK
  8
0
  2
ANNULUSP
 70
64
 10
0.0000
 20
0.0000
 30
0.0000
  3
ANNULUSP
  0
POLYLINE
  8
0
 66
1
 10
0.0000
 20
0.0000
 30
0.0000
 40
0.5000
 41
0.5000
 70
0
  0
VERTEX
  8
0
 10
0.0000
 20
-0.2500
 30
0.0000
 42
1.0000
  0
VERTEX
  8
0
 10
0.0000
 20
0.2500
 30
0.0000
 42
1.0000
  0
VERTEX
  8
0
 10
0.0000
 20
-0.2500
 30
0.0000
  0
SEQEND
  8
0
  0
ENDBLK
  8
0
  0
BLOCK
  8
0
  2
THERMALP
 70
64
 10
0.0000
 20
0.0000
 30
0.0000
  3
THERMALP
  0
POLYLINE
  8
0
 66
1
 10
0.0000
 20
0.0000
 30
0.0000
 40
0.1000
 41
0.1000
 70
0
  0
VERTEX
  8
0
 10
-0.2379
 20
0.4500
 30
0.0000
  0
VERTEX
  8
0
 10
0.2379
 20
0.4500
 30
0.0000
  0
SEQEND
  8
0
  0
POLYLINE
  8
0
 66
1
 10
0.0000
 20
0.0000
 30
0.0000
 40
0.0500
 41
0.0500
 70
0
  0
VERTEX
  8
0
 10
0.2379
 20
0.4250
 30
0.0000
 42
1.0000
  0
VERTEX
  8
0
 10
0.2379
 20
0.4750
 30
0.0000
  0
SEQEND
  8
0
  0
POLYLINE
  8
0
 66
1
 10
0.0000
 20
0.0000
 30
0.0000
 40
0.0500
 41
0.0500
 70
0
  0
VERTEX
  8
0
 10
-0.2379
 20
0.4750
 30
0.0000
 42
1.0000
  0
VERTEX
  8
0
 10
-0.2379
 20
0.4250
 30
0.0000
  0
SEQEND
  8
0
  0
POLYLINE
  8
0
 66
1
 10
0.0000
 20
0.0000
 30
0.0000
 40
0.1000
 41
0.1000
 70
0
  0
VERTEX
  8
0
 10
0.4500
 20
0.2379
 30
0.0000
  0
VERTEX
  8
0
 10
0.4500
 20
-0.2379
 30
0.0000
  0
SEQEND
  8
0
  0
POLYLINE
  8
0
 66
1
 10
0.0000
 20
0.0000
 30
0.0000
 40
0.0500
 41
0.0500
 70
0
  0
VERTEX
  8
0
 10
0.4250
 20
-0.2379
 30
0.0000
 42
1.0000
  0
VERTEX
  8
0
 10
0.4750
 20
-0.2379
 30
0.0000
  0
SEQEND
  8
0
  0
POLYLINE
  8
0
 66
1
 10
0.0000
 20
0.0000
 30
0.0000
 40
0.0500
 41
0.0500
 70
0
  0
VERTEX
  8
0
 10
0.4750
 20
0.2379
 30
0.0000
 42
1.0000
  0
VERTEX
  8
0
 10
0.4250
 20
0.2379
 30
0.0000
  0
SEQEND
  8
0
  0
POLYLINE
  8
0
 66
1
 10
0.0000
 20
0.0000
 30
0.0000
 40
0.1000
 41
0.1000
 70
0
  0
VERTEX
  8
0
 10
0.2379
 20
-0.4500
 30
0.0000
  0
VERTEX
  8
0
 10
-0.2379
 20
-0.4500
 30
0.0000
  0
SEQEND
  8
0
  0
POLYLINE
  8
0
 66
1
 10
0.0000
 20
0.0000
 30
0.0000
 40
0.0500
 41
0.0500
 70
0
  0
VERTEX
  8
0
 10
-0.2379
 20
-0.4250
 30
0.0000
 42
1.0000
  0
VERTEX
  8
0
 10
-0.2379
 20
-0.4750
 30
0.0000
  0
SEQEND
  8
0
  0
POLYLINE
  8
0
 66
1
 10
0.0000
 20
0.0000
 30
0.0000
 40
0.0500
 41
0.0500
 70
0
  0
VERTEX
  8
0
 10
0.2379
 20
-0.4750
 30
0.0000
 42
1.0000
  0
VERTEX
  8
0
 10
0.2379
 20
-0.4250
 30
0.0000
  0
SEQEND
  8
0
  0
POLYLINE
  8
0
 66
1
 10
0.0000
 20
0.0000
 30
0.0000
 40
0.1000
 41
0.1000
 70
0
  0
VERTEX
  8
0
 10
-0.4500
 20
-0.2379
 30
0.0000
  0
VERTEX
  8
0
 10
-0.4500
 20
0.2379
 30
0.0000
  0
SEQEND
  8
0
  0
POLYLINE
  8
0
 66
1
 10
0.0000
 20
0.0000
 30
0.0000
 40
0.0500
 41
0.0500
 70
0
  0
VERTEX
  8
0
 10
-0.4250
 20
0.2379
 30
0.0000
 42
1.0000
  0
VERTEX
  8
0
 10
-0.4750
 20
0.2379
 30
0.0000
  0
SEQEND
  8
0
  0
POLYLINE
  8
0
 66
1
 10
0.0000
 20
0.0000
 30
0.0000
 40
0.0500
 41
0.0500
 70
0
  0
VERTEX
  8
0
 10
-0.4750
 20
-0.2379
 30
0.0000
 42
1.0000
  0
VERTEX
  8
0
 10
-0.4250
 20
-0.2379
 30
0.0000
  0
SEQEND
  8
0
  0
ENDBLK
  8
0
  0
BLOCK
  8
0
  2
OCTAGONV
 70
64
 10
0.0000
 20
0.0000
 30
0.0000
  3
OCTAGONV
  0
POLYLINE
  8
0
 66
1
 10
0.0000
 20
0.0000
 30
0.0000
 40
0.5000
 41
0.5000
 70
0
  0
VERTEX
  8
0
 10
-0.2500
 20
-0.1036
 30
0.0000
  0
VERTEX
  8
0
 10
-0.2500
 20
0.1036
 30
0.0000
  0
VERTEX
  8
0
 10
-0.1036
 20
0.2500
 30
0.0000
  0
VERTEX
  8
0
 10
0.1036
 20
0.2500
 30
0.0000
  0
VERTEX
  8
0
 10
0.2500
 20
0.1036
 30
0.0000
  0
VERTEX
  8
0
 10
0.2500
 20
-0.1036
 30
0.0000
  0
VERTEX
  8
0
 10
0.1036
 20
-0.2500
 30
0.0000
  0
VERTEX
  8
0
 10
-0.1036
 20
-0.2500
 30
0.0000
  0
VERTEX
  8
0
 10
-0.2500
 20
-0.1036
 30
0.0000
  0
VERTEX
  8
0
 10
-0.2500
 20
0.1036
 30
0.0000
  0
SEQEND
  8
0
  0
ENDBLK
  8
0
  0
BLOCK
  8
0
  2
SQUAREV
 70
64
 10
0.0000
 20
0.0000
 30
0.0000
  3
SQUAREV
  0
SOLID
  8
0
 10
-0.5000
 20
-0.5000
 30
0.0000
 11
0.5000
 21
-0.5000
 31
0.0000
 12
-0.5000
 22
0.5000
 32
0.0000
 13
0.5000
 23
0.5000
 33
0.0000
  0
ENDBLK
  8
0
  0
BLOCK
  8
0
  2
ROUNDV
 70
64
 10
0.0000
 20
0.0000
 30
0.0000
  3
ROUNDV
  0
POLYLINE
  8
0
 66
1
 10
0.0000
 20
0.0000
 30
0.0000
 40
0.5000
 41
0.5000
 70
0
  0
VERTEX
  8
0
 10
0.0000
 20
-0.2500
 30
0.0000
 42
1.0000
  0
VERTEX
  8
0
 10
0.0000
 20
0.2500
 30
0.0000
 42
1.0000
  0
VERTEX
  8
0
 10
0.0000
 20
-0.2500
 30
0.0000
  0
SEQEND
  8
0
  0
ENDBLK
  8
0
  0
BLOCK
  8
0
  2
ANNULUSV
 70
64
 10
0.0000
 20
0.0000
 30
0.0000
  3
ANNULUSV
  0
POLYLINE
  8
0
 66
1
 10
0.0000
 20
0.0000
 30
0.0000
 40
0.5000
 41
0.5000
 70
0
  0
VERTEX
  8
0
 10
0.0000
 20
-0.2500
 30
0.0000
 42
1.0000
  0
VERTEX
  8
0
 10
0.0000
 20
0.2500
 30
0.0000
 42
1.0000
  0
VERTEX
  8
0
 10
0.0000
 20
-0.2500
 30
0.0000
  0
SEQEND
  8
0
  0
ENDBLK
  8
0
  0
BLOCK
  8
0
  2
THERMALV
 70
64
 10
0.0000
 20
0.0000
 30
0.0000
  3
THERMALV
  0
POLYLINE
  8
0
 66
1
 10
0.0000
 20
0.0000
 30
0.0000
 40
0.1000
 41
0.1000
 70
0
  0
VERTEX
  8
0
 10
-0.2379
 20
0.4500
 30
0.0000
  0
VERTEX
  8
0
 10
0.2379
 20
0.4500
 30
0.0000
  0
SEQEND
  8
0
  0
POLYLINE
  8
0
 66
1
 10
0.0000
 20
0.0000
 30
0.0000
 40
0.0500
 41
0.0500
 70
0
  0
VERTEX
  8
0
 10
0.2379
 20
0.4250
 30
0.0000
 42
1.0000
  0
VERTEX
  8
0
 10
0.2379
 20
0.4750
 30
0.0000
  0
SEQEND
  8
0
  0
POLYLINE
  8
0
 66
1
 10
0.0000
 20
0.0000
 30
0.0000
 40
0.0500
 41
0.0500
 70
0
  0
VERTEX
  8
0
 10
-0.2379
 20
0.4750
 30
0.0000
 42
1.0000
  0
VERTEX
  8
0
 10
-0.2379
 20
0.4250
 30
0.0000
  0
SEQEND
  8
0
  0
POLYLINE
  8
0
 66
1
 10
0.0000
 20
0.0000
 30
0.0000
 40
0.1000
 41
0.1000
 70
0
  0
VERTEX
  8
0
 10
0.4500
 20
0.2379
 30
0.0000
  0
VERTEX
  8
0
 10
0.4500
 20
-0.2379
 30
0.0000
  0
SEQEND
  8
0
  0
POLYLINE
  8
0
 66
1
 10
0.0000
 20
0.0000
 30
0.0000
 40
0.0500
 41
0.0500
 70
0
  0
VERTEX
  8
0
 10
0.4250
 20
-0.2379
 30
0.0000
 42
1.0000
  0
VERTEX
  8
0
 10
0.4750
 20
-0.2379
 30
0.0000
  0
SEQEND
  8
0
  0
POLYLINE
  8
0
 66
1
 10
0.0000
 20
0.0000
 30
0.0000
 40
0.0500
 41
0.0500
 70
0
  0
VERTEX
  8
0
 10
0.4750
 20
0.2379
 30
0.0000
 42
1.0000
  0
VERTEX
  8
0
 10
0.4250
 20
0.2379
 30
0.0000
  0
SEQEND
  8
0
  0
POLYLINE
  8
0
 66
1
 10
0.0000
 20
0.0000
 30
0.0000
 40
0.1000
 41
0.1000
 70
0
  0
VERTEX
  8
0
 10
0.2379
 20
-0.4500
 30
0.0000
  0
VERTEX
  8
0
 10
-0.2379
 20
-0.4500
 30
0.0000
  0
SEQEND
  8
0
  0
POLYLINE
  8
0
 66
1
 10
0.0000
 20
0.0000
 30
0.0000
 40
0.0500
 41
0.0500
 70
0
  0
VERTEX
  8
0
 10
-0.2379
 20
-0.4250
 30
0.0000
 42
1.0000
  0
VERTEX
  8
0
 10
-0.2379
 20
-0.4750
 30
0.0000
  0
SEQEND
  8
0
  0
POLYLINE
  8
0
 66
1
 10
0.0000
 20
0.0000
 30
0.0000
 40
0.0500
 41
0.0500
 70
0
  0
VERTEX
  8
0
 10
0.2379
 20
-0.4750
 30
0.0000
 42
1.0000
  0
VERTEX
  8
0
 10
0.2379
 20
-0.4250
 30
0.0000
  0
SEQEND
  8
0
  0
POLYLINE
  8
0
 66
1
 10
0.0000
 20
0.0000
 30
0.0000
 40
0.1000
 41
0.1000
 70
0
  0
VERTEX
  8
0
 10
-0.4500
 20
-0.2379
 30
0.0000
  0
VERTEX
  8
0
 10
-0.4500
 20
0.2379
 30
0.0000
  0
SEQEND
  8
0
  0
POLYLINE
  8
0
 66
1
 10
0.0000
 20
0.0000
 30
0.0000
 40
0.0500
 41
0.0500
 70
0
  0
VERTEX
  8
0
 10
-0.4250
 20
0.2379
 30
0.0000
 42
1.0000
  0
VERTEX
  8
0
 10
-0.4750
 20
0.2379
 30
0.0000
  0
SEQEND
  8
0
  0
POLYLINE
  8
0
 66
1
 10
0.0000
 20
0.0000
 30
0.0000
 40
0.0500
 41
0.0500
 70
0
  0
VERTEX
  8
0
 10
-0.4750
 20
-0.2379
 30
0.0000
 42
1.0000
  0
VERTEX
  8
0
 10
-0.4250
 20
-0.2379
 30
0.0000
  0
SEQEND
  8
0
  0
ENDBLK
  8
0
  0
BLOCK
  8
0
  2
LONGP100
 70
64
 10
0.0000
 20
0.0000
 30
0.0000
  3
LONGP100
  0
POLYLINE
  8
0
 66
1
 10
0.0000
 20
0.0000
 30
0.0000
 40
1.0000
 41
1.0000
 70
0
  0
VERTEX
  8
0
 10
-0.5000
 20
0.0000
 30
0.0000
  0
VERTEX
  8
0
 10
0.5000
 20
0.0000
 30
0.0000
  0
SEQEND
  8
0
  0
POLYLINE
  8
0
 66
1
 10
0.0000
 20
0.0000
 30
0.0000
 40
0.5000
 41
0.5000
 70
0
  0
VERTEX
  8
0
 10
0.5000
 20
-0.2500
 30
0.0000
 42
1.0000
  0
VERTEX
  8
0
 10
0.5000
 20
0.2500
 30
0.0000
  0
SEQEND
  8
0
  0
POLYLINE
  8
0
 66
1
 10
0.0000
 20
0.0000
 30
0.0000
 40
0.5000
 41
0.5000
 70
0
  0
VERTEX
  8
0
 10
-0.5000
 20
0.2500
 30
0.0000
 42
1.0000
  0
VERTEX
  8
0
 10
-0.5000
 20
-0.2500
 30
0.0000
  0
SEQEND
  8
0
  0
ENDBLK
  8
0
  0
ENDSEC
  0
SECTION
  2
ENTITIES
  0
LINE
  8
20
 10
36.8300
 20
36.8300
 30
0.0000
 11
60.6300
 21
36.8300
 31
0.0000
  0
LINE
  8
20
 10
60.6300
 20
36.8300
 30
0.0000
 11
60.6300
 21
60.9500
 31
0.0000
  0
LINE
  8
20
 10
60.6300
 20
60.9500
 30
0.0000
 11
36.8300
 21
60.9500
 31
0.0000
  0
LINE
  8
20
 10
36.8300
 20
60.9500
 30
0.0000
 11
36.8300
 21
36.8300
 31
0.0000
  0
POINT
  8
23
 10
53.3400
 20
41.9100
 30
0.0000
  0
POLYLINE
  8
21
 66
1
 10
0.0000
 20
0.0000
 30
0.0000
 40
0.1524
 41
0.1524
 70
0
  0
VERTEX
  8
21
 10
51.1810
 20
43.1800
 30
0.0000
  0
VERTEX
  8
21
 10
55.4990
 20
43.1800
 30
0.0000
  0
SEQEND
  8
0
  0
POLYLINE
  8
21
 66
1
 10
0.0000
 20
0.0000
 30
0.0000
 40
0.0762
 41
0.0762
 70
0
  0
VERTEX
  8
21
 10
55.4990
 20
43.1419
 30
0.0000
 42
1.0000
  0
VERTEX
  8
21
 10
55.4990
 20
43.2181
 30
0.0000
  0
SEQEND
  8
0
  0
POLYLINE
  8
21
 66
1
 10
0.0000
 20
0.0000
 30
0.0000
 40
0.0762
 41
0.0762
 70
0
  0
VERTEX
  8
21
 10
51.1810
 20
43.2181
 30
0.0000
 42
1.0000
  0
VERTEX
  8
21
 10
51.1810
 20
43.1419
 30
0.0000
  0
SEQEND
  8
0
  0
POLYLINE
  8
21
 66
1
 10
0.0000
 20
0.0000
 30
0.0000
 40
0.1524
 41
0.1524
 70
0
  0
VERTEX
  8
21
 10
55.4990
 20
40.6400
 30
0.0000
  0
VERTEX
  8
21
 10
51.1810
 20
40.6400
 30
0.0000
  0
SEQEND
  8
0
  0
POLYLINE
  8
21
 66
1
 10
0.0000
 20
0.0000
 30
0.0000
 40
0.0762
 41
0.0762
 70
0
  0
VERTEX
  8
21
 10
51.1810
 20
40.6781
 30
0.0000
 42
1.0000
  0
VERTEX
  8
21
 10
51.1810
 20
40.6019
 30
0.0000
  0
SEQEND
  8
0
  0
POLYLINE
  8
21
 66
1
 10
0.0000
 20
0.0000
 30
0.0000
 40
0.0762
 41
0.0762
 70
0
  0
VERTEX
  8
21
 10
55.4990
 20
40.6019
 30
0.0000
 42
1.0000
  0
VERTEX
  8
21
 10
55.4990
 20
40.6781
 30
0.0000
  0
SEQEND
  8
0
  0
POLYLINE
  8
21
 66
1
 10
0.0000
 20
0.0000
 30
0.0000
 40
0.1524
 41
0.1524
 70
0
  0
VERTEX
  8
21
 10
55.7530
 20
42.9260
 30
0.0000
  0
VERTEX
  8
21
 10
55.7530
 20
40.8940
 30
0.0000
  0
SEQEND
  8
0
  0
POLYLINE
  8
21
 66
1
 10
0.0000
 20
0.0000
 30
0.0000
 40
0.0762
 41
0.0762
 70
0
  0
VERTEX
  8
21
 10
55.7149
 20
40.8940
 30
0.0000
 42
1.0000
  0
VERTEX
  8
21
 10
55.7911
 20
40.8940
 30
0.0000
  0
SEQEND
  8
0
  0
POLYLINE
  8
21
 66
1
 10
0.0000
 20
0.0000
 30
0.0000
 40
0.0762
 41
0.0762
 70
0
  0
VERTEX
  8
21
 10
55.7911
 20
42.9260
 30
0.0000
 42
1.0000
  0
VERTEX
  8
21
 10
55.7149
 20
42.9260
 30
0.0000
  0
SEQEND
  8
0
  0
POLYLINE
  8
21
 66
1
 10
0.0000
 20
0.0000
 30
0.0000
 40
0.1524
 41
0.1524
 70
0
  0
VERTEX
  8
21
 10
50.9270
 20
42.9260
 30
0.0000
  0
VERTEX
  8
21
 10
50.9270
 20
40.8940
 30
0.0000
  0
SEQEND
  8
0
  0
POLYLINE
  8
21
 66
1
 10
0.0000
 20
0.0000
 30
0.0000
 40
0.0762
 41
0.0762
 70
0
  0
VERTEX
  8
21
 10
50.8889
 20
40.8940
 30
0.0000
 42
1.0000
  0
VERTEX
  8
21
 10
50.9651
 20
40.8940
 30
0.0000
  0
SEQEND
  8
0
  0
POLYLINE
  8
21
 66
1
 10
0.0000
 20
0.0000
 30
0.0000
 40
0.0762
 41
0.0762
 70
0
  0
VERTEX
  8
21
 10
50.9651
 20
42.9260
 30
0.0000
 42
1.0000
  0
VERTEX
  8
21
 10
50.8889
 20
42.9260
 30
0.0000
  0
SEQEND
  8
0
  0
POLYLINE
  8
21
 66
1
 10
0.0000
 20
0.0000
 30
0.0000
 40
0.1524
 41
0.1524
 70
0
  0
VERTEX
  8
21
 10
55.7530
 20
42.9260
 30
0.0000
 42
0.4142
  0
VERTEX
  8
21
 10
55.4990
 20
43.1800
 30
0.0000
  0
SEQEND
  8
0
  0
POLYLINE
  8
21
 66
1
 10
0.0000
 20
0.0000
 30
0.0000
 40
0.0762
 41
0.0762
 70
0
  0
VERTEX
  8
21
 10
55.7149
 20
42.9260
 30
0.0000
 42
1.0000
  0
VERTEX
  8
21
 10
55.7911
 20
42.9260
 30
0.0000
  0
SEQEND
  8
0
  0
POLYLINE
  8
21
 66
1
 10
0.0000
 20
0.0000
 30
0.0000
 40
0.0762
 41
0.0762
 70
0
  0
VERTEX
  8
21
 10
55.4990
 20
43.2181
 30
0.0000
 42
1.0000
  0
VERTEX
  8
21
 10
55.4990
 20
43.1419
 30
0.0000
  0
SEQEND
  8
0
  0
POLYLINE
  8
21
 66
1
 10
0.0000
 20
0.0000
 30
0.0000
 40
0.1524
 41
0.1524
 70
0
  0
VERTEX
  8
21
 10
51.1810
 20
43.1800
 30
0.0000
 42
0.4142
  0
VERTEX
  8
21
 10
50.9270
 20
42.9260
 30
0.0000
  0
SEQEND
  8
0
  0
POLYLINE
  8
21
 66
1
 10
0.0000
 20
0.0000
 30
0.0000
 40
0.0762
 41
0.0762
 70
0
  0
VERTEX
  8
21
 10
51.1810
 20
43.1419
 30
0.0000
 42
1.0000
  0
VERTEX
  8
21
 10
51.1810
 20
43.2181
 30
0.0000
  0
SEQEND
  8
0
  0
POLYLINE
  8
21
 66
1
 10
0.0000
 20
0.0000
 30
0.0000
 40
0.0762
 41
0.0762
 70
0
  0
VERTEX
  8
21
 10
50.8889
 20
42.9260
 30
0.0000
 42
1.0000
  0
VERTEX
  8
21
 10
50.9651
 20
42.9260
 30
0.0000
  0
SEQEND
  8
0
  0
POLYLINE
  8
21
 66
1
 10
0.0000
 20
0.0000
 30
0.0000
 40
0.1524
 41
0.1524
 70
0
  0
VERTEX
  8
21
 10
55.4990
 20
40.6400
 30
0.0000
 42
0.4142
  0
VERTEX
  8
21
 10
55.7530
 20
40.8940
 30
0.0000
  0
SEQEND
  8
0
  0
POLYLINE
  8
21
 66
1
 10
0.0000
 20
0.0000
 30
0.0000
 40
0.0762
 41
0.0762
 70
0
  0
VERTEX
  8
21
 10
55.4990
 20
40.6781
 30
0.0000
 42
1.0000
  0
VERTEX
  8
21
 10
55.4990
 20
40.6019
 30
0.0000
  0
SEQEND
  8
0
  0
POLYLINE
  8
21
 66
1
 10
0.0000
 20
0.0000
 30
0.0000
 40
0.0762
 41
0.0762
 70
0
  0
VERTEX
  8
21
 10
55.7911
 20
40.8940
 30
0.0000
 42
1.0000
  0
VERTEX
  8
21
 10
55.7149
 20
40.8940
 30
0.0000
  0
SEQEND
  8
0
  0
POLYLINE
  8
21
 66
1
 10
0.0000
 20
0.0000
 30
0.0000
 40
0.1524
 41
0.1524
 70
0
  0
VERTEX
  8
21
 10
50.9270
 20
40.8940
 30
0.0000
 42
0.4142
  0
VERTEX
  8
21
 10
51.1810
 20
40.6400
 30
0.0000
  0
SEQEND
  8
0
  0
POLYLINE
  8
21
 66
1
 10
0.0000
 20
0.0000
 30
0.0000
 40
0.0762
 41
0.0762
 70
0
  0
VERTEX
  8
21
 10
50.9651
 20
40.8940
 30
0.0000
 42
1.0000
  0
VERTEX
  8
21
 10
50.8889
 20
40.8940
 30
0.0000
  0
SEQEND
  8
0
  0
POLYLINE
  8
21
 66
1
 10
0.0000
 20
0.0000
 30
0.0000
 40
0.0762
 41
0.0762
 70
0
  0
VERTEX
  8
21
 10
51.1810
 20
40.6019
 30
0.0000
 42
1.0000
  0
VERTEX
  8
21
 10
51.1810
 20
40.6781
 30
0.0000
  0
SEQEND
  8
0
  0
POLYLINE
  8
51
 66
1
 10
0.0000
 20
0.0000
 30
0.0000
 40
0.1524
 41
0.1524
 70
0
  0
VERTEX
  8
51
 10
54.1020
 20
41.9100
 30
0.0000
  0
VERTEX
  8
51
 10
53.7210
 20
41.9100
 30
0.0000
  0
SEQEND
  8
0
  0
POLYLINE
  8
51
 66
1
 10
0.0000
 20
0.0000
 30
0.0000
 40
0.0762
 41
0.0762
 70
0
  0
VERTEX
  8
51
 10
53.7210
 20
41.9481
 30
0.0000
 42
1.0000
  0
VERTEX
  8
51
 10
53.7210
 20
41.8719
 30
0.0000
  0
SEQEND
  8
0
  0
POLYLINE
  8
51
 66
1
 10
0.0000
 20
0.0000
 30
0.0000
 40
0.0762
 41
0.0762
 70
0
  0
VERTEX
  8
51
 10
54.1020
 20
41.8719
 30
0.0000
 42
1.0000
  0
VERTEX
  8
51
 10
54.1020
 20
41.9481
 30
0.0000
  0
SEQEND
  8
0
  0
POLYLINE
  8
21
 66
1
 10
0.0000
 20
0.0000
 30
0.0000
 40
0.1524
 41
0.1524
 70
0
  0
VERTEX
  8
21
 10
53.7210
 20
41.9100
 30
0.0000
  0
VERTEX
  8
21
 10
53.5940
 20
41.9100
 30
0.0000
  0
SEQEND
  8
0
  0
POLYLINE
  8
21
 66
1
 10
0.0000
 20
0.0000
 30
0.0000
 40
0.0762
 41
0.0762
 70
0
  0
VERTEX
  8
21
 10
53.5940
 20
41.9481
 30
0.0000
 42
1.0000
  0
VERTEX
  8
21
 10
53.5940
 20
41.8719
 30
0.0000
  0
SEQEND
  8
0
  0
POLYLINE
  8
21
 66
1
 10
0.0000
 20
0.0000
 30
0.0000
 40
0.0762
 41
0.0762
 70
0
  0
VERTEX
  8
21
 10
53.7210
 20
41.8719
 30
0.0000
 42
1.0000
  0
VERTEX
  8
21
 10
53.7210
 20
41.9481
 30
0.0000
  0
SEQEND
  8
0
  0
POLYLINE
  8
21
 66
1
 10
0.0000
 20
0.0000
 30
0.0000
 40
0.2540
 41
0.2540
 70
0
  0
VERTEX
  8
21
 10
53.5940
 20
41.9100
 30
0.0000
  0
VERTEX
  8
21
 10
53.5940
 20
42.6720
 30
0.0000
  0
SEQEND
  8
0
  0
POLYLINE
  8
21
 66
1
 10
0.0000
 20
0.0000
 30
0.0000
 40
0.1270
 41
0.1270
 70
0
  0
VERTEX
  8
21
 10
53.6575
 20
42.6720
 30
0.0000
 42
1.0000
  0
VERTEX
  8
21
 10
53.5305
 20
42.6720
 30
0.0000
  0
SEQEND
  8
0
  0
POLYLINE
  8
21
 66
1
 10
0.0000
 20
0.0000
 30
0.0000
 40
0.1270
 41
0.1270
 70
0
  0
VERTEX
  8
21
 10
53.5305
 20
41.9100
 30
0.0000
 42
1.0000
  0
VERTEX
  8
21
 10
53.6575
 20
41.9100
 30
0.0000
  0
SEQEND
  8
0
  0
POLYLINE
  8
21
 66
1
 10
0.0000
 20
0.0000
 30
0.0000
 40
0.2540
 41
0.2540
 70
0
  0
VERTEX
  8
21
 10
53.5940
 20
41.9100
 30
0.0000
  0
VERTEX
  8
21
 10
53.5940
 20
41.1480
 30
0.0000
  0
SEQEND
  8
0
  0
POLYLINE
  8
21
 66
1
 10
0.0000
 20
0.0000
 30
0.0000
 40
0.1270
 41
0.1270
 70
0
  0
VERTEX
  8
21
 10
53.5305
 20
41.1480
 30
0.0000
 42
1.0000
  0
VERTEX
  8
21
 10
53.6575
 20
41.1480
 30
0.0000
  0
SEQEND
  8
0
  0
POLYLINE
  8
21
 66
1
 10
0.0000
 20
0.0000
 30
0.0000
 40
0.1270
 41
0.1270
 70
0
  0
VERTEX
  8
21
 10
53.6575
 20
41.9100
 30
0.0000
 42
1.0000
  0
VERTEX
  8
21
 10
53.5305
 20
41.9100
 30
0.0000
  0
SEQEND
  8
0
  0
POLYLINE
  8
21
 66
1
 10
0.0000
 20
0.0000
 30
0.0000
 40
0.2540
 41
0.2540
 70
0
  0
VERTEX
  8
21
 10
53.0860
 20
42.6720
 30
0.0000
  0
VERTEX
  8
21
 10
53.0860
 20
41.9100
 30
0.0000
  0
SEQEND
  8
0
  0
POLYLINE
  8
21
 66
1
 10
0.0000
 20
0.0000
 30
0.0000
 40
0.1270
 41
0.1270
 70
0
  0
VERTEX
  8
21
 10
53.0225
 20
41.9100
 30
0.0000
 42
1.0000
  0
VERTEX
  8
21
 10
53.1495
 20
41.9100
 30
0.0000
  0
SEQEND
  8
0
  0
POLYLINE
  8
21
 66
1
 10
0.0000
 20
0.0000
 30
0.0000
 40
0.1270
 41
0.1270
 70
0
  0
VERTEX
  8
21
 10
53.1495
 20
42.6720
 30
0.0000
 42
1.0000
  0
VERTEX
  8
21
 10
53.0225
 20
42.6720
 30
0.0000
  0
SEQEND
  8
0
  0
POLYLINE
  8
21
 66
1
 10
0.0000
 20
0.0000
 30
0.0000
 40
0.2540
 41
0.2540
 70
0
  0
VERTEX
  8
21
 10
53.0860
 20
41.9100
 30
0.0000
  0
VERTEX
  8
21
 10
53.0860
 20
41.1480
 30
0.0000
  0
SEQEND
  8
0
  0
POLYLINE
  8
21
 66
1
 10
0.0000
 20
0.0000
 30
0.0000
 40
0.1270
 41
0.1270
 70
0
  0
VERTEX
  8
21
 10
53.0225
 20
41.1480
 30
0.0000
 42
1.0000
  0
VERTEX
  8
21
 10
53.1495
 20
41.1480
 30
0.0000
  0
SEQEND
  8
0
  0
POLYLINE
  8
21
 66
1
 10
0.0000
 20
0.0000
 30
0.0000
 40
0.1270
 41
0.1270
 70
0
  0
VERTEX
  8
21
 10
53.1495
 20
41.9100
 30
0.0000
 42
1.0000
  0
VERTEX
  8
21
 10
53.0225
 20
41.9100
 30
0.0000
  0
SEQEND
  8
0
  0
POLYLINE
  8
21
 66
1
 10
0.0000
 20
0.0000
 30
0.0000
 40
0.1524
 41
0.1524
 70
0
  0
VERTEX
  8
21
 10
53.0860
 20
41.9100
 30
0.0000
  0
VERTEX
  8
21
 10
52.9590
 20
41.9100
 30
0.0000
  0
SEQEND
  8
0
  0
POLYLINE
  8
21
 66
1
 10
0.0000
 20
0.0000
 30
0.0000
 40
0.0762
 41
0.0762
 70
0
  0
VERTEX
  8
21
 10
52.9590
 20
41.9481
 30
0.0000
 42
1.0000
  0
VERTEX
  8
21
 10
52.9590
 20
41.8719
 30
0.0000
  0
SEQEND
  8
0
  0
POLYLINE
  8
21
 66
1
 10
0.0000
 20
0.0000
 30
0.0000
 40
0.0762
 41
0.0762
 70
0
  0
VERTEX
  8
21
 10
53.0860
 20
41.8719
 30
0.0000
 42
1.0000
  0
VERTEX
  8
21
 10
53.0860
 20
41.9481
 30
0.0000
  0
SEQEND
  8
0
  0
POLYLINE
  8
51
 66
1
 10
0.0000
 20
0.0000
 30
0.0000
 40
0.1524
 41
0.1524
 70
0
  0
VERTEX
  8
51
 10
52.9590
 20
41.9100
 30
0.0000
  0
VERTEX
  8
51
 10
52.5780
 20
41.9100
 30
0.0000
  0
SEQEND
  8
0
  0
POLYLINE
  8
51
 66
1
 10
0.0000
 20
0.0000
 30
0.0000
 40
0.0762
 41
0.0762
 70
0
  0
VERTEX
  8
51
 10
52.5780
 20
41.9481
 30
0.0000
 42
1.0000
  0
VERTEX
  8
51
 10
52.5780
 20
41.8719
 30
0.0000
  0
SEQEND
  8
0
  0
POLYLINE
  8
51
 66
1
 10
0.0000
 20
0.0000
 30
0.0000
 40
0.0762
 41
0.0762
 70
0
  0
VERTEX
  8
51
 10
52.9590
 20
41.8719
 30
0.0000
 42
1.0000
  0
VERTEX
  8
51
 10
52.9590
 20
41.9481
 30
0.0000
  0
SEQEND
  8
0
  0
POLYLINE
  8
25
 66
1
 10
0.0000
 20
0.0000
 30
0.0000
 40
0.1270
 41
0.1270
 70
0
  0
VERTEX
  8
25
 10
51.8802
 20
44.4508
 30
0.0000
  0
VERTEX
  8
25
 10
51.6895
 20
44.6415
 30
0.0000
  0
SEQEND
  8
0
  0
POLYLINE
  8
25
 66
1
 10
0.0000
 20
0.0000
 30
0.0000
 40
0.0635
 41
0.0635
 70
0
  0
VERTEX
  8
25
 10
51.7119
 20
44.6639
 30
0.0000
 42
1.0000
  0
VERTEX
  8
25
 10
51.6670
 20
44.6190
 30
0.0000
  0
SEQEND
  8
0
  0
POLYLINE
  8
25
 66
1
 10
0.0000
 20
0.0000
 30
0.0000
 40
0.0635
 41
0.0635
 70
0
  0
VERTEX
  8
25
 10
51.8577
 20
44.4284
 30
0.0000
 42
1.0000
  0
VERTEX
  8
25
 10
51.9026
 20
44.4733
 30
0.0000
  0
SEQEND
  8
0
  0
POLYLINE
  8
25
 66
1
 10
0.0000
 20
0.0000
 30
0.0000
 40
0.1270
 41
0.1270
 70
0
  0
VERTEX
  8
25
 10
51.6895
 20
44.6415
 30
0.0000
  0
VERTEX
  8
25
 10
51.3082
 20
44.6415
 30
0.0000
  0
SEQEND
  8
0
  0
POLYLINE
  8
25
 66
1
 10
0.0000
 20
0.0000
 30
0.0000
 40
0.0635
 41
0.0635
 70
0
  0
VERTEX
  8
25
 10
51.3082
 20
44.6732
 30
0.0000
 42
1.0000
  0
VERTEX
  8
25
 10
51.3082
 20
44.6097
 30
0.0000
  0
SEQEND
  8
0
  0
POLYLINE
  8
25
 66
1
 10
0.0000
 20
0.0000
 30
0.0000
 40
0.0635
 41
0.0635
 70
0
  0
VERTEX
  8
25
 10
51.6895
 20
44.6097
 30
0.0000
 42
1.0000
  0
VERTEX
  8
25
 10
51.6895
 20
44.6732
 30
0.0000
  0
SEQEND
  8
0
  0
POLYLINE
  8
25
 66
1
 10
0.0000
 20
0.0000
 30
0.0000
 40
0.1270
 41
0.1270
 70
0
  0
VERTEX
  8
25
 10
51.3082
 20
44.6415
 30
0.0000
  0
VERTEX
  8
25
 10
51.1175
 20
44.4508
 30
0.0000
  0
SEQEND
  8
0
  0
POLYLINE
  8
25
 66
1
 10
0.0000
 20
0.0000
 30
0.0000
 40
0.0635
 41
0.0635
 70
0
  0
VERTEX
  8
25
 10
51.0950
 20
44.4733
 30
0.0000
 42
1.0000
  0
VERTEX
  8
25
 10
51.1400
 20
44.4284
 30
0.0000
  0
SEQEND
  8
0
  0
POLYLINE
  8
25
 66
1
 10
0.0000
 20
0.0000
 30
0.0000
 40
0.0635
 41
0.0635
 70
0
  0
VERTEX
  8
25
 10
51.3306
 20
44.6190
 30
0.0000
 42
1.0000
  0
VERTEX
  8
25
 10
51.2857
 20
44.6639
 30
0.0000
  0
SEQEND
  8
0
  0
POLYLINE
  8
25
 66
1
 10
0.0000
 20
0.0000
 30
0.0000
 40
0.1270
 41
0.1270
 70
0
  0
VERTEX
  8
25
 10
51.1175
 20
44.4508
 30
0.0000
  0
VERTEX
  8
25
 10
51.1175
 20
43.6882
 30
0.0000
  0
SEQEND
  8
0
  0
POLYLINE
  8
25
 66
1
 10
0.0000
 20
0.0000
 30
0.0000
 40
0.0635
 41
0.0635
 70
0
  0
VERTEX
  8
25
 10
51.0857
 20
43.6882
 30
0.0000
 42
1.0000
  0
VERTEX
  8
25
 10
51.1493
 20
43.6882
 30
0.0000
  0
SEQEND
  8
0
  0
POLYLINE
  8
25
 66
1
 10
0.0000
 20
0.0000
 30
0.0000
 40
0.0635
 41
0.0635
 70
0
  0
VERTEX
  8
25
 10
51.1493
 20
44.4508
 30
0.0000
 42
1.0000
  0
VERTEX
  8
25
 10
51.0857
 20
44.4508
 30
0.0000
  0
SEQEND
  8
0
  0
POLYLINE
  8
25
 66
1
 10
0.0000
 20
0.0000
 30
0.0000
 40
0.1270
 41
0.1270
 70
0
  0
VERTEX
  8
25
 10
51.1175
 20
43.6882
 30
0.0000
  0
VERTEX
  8
25
 10
51.3082
 20
43.4975
 30
0.0000
  0
SEQEND
  8
0
  0
POLYLINE
  8
25
 66
1
 10
0.0000
 20
0.0000
 30
0.0000
 40
0.0635
 41
0.0635
 70
0
  0
VERTEX
  8
25
 10
51.2857
 20
43.4750
 30
0.0000
 42
1.0000
  0
VERTEX
  8
25
 10
51.3306
 20
43.5200
 30
0.0000
  0
SEQEND
  8
0
  0
POLYLINE
  8
25
 66
1
 10
0.0000
 20
0.0000
 30
0.0000
 40
0.0635
 41
0.0635
 70
0
  0
VERTEX
  8
25
 10
51.1400
 20
43.7106
 30
0.0000
 42
1.0000
  0
VERTEX
  8
25
 10
51.0950
 20
43.6657
 30
0.0000
  0
SEQEND
  8
0
  0
POLYLINE
  8
25
 66
1
 10
0.0000
 20
0.0000
 30
0.0000
 40
0.1270
 41
0.1270
 70
0
  0
VERTEX
  8
25
 10
51.3082
 20
43.4975
 30
0.0000
  0
VERTEX
  8
25
 10
51.6895
 20
43.4975
 30
0.0000
  0
SEQEND
  8
0
  0
POLYLINE
  8
25
 66
1
 10
0.0000
 20
0.0000
 30
0.0000
 40
0.0635
 41
0.0635
 70
0
  0
VERTEX
  8
25
 10
51.6895
 20
43.4657
 30
0.0000
 42
1.0000
  0
VERTEX
  8
25
 10
51.6895
 20
43.5293
 30
0.0000
  0
SEQEND
  8
0
  0
POLYLINE
  8
25
 66
1
 10
0.0000
 20
0.0000
 30
0.0000
 40
0.0635
 41
0.0635
 70
0
  0
VERTEX
  8
25
 10
51.3082
 20
43.5293
 30
0.0000
 42
1.0000
  0
VERTEX
  8
25
 10
51.3082
 20
43.4657
 30
0.0000
  0
SEQEND
  8
0
  0
POLYLINE
  8
25
 66
1
 10
0.0000
 20
0.0000
 30
0.0000
 40
0.1270
 41
0.1270
 70
0
  0
VERTEX
  8
25
 10
51.6895
 20
43.4975
 30
0.0000
  0
VERTEX
  8
25
 10
51.8802
 20
43.6882
 30
0.0000
  0
SEQEND
  8
0
  0
POLYLINE
  8
25
 66
1
 10
0.0000
 20
0.0000
 30
0.0000
 40
0.0635
 41
0.0635
 70
0
  0
VERTEX
  8
25
 10
51.9026
 20
43.6657
 30
0.0000
 42
1.0000
  0
VERTEX
  8
25
 10
51.8577
 20
43.7106
 30
0.0000
  0
SEQEND
  8
0
  0
POLYLINE
  8
25
 66
1
 10
0.0000
 20
0.0000
 30
0.0000
 40
0.0635
 41
0.0635
 70
0
  0
VERTEX
  8
25
 10
51.6670
 20
43.5200
 30
0.0000
 42
1.0000
  0
VERTEX
  8
25
 10
51.7119
 20
43.4750
 30
0.0000
  0
SEQEND
  8
0
  0
POLYLINE
  8
25
 66
1
 10
0.0000
 20
0.0000
 30
0.0000
 40
0.1270
 41
0.1270
 70
0
  0
VERTEX
  8
25
 10
52.2869
 20
44.4508
 30
0.0000
  0
VERTEX
  8
25
 10
52.4776
 20
44.6415
 30
0.0000
  0
SEQEND
  8
0
  0
POLYLINE
  8
25
 66
1
 10
0.0000
 20
0.0000
 30
0.0000
 40
0.0635
 41
0.0635
 70
0
  0
VERTEX
  8
25
 10
52.5000
 20
44.6190
 30
0.0000
 42
1.0000
  0
VERTEX
  8
25
 10
52.4551
 20
44.6639
 30
0.0000
  0
SEQEND
  8
0
  0
POLYLINE
  8
25
 66
1
 10
0.0000
 20
0.0000
 30
0.0000
 40
0.0635
 41
0.0635
 70
0
  0
VERTEX
  8
25
 10
52.2644
 20
44.4733
 30
0.0000
 42
1.0000
  0
VERTEX
  8
25
 10
52.3093
 20
44.4284
 30
0.0000
  0
SEQEND
  8
0
  0
POLYLINE
  8
25
 66
1
 10
0.0000
 20
0.0000
 30
0.0000
 40
0.1270
 41
0.1270
 70
0
  0
VERTEX
  8
25
 10
52.4776
 20
44.6415
 30
0.0000
  0
VERTEX
  8
25
 10
52.8589
 20
44.6415
 30
0.0000
  0
SEQEND
  8
0
  0
POLYLINE
  8
25
 66
1
 10
0.0000
 20
0.0000
 30
0.0000
 40
0.0635
 41
0.0635
 70
0
  0
VERTEX
  8
25
 10
52.8589
 20
44.6097
 30
0.0000
 42
1.0000
  0
VERTEX
  8
25
 10
52.8589
 20
44.6732
 30
0.0000
  0
SEQEND
  8
0
  0
POLYLINE
  8
25
 66
1
 10
0.0000
 20
0.0000
 30
0.0000
 40
0.0635
 41
0.0635
 70
0
  0
VERTEX
  8
25
 10
52.4776
 20
44.6732
 30
0.0000
 42
1.0000
  0
VERTEX
  8
25
 10
52.4776
 20
44.6097
 30
0.0000
  0
SEQEND
  8
0
  0
POLYLINE
  8
25
 66
1
 10
0.0000
 20
0.0000
 30
0.0000
 40
0.1270
 41
0.1270
 70
0
  0
VERTEX
  8
25
 10
52.8589
 20
44.6415
 30
0.0000
  0
VERTEX
  8
25
 10
53.0495
 20
44.4508
 30
0.0000
  0
SEQEND
  8
0
  0
POLYLINE
  8
25
 66
1
 10
0.0000
 20
0.0000
 30
0.0000
 40
0.0635
 41
0.0635
 70
0
  0
VERTEX
  8
25
 10
53.0271
 20
44.4284
 30
0.0000
 42
1.0000
  0
VERTEX
  8
25
 10
53.0720
 20
44.4733
 30
0.0000
  0
SEQEND
  8
0
  0
POLYLINE
  8
25
 66
1
 10
0.0000
 20
0.0000
 30
0.0000
 40
0.0635
 41
0.0635
 70
0
  0
VERTEX
  8
25
 10
52.8813
 20
44.6639
 30
0.0000
 42
1.0000
  0
VERTEX
  8
25
 10
52.8364
 20
44.6190
 30
0.0000
  0
SEQEND
  8
0
  0
POLYLINE
  8
25
 66
1
 10
0.0000
 20
0.0000
 30
0.0000
 40
0.1270
 41
0.1270
 70
0
  0
VERTEX
  8
25
 10
53.0495
 20
44.4508
 30
0.0000
  0
VERTEX
  8
25
 10
53.0495
 20
44.2602
 30
0.0000
  0
SEQEND
  8
0
  0
POLYLINE
  8
25
 66
1
 10
0.0000
 20
0.0000
 30
0.0000
 40
0.0635
 41
0.0635
 70
0
  0
VERTEX
  8
25
 10
53.0178
 20
44.2602
 30
0.0000
 42
1.0000
  0
VERTEX
  8
25
 10
53.0813
 20
44.2602
 30
0.0000
  0
SEQEND
  8
0
  0
POLYLINE
  8
25
 66
1
 10
0.0000
 20
0.0000
 30
0.0000
 40
0.0635
 41
0.0635
 70
0
  0
VERTEX
  8
25
 10
53.0813
 20
44.4508
 30
0.0000
 42
1.0000
  0
VERTEX
  8
25
 10
53.0178
 20
44.4508
 30
0.0000
  0
SEQEND
  8
0
  0
POLYLINE
  8
25
 66
1
 10
0.0000
 20
0.0000
 30
0.0000
 40
0.1270
 41
0.1270
 70
0
  0
VERTEX
  8
25
 10
53.0495
 20
44.2602
 30
0.0000
  0
VERTEX
  8
25
 10
52.8589
 20
44.0695
 30
0.0000
  0
SEQEND
  8
0
  0
POLYLINE
  8
25
 66
1
 10
0.0000
 20
0.0000
 30
0.0000
 40
0.0635
 41
0.0635
 70
0
  0
VERTEX
  8
25
 10
52.8364
 20
44.0919
 30
0.0000
 42
1.0000
  0
VERTEX
  8
25
 10
52.8813
 20
44.0470
 30
0.0000
  0
SEQEND
  8
0
  0
POLYLINE
  8
25
 66
1
 10
0.0000
 20
0.0000
 30
0.0000
 40
0.0635
 41
0.0635
 70
0
  0
VERTEX
  8
25
 10
53.0720
 20
44.2377
 30
0.0000
 42
1.0000
  0
VERTEX
  8
25
 10
53.0271
 20
44.2826
 30
0.0000
  0
SEQEND
  8
0
  0
POLYLINE
  8
25
 66
1
 10
0.0000
 20
0.0000
 30
0.0000
 40
0.1270
 41
0.1270
 70
0
  0
VERTEX
  8
25
 10
52.8589
 20
44.0695
 30
0.0000
  0
VERTEX
  8
25
 10
52.6682
 20
44.0695
 30
0.0000
  0
SEQEND
  8
0
  0
POLYLINE
  8
25
 66
1
 10
0.0000
 20
0.0000
 30
0.0000
 40
0.0635
 41
0.0635
 70
0
  0
VERTEX
  8
25
 10
52.6682
 20
44.1012
 30
0.0000
 42
1.0000
  0
VERTEX
  8
25
 10
52.6682
 20
44.0377
 30
0.0000
  0
SEQEND
  8
0
  0
POLYLINE
  8
25
 66
1
 10
0.0000
 20
0.0000
 30
0.0000
 40
0.0635
 41
0.0635
 70
0
  0
VERTEX
  8
25
 10
52.8589
 20
44.0377
 30
0.0000
 42
1.0000
  0
VERTEX
  8
25
 10
52.8589
 20
44.1012
 30
0.0000
  0
SEQEND
  8
0
  0
POLYLINE
  8
25
 66
1
 10
0.0000
 20
0.0000
 30
0.0000
 40
0.1270
 41
0.1270
 70
0
  0
VERTEX
  8
25
 10
52.8589
 20
44.0695
 30
0.0000
  0
VERTEX
  8
25
 10
53.0495
 20
43.8788
 30
0.0000
  0
SEQEND
  8
0
  0
POLYLINE
  8
25
 66
1
 10
0.0000
 20
0.0000
 30
0.0000
 40
0.0635
 41
0.0635
 70
0
  0
VERTEX
  8
25
 10
53.0271
 20
43.8564
 30
0.0000
 42
1.0000
  0
VERTEX
  8
25
 10
53.0720
 20
43.9013
 30
0.0000
  0
SEQEND
  8
0
  0
POLYLINE
  8
25
 66
1
 10
0.0000
 20
0.0000
 30
0.0000
 40
0.0635
 41
0.0635
 70
0
  0
VERTEX
  8
25
 10
52.8813
 20
44.0919
 30
0.0000
 42
1.0000
  0
VERTEX
  8
25
 10
52.8364
 20
44.0470
 30
0.0000
  0
SEQEND
  8
0
  0
POLYLINE
  8
25
 66
1
 10
0.0000
 20
0.0000
 30
0.0000
 40
0.1270
 41
0.1270
 70
0
  0
VERTEX
  8
25
 10
53.0495
 20
43.8788
 30
0.0000
  0
VERTEX
  8
25
 10
53.0495
 20
43.6882
 30
0.0000
  0
SEQEND
  8
0
  0
POLYLINE
  8
25
 66
1
 10
0.0000
 20
0.0000
 30
0.0000
 40
0.0635
 41
0.0635
 70
0
  0
VERTEX
  8
25
 10
53.0178
 20
43.6882
 30
0.0000
 42
1.0000
  0
VERTEX
  8
25
 10
53.0813
 20
43.6882
 30
0.0000
  0
SEQEND
  8
0
  0
POLYLINE
  8
25
 66
1
 10
0.0000
 20
0.0000
 30
0.0000
 40
0.0635
 41
0.0635
 70
0
  0
VERTEX
  8
25
 10
53.0813
 20
43.8788
 30
0.0000
 42
1.0000
  0
VERTEX
  8
25
 10
53.0178
 20
43.8788
 30
0.0000
  0
SEQEND
  8
0
  0
POLYLINE
  8
25
 66
1
 10
0.0000
 20
0.0000
 30
0.0000
 40
0.1270
 41
0.1270
 70
0
  0
VERTEX
  8
25
 10
53.0495
 20
43.6882
 30
0.0000
  0
VERTEX
  8
25
 10
52.8589
 20
43.4975
 30
0.0000
  0
SEQEND
  8
0
  0
POLYLINE
  8
25
 66
1
 10
0.0000
 20
0.0000
 30
0.0000
 40
0.0635
 41
0.0635
 70
0
  0
VERTEX
  8
25
 10
52.8364
 20
43.5200
 30
0.0000
 42
1.0000
  0
VERTEX
  8
25
 10
52.8813
 20
43.4750
 30
0.0000
  0
SEQEND
  8
0
  0
POLYLINE
  8
25
 66
1
 10
0.0000
 20
0.0000
 30
0.0000
 40
0.0635
 41
0.0635
 70
0
  0
VERTEX
  8
25
 10
53.0720
 20
43.6657
 30
0.0000
 42
1.0000
  0
VERTEX
  8
25
 10
53.0271
 20
43.7106
 30
0.0000
  0
SEQEND
  8
0
  0
POLYLINE
  8
25
 66
1
 10
0.0000
 20
0.0000
 30
0.0000
 40
0.1270
 41
0.1270
 70
0
  0
VERTEX
  8
25
 10
52.8589
 20
43.4975
 30
0.0000
  0
VERTEX
  8
25
 10
52.4776
 20
43.4975
 30
0.0000
  0
SEQEND
  8
0
  0
POLYLINE
  8
25
 66
1
 10
0.0000
 20
0.0000
 30
0.0000
 40
0.0635
 41
0.0635
 70
0
  0
VERTEX
  8
25
 10
52.4776
 20
43.5293
 30
0.0000
 42
1.0000
  0
VERTEX
  8
25
 10
52.4776
 20
43.4657
 30
0.0000
  0
SEQEND
  8
0
  0
POLYLINE
  8
25
 66
1
 10
0.0000
 20
0.0000
 30
0.0000
 40
0.0635
 41
0.0635
 70
0
  0
VERTEX
  8
25
 10
52.8589
 20
43.4657
 30
0.0000
 42
1.0000
  0
VERTEX
  8
25
 10
52.8589
 20
43.5293
 30
0.0000
  0
SEQEND
  8
0
  0
POLYLINE
  8
25
 66
1
 10
0.0000
 20
0.0000
 30
0.0000
 40
0.1270
 41
0.1270
 70
0
  0
VERTEX
  8
25
 10
52.4776
 20
43.4975
 30
0.0000
  0
VERTEX
  8
25
 10
52.2869
 20
43.6882
 30
0.0000
  0
SEQEND
  8
0
  0
POLYLINE
  8
25
 66
1
 10
0.0000
 20
0.0000
 30
0.0000
 40
0.0635
 41
0.0635
 70
0
  0
VERTEX
  8
25
 10
52.3093
 20
43.7106
 30
0.0000
 42
1.0000
  0
VERTEX
  8
25
 10
52.2644
 20
43.6657
 30
0.0000
  0
SEQEND
  8
0
  0
POLYLINE
  8
25
 66
1
 10
0.0000
 20
0.0000
 30
0.0000
 40
0.0635
 41
0.0635
 70
0
  0
VERTEX
  8
25
 10
52.4551
 20
43.4750
 30
0.0000
 42
1.0000
  0
VERTEX
  8
25
 10
52.5000
 20
43.5200
 30
0.0000
  0
SEQEND
  8
0
  0
POLYLINE
  8
27
 66
1
 10
0.0000
 20
0.0000
 30
0.0000
 40
0.1270
 41
0.1270
 70
0
  0
VERTEX
  8
27
 10
51.1175
 20
39.3702
 30
0.0000
  0
VERTEX
  8
27
 10
51.1175
 20
40.1328
 30
0.0000
  0
SEQEND
  8
0
  0
POLYLINE
  8
27
 66
1
 10
0.0000
 20
0.0000
 30
0.0000
 40
0.0635
 41
0.0635
 70
0
  0
VERTEX
  8
27
 10
51.1493
 20
40.1328
 30
0.0000
 42
1.0000
  0
VERTEX
  8
27
 10
51.0857
 20
40.1328
 30
0.0000
  0
SEQEND
  8
0
  0
POLYLINE
  8
27
 66
1
 10
0.0000
 20
0.0000
 30
0.0000
 40
0.0635
 41
0.0635
 70
0
  0
VERTEX
  8
27
 10
51.0857
 20
39.3702
 30
0.0000
 42
1.0000
  0
VERTEX
  8
27
 10
51.1493
 20
39.3702
 30
0.0000
  0
SEQEND
  8
0
  0
POLYLINE
  8
27
 66
1
 10
0.0000
 20
0.0000
 30
0.0000
 40
0.1270
 41
0.1270
 70
0
  0
VERTEX
  8
27
 10
51.1175
 20
40.1328
 30
0.0000
  0
VERTEX
  8
27
 10
51.3082
 20
40.3235
 30
0.0000
  0
SEQEND
  8
0
  0
POLYLINE
  8
27
 66
1
 10
0.0000
 20
0.0000
 30
0.0000
 40
0.0635
 41
0.0635
 70
0
  0
VERTEX
  8
27
 10
51.3306
 20
40.3010
 30
0.0000
 42
1.0000
  0
VERTEX
  8
27
 10
51.2857
 20
40.3459
 30
0.0000
  0
SEQEND
  8
0
  0
POLYLINE
  8
27
 66
1
 10
0.0000
 20
0.0000
 30
0.0000
 40
0.0635
 41
0.0635
 70
0
  0
VERTEX
  8
27
 10
51.0950
 20
40.1553
 30
0.0000
 42
1.0000
  0
VERTEX
  8
27
 10
51.1400
 20
40.1104
 30
0.0000
  0
SEQEND
  8
0
  0
POLYLINE
  8
27
 66
1
 10
0.0000
 20
0.0000
 30
0.0000
 40
0.1270
 41
0.1270
 70
0
  0
VERTEX
  8
27
 10
51.3082
 20
40.3235
 30
0.0000
  0
VERTEX
  8
27
 10
51.6895
 20
40.3235
 30
0.0000
  0
SEQEND
  8
0
  0
POLYLINE
  8
27
 66
1
 10
0.0000
 20
0.0000
 30
0.0000
 40
0.0635
 41
0.0635
 70
0
  0
VERTEX
  8
27
 10
51.6895
 20
40.2917
 30
0.0000
 42
1.0000
  0
VERTEX
  8
27
 10
51.6895
 20
40.3552
 30
0.0000
  0
SEQEND
  8
0
  0
POLYLINE
  8
27
 66
1
 10
0.0000
 20
0.0000
 30
0.0000
 40
0.0635
 41
0.0635
 70
0
  0
VERTEX
  8
27
 10
51.3082
 20
40.3552
 30
0.0000
 42
1.0000
  0
VERTEX
  8
27
 10
51.3082
 20
40.2917
 30
0.0000
  0
SEQEND
  8
0
  0
POLYLINE
  8
27
 66
1
 10
0.0000
 20
0.0000
 30
0.0000
 40
0.1270
 41
0.1270
 70
0
  0
VERTEX
  8
27
 10
51.6895
 20
40.3235
 30
0.0000
  0
VERTEX
  8
27
 10
51.8802
 20
40.1328
 30
0.0000
  0
SEQEND
  8
0
  0
POLYLINE
  8
27
 66
1
 10
0.0000
 20
0.0000
 30
0.0000
 40
0.0635
 41
0.0635
 70
0
  0
VERTEX
  8
27
 10
51.8577
 20
40.1104
 30
0.0000
 42
1.0000
  0
VERTEX
  8
27
 10
51.9026
 20
40.1553
 30
0.0000
  0
SEQEND
  8
0
  0
POLYLINE
  8
27
 66
1
 10
0.0000
 20
0.0000
 30
0.0000
 40
0.0635
 41
0.0635
 70
0
  0
VERTEX
  8
27
 10
51.7119
 20
40.3459
 30
0.0000
 42
1.0000
  0
VERTEX
  8
27
 10
51.6670
 20
40.3010
 30
0.0000
  0
SEQEND
  8
0
  0
POLYLINE
  8
27
 66
1
 10
0.0000
 20
0.0000
 30
0.0000
 40
0.1270
 41
0.1270
 70
0
  0
VERTEX
  8
27
 10
51.8802
 20
40.1328
 30
0.0000
  0
VERTEX
  8
27
 10
51.8802
 20
39.3702
 30
0.0000
  0
SEQEND
  8
0
  0
POLYLINE
  8
27
 66
1
 10
0.0000
 20
0.0000
 30
0.0000
 40
0.0635
 41
0.0635
 70
0
  0
VERTEX
  8
27
 10
51.8484
 20
39.3702
 30
0.0000
 42
1.0000
  0
VERTEX
  8
27
 10
51.9119
 20
39.3702
 30
0.0000
  0
SEQEND
  8
0
  0
POLYLINE
  8
27
 66
1
 10
0.0000
 20
0.0000
 30
0.0000
 40
0.0635
 41
0.0635
 70
0
  0
VERTEX
  8
27
 10
51.9119
 20
40.1328
 30
0.0000
 42
1.0000
  0
VERTEX
  8
27
 10
51.8484
 20
40.1328
 30
0.0000
  0
SEQEND
  8
0
  0
POLYLINE
  8
27
 66
1
 10
0.0000
 20
0.0000
 30
0.0000
 40
0.1270
 41
0.1270
 70
0
  0
VERTEX
  8
27
 10
51.8802
 20
39.3702
 30
0.0000
  0
VERTEX
  8
27
 10
51.6895
 20
39.1795
 30
0.0000
  0
SEQEND
  8
0
  0
POLYLINE
  8
27
 66
1
 10
0.0000
 20
0.0000
 30
0.0000
 40
0.0635
 41
0.0635
 70
0
  0
VERTEX
  8
27
 10
51.6670
 20
39.2020
 30
0.0000
 42
1.0000
  0
VERTEX
  8
27
 10
51.7119
 20
39.1570
 30
0.0000
  0
SEQEND
  8
0
  0
POLYLINE
  8
27
 66
1
 10
0.0000
 20
0.0000
 30
0.0000
 40
0.0635
 41
0.0635
 70
0
  0
VERTEX
  8
27
 10
51.9026
 20
39.3477
 30
0.0000
 42
1.0000
  0
VERTEX
  8
27
 10
51.8577
 20
39.3926
 30
0.0000
  0
SEQEND
  8
0
  0
POLYLINE
  8
27
 66
1
 10
0.0000
 20
0.0000
 30
0.0000
 40
0.1270
 41
0.1270
 70
0
  0
VERTEX
  8
27
 10
51.6895
 20
39.1795
 30
0.0000
  0
VERTEX
  8
27
 10
51.3082
 20
39.1795
 30
0.0000
  0
SEQEND
  8
0
  0
POLYLINE
  8
27
 66
1
 10
0.0000
 20
0.0000
 30
0.0000
 40
0.0635
 41
0.0635
 70
0
  0
VERTEX
  8
27
 10
51.3082
 20
39.2113
 30
0.0000
 42
1.0000
  0
VERTEX
  8
27
 10
51.3082
 20
39.1478
 30
0.0000
  0
SEQEND
  8
0
  0
POLYLINE
  8
27
 66
1
 10
0.0000
 20
0.0000
 30
0.0000
 40
0.0635
 41
0.0635
 70
0
  0
VERTEX
  8
27
 10
51.6895
 20
39.1478
 30
0.0000
 42
1.0000
  0
VERTEX
  8
27
 10
51.6895
 20
39.2113
 30
0.0000
  0
SEQEND
  8
0
  0
POLYLINE
  8
27
 66
1
 10
0.0000
 20
0.0000
 30
0.0000
 40
0.1270
 41
0.1270
 70
0
  0
VERTEX
  8
27
 10
51.3082
 20
39.1795
 30
0.0000
  0
VERTEX
  8
27
 10
51.1175
 20
39.3702
 30
0.0000
  0
SEQEND
  8
0
  0
POLYLINE
  8
27
 66
1
 10
0.0000
 20
0.0000
 30
0.0000
 40
0.0635
 41
0.0635
 70
0
  0
VERTEX
  8
27
 10
51.1400
 20
39.3926
 30
0.0000
 42
1.0000
  0
VERTEX
  8
27
 10
51.0950
 20
39.3477
 30
0.0000
  0
SEQEND
  8
0
  0
POLYLINE
  8
27
 66
1
 10
0.0000
 20
0.0000
 30
0.0000
 40
0.0635
 41
0.0635
 70
0
  0
VERTEX
  8
27
 10
51.2857
 20
39.1570
 30
0.0000
 42
1.0000
  0
VERTEX
  8
27
 10
51.3306
 20
39.2020
 30
0.0000
  0
SEQEND
  8
0
  0
POLYLINE
  8
27
 66
1
 10
0.0000
 20
0.0000
 30
0.0000
 40
0.1270
 41
0.1270
 70
0
  0
VERTEX
  8
27
 10
51.1175
 20
39.3702
 30
0.0000
  0
VERTEX
  8
27
 10
51.8802
 20
40.1328
 30
0.0000
  0
SEQEND
  8
0
  0
POLYLINE
  8
27
 66
1
 10
0.0000
 20
0.0000
 30
0.0000
 40
0.0635
 41
0.0635
 70
0
  0
VERTEX
  8
27
 10
51.9026
 20
40.1104
 30
0.0000
 42
1.0000
  0
VERTEX
  8
27
 10
51.8577
 20
40.1553
 30
0.0000
  0
SEQEND
  8
0
  0
POLYLINE
  8
27
 66
1
 10
0.0000
 20
0.0000
 30
0.0000
 40
0.0635
 41
0.0635
 70
0
  0
VERTEX
  8
27
 10
51.0950
 20
39.3926
 30
0.0000
 42
1.0000
  0
VERTEX
  8
27
 10
51.1400
 20
39.3477
 30
0.0000
  0
SEQEND
  8
0
  0
POLYLINE
  8
27
 66
1
 10
0.0000
 20
0.0000
 30
0.0000
 40
0.1270
 41
0.1270
 70
0
  0
VERTEX
  8
27
 10
52.2869
 20
39.1795
 30
0.0000
  0
VERTEX
  8
27
 10
52.2869
 20
39.3702
 30
0.0000
  0
SEQEND
  8
0
  0
POLYLINE
  8
27
 66
1
 10
0.0000
 20
0.0000
 30
0.0000
 40
0.0635
 41
0.0635
 70
0
  0
VERTEX
  8
27
 10
52.3186
 20
39.3702
 30
0.0000
 42
1.0000
  0
VERTEX
  8
27
 10
52.2551
 20
39.3702
 30
0.0000
  0
SEQEND
  8
0
  0
POLYLINE
  8
27
 66
1
 10
0.0000
 20
0.0000
 30
0.0000
 40
0.0635
 41
0.0635
 70
0
  0
VERTEX
  8
27
 10
52.2551
 20
39.1795
 30
0.0000
 42
1.0000
  0
VERTEX
  8
27
 10
52.3186
 20
39.1795
 30
0.0000
  0
SEQEND
  8
0
  0
POLYLINE
  8
27
 66
1
 10
0.0000
 20
0.0000
 30
0.0000
 40
0.1270
 41
0.1270
 70
0
  0
VERTEX
  8
27
 10
52.2869
 20
39.3702
 30
0.0000
  0
VERTEX
  8
27
 10
52.4776
 20
39.3702
 30
0.0000
  0
SEQEND
  8
0
  0
POLYLINE
  8
27
 66
1
 10
0.0000
 20
0.0000
 30
0.0000
 40
0.0635
 41
0.0635
 70
0
  0
VERTEX
  8
27
 10
52.4776
 20
39.3384
 30
0.0000
 42
1.0000
  0
VERTEX
  8
27
 10
52.4776
 20
39.4019
 30
0.0000
  0
SEQEND
  8
0
  0
POLYLINE
  8
27
 66
1
 10
0.0000
 20
0.0000
 30
0.0000
 40
0.0635
 41
0.0635
 70
0
  0
VERTEX
  8
27
 10
52.2869
 20
39.4019
 30
0.0000
 42
1.0000
  0
VERTEX
  8
27
 10
52.2869
 20
39.3384
 30
0.0000
  0
SEQEND
  8
0
  0
POLYLINE
  8
27
 66
1
 10
0.0000
 20
0.0000
 30
0.0000
 40
0.1270
 41
0.1270
 70
0
  0
VERTEX
  8
27
 10
52.4776
 20
39.3702
 30
0.0000
  0
VERTEX
  8
27
 10
52.4776
 20
39.1795
 30
0.0000
  0
SEQEND
  8
0
  0
POLYLINE
  8
27
 66
1
 10
0.0000
 20
0.0000
 30
0.0000
 40
0.0635
 41
0.0635
 70
0
  0
VERTEX
  8
27
 10
52.4458
 20
39.1795
 30
0.0000
 42
1.0000
  0
VERTEX
  8
27
 10
52.5093
 20
39.1795
 30
0.0000
  0
SEQEND
  8
0
  0
POLYLINE
  8
27
 66
1
 10
0.0000
 20
0.0000
 30
0.0000
 40
0.0635
 41
0.0635
 70
0
  0
VERTEX
  8
27
 10
52.5093
 20
39.3702
 30
0.0000
 42
1.0000
  0
VERTEX
  8
27
 10
52.4458
 20
39.3702
 30
0.0000
  0
SEQEND
  8
0
  0
POLYLINE
  8
27
 66
1
 10
0.0000
 20
0.0000
 30
0.0000
 40
0.1270
 41
0.1270
 70
0
  0
VERTEX
  8
27
 10
52.4776
 20
39.1795
 30
0.0000
  0
VERTEX
  8
27
 10
52.2869
 20
39.1795
 30
0.0000
  0
SEQEND
  8
0
  0
POLYLINE
  8
27
 66
1
 10
0.0000
 20
0.0000
 30
0.0000
 40
0.0635
 41
0.0635
 70
0
  0
VERTEX
  8
27
 10
52.2869
 20
39.2113
 30
0.0000
 42
1.0000
  0
VERTEX
  8
27
 10
52.2869
 20
39.1478
 30
0.0000
  0
SEQEND
  8
0
  0
POLYLINE
  8
27
 66
1
 10
0.0000
 20
0.0000
 30
0.0000
 40
0.0635
 41
0.0635
 70
0
  0
VERTEX
  8
27
 10
52.4776
 20
39.1478
 30
0.0000
 42
1.0000
  0
VERTEX
  8
27
 10
52.4776
 20
39.2113
 30
0.0000
  0
SEQEND
  8
0
  0
POLYLINE
  8
27
 66
1
 10
0.0000
 20
0.0000
 30
0.0000
 40
0.1270
 41
0.1270
 70
0
  0
VERTEX
  8
27
 10
52.8716
 20
39.9422
 30
0.0000
  0
VERTEX
  8
27
 10
53.2529
 20
40.3235
 30
0.0000
  0
SEQEND
  8
0
  0
POLYLINE
  8
27
 66
1
 10
0.0000
 20
0.0000
 30
0.0000
 40
0.0635
 41
0.0635
 70
0
  0
VERTEX
  8
27
 10
53.2754
 20
40.3010
 30
0.0000
 42
1.0000
  0
VERTEX
  8
27
 10
53.2305
 20
40.3459
 30
0.0000
  0
SEQEND
  8
0
  0
POLYLINE
  8
27
 66
1
 10
0.0000
 20
0.0000
 30
0.0000
 40
0.0635
 41
0.0635
 70
0
  0
VERTEX
  8
27
 10
52.8491
 20
39.9646
 30
0.0000
 42
1.0000
  0
VERTEX
  8
27
 10
52.8940
 20
39.9197
 30
0.0000
  0
SEQEND
  8
0
  0
POLYLINE
  8
27
 66
1
 10
0.0000
 20
0.0000
 30
0.0000
 40
0.1270
 41
0.1270
 70
0
  0
VERTEX
  8
27
 10
53.2529
 20
40.3235
 30
0.0000
  0
VERTEX
  8
27
 10
53.2529
 20
39.1795
 30
0.0000
  0
SEQEND
  8
0
  0
POLYLINE
  8
27
 66
1
 10
0.0000
 20
0.0000
 30
0.0000
 40
0.0635
 41
0.0635
 70
0
  0
VERTEX
  8
27
 10
53.2212
 20
39.1795
 30
0.0000
 42
1.0000
  0
VERTEX
  8
27
 10
53.2847
 20
39.1795
 30
0.0000
  0
SEQEND
  8
0
  0
POLYLINE
  8
27
 66
1
 10
0.0000
 20
0.0000
 30
0.0000
 40
0.0635
 41
0.0635
 70
0
  0
VERTEX
  8
27
 10
53.2847
 20
40.3235
 30
0.0000
 42
1.0000
  0
VERTEX
  8
27
 10
53.2212
 20
40.3235
 30
0.0000
  0
SEQEND
  8
0
  0
POLYLINE
  8
27
 66
1
 10
0.0000
 20
0.0000
 30
0.0000
 40
0.1270
 41
0.1270
 70
0
  0
VERTEX
  8
27
 10
52.8716
 20
39.1795
 30
0.0000
  0
VERTEX
  8
27
 10
53.6342
 20
39.1795
 30
0.0000
  0
SEQEND
  8
0
  0
POLYLINE
  8
27
 66
1
 10
0.0000
 20
0.0000
 30
0.0000
 40
0.0635
 41
0.0635
 70
0
  0
VERTEX
  8
27
 10
53.6342
 20
39.1478
 30
0.0000
 42
1.0000
  0
VERTEX
  8
27
 10
53.6342
 20
39.2113
 30
0.0000
  0
SEQEND
  8
0
  0
POLYLINE
  8
27
 66
1
 10
0.0000
 20
0.0000
 30
0.0000
 40
0.0635
 41
0.0635
 70
0
  0
VERTEX
  8
27
 10
52.8716
 20
39.2113
 30
0.0000
 42
1.0000
  0
VERTEX
  8
27
 10
52.8716
 20
39.1478
 30
0.0000
  0
SEQEND
  8
0
  0
POLYLINE
  8
27
 66
1
 10
0.0000
 20
0.0000
 30
0.0000
 40
0.1270
 41
0.1270
 70
0
  0
VERTEX
  8
27
 10
55.4011
 20
39.7515
 30
0.0000
  0
VERTEX
  8
27
 10
55.4011
 20
39.3702
 30
0.0000
  0
SEQEND
  8
0
  0
POLYLINE
  8
27
 66
1
 10
0.0000
 20
0.0000
 30
0.0000
 40
0.0635
 41
0.0635
 70
0
  0
VERTEX
  8
27
 10
55.3693
 20
39.3702
 30
0.0000
 42
1.0000
  0
VERTEX
  8
27
 10
55.4328
 20
39.3702
 30
0.0000
  0
SEQEND
  8
0
  0
POLYLINE
  8
27
 66
1
 10
0.0000
 20
0.0000
 30
0.0000
 40
0.0635
 41
0.0635
 70
0
  0
VERTEX
  8
27
 10
55.4328
 20
39.7515
 30
0.0000
 42
1.0000
  0
VERTEX
  8
27
 10
55.3693
 20
39.7515
 30
0.0000
  0
SEQEND
  8
0
  0
POLYLINE
  8
27
 66
1
 10
0.0000
 20
0.0000
 30
0.0000
 40
0.1270
 41
0.1270
 70
0
  0
VERTEX
  8
27
 10
55.4011
 20
39.3702
 30
0.0000
  0
VERTEX
  8
27
 10
55.5917
 20
39.1795
 30
0.0000
  0
SEQEND
  8
0
  0
POLYLINE
  8
27
 66
1
 10
0.0000
 20
0.0000
 30
0.0000
 40
0.0635
 41
0.0635
 70
0
  0
VERTEX
  8
27
 10
55.5693
 20
39.1570
 30
0.0000
 42
1.0000
  0
VERTEX
  8
27
 10
55.6142
 20
39.2020
 30
0.0000
  0
SEQEND
  8
0
  0
POLYLINE
  8
27
 66
1
 10
0.0000
 20
0.0000
 30
0.0000
 40
0.0635
 41
0.0635
 70
0
  0
VERTEX
  8
27
 10
55.4235
 20
39.3926
 30
0.0000
 42
1.0000
  0
VERTEX
  8
27
 10
55.3786
 20
39.3477
 30
0.0000
  0
SEQEND
  8
0
  0
POLYLINE
  8
27
 66
1
 10
0.0000
 20
0.0000
 30
0.0000
 40
0.1270
 41
0.1270
 70
0
  0
VERTEX
  8
27
 10
55.5917
 20
39.1795
 30
0.0000
  0
VERTEX
  8
27
 10
55.7824
 20
39.1795
 30
0.0000
  0
SEQEND
  8
0
  0
POLYLINE
  8
27
 66
1
 10
0.0000
 20
0.0000
 30
0.0000
 40
0.0635
 41
0.0635
 70
0
  0
VERTEX
  8
27
 10
55.7824
 20
39.1478
 30
0.0000
 42
1.0000
  0
VERTEX
  8
27
 10
55.7824
 20
39.2113
 30
0.0000
  0
SEQEND
  8
0
  0
POLYLINE
  8
27
 66
1
 10
0.0000
 20
0.0000
 30
0.0000
 40
0.0635
 41
0.0635
 70
0
  0
VERTEX
  8
27
 10
55.5917
 20
39.2113
 30
0.0000
 42
1.0000
  0
VERTEX
  8
27
 10
55.5917
 20
39.1478
 30
0.0000
  0
SEQEND
  8
0
  0
POLYLINE
  8
27
 66
1
 10
0.0000
 20
0.0000
 30
0.0000
 40
0.1270
 41
0.1270
 70
0
  0
VERTEX
  8
27
 10
55.7824
 20
39.1795
 30
0.0000
  0
VERTEX
  8
27
 10
55.9730
 20
39.3702
 30
0.0000
  0
SEQEND
  8
0
  0
POLYLINE
  8
27
 66
1
 10
0.0000
 20
0.0000
 30
0.0000
 40
0.0635
 41
0.0635
 70
0
  0
VERTEX
  8
27
 10
55.9955
 20
39.3477
 30
0.0000
 42
1.0000
  0
VERTEX
  8
27
 10
55.9506
 20
39.3926
 30
0.0000
  0
SEQEND
  8
0
  0
POLYLINE
  8
27
 66
1
 10
0.0000
 20
0.0000
 30
0.0000
 40
0.0635
 41
0.0635
 70
0
  0
VERTEX
  8
27
 10
55.7599
 20
39.2020
 30
0.0000
 42
1.0000
  0
VERTEX
  8
27
 10
55.8048
 20
39.1570
 30
0.0000
  0
SEQEND
  8
0
  0
POLYLINE
  8
27
 66
1
 10
0.0000
 20
0.0000
 30
0.0000
 40
0.1270
 41
0.1270
 70
0
  0
VERTEX
  8
27
 10
55.9730
 20
39.3702
 30
0.0000
  0
VERTEX
  8
27
 10
55.9730
 20
39.7515
 30
0.0000
  0
SEQEND
  8
0
  0
POLYLINE
  8
27
 66
1
 10
0.0000
 20
0.0000
 30
0.0000
 40
0.0635
 41
0.0635
 70
0
  0
VERTEX
  8
27
 10
56.0048
 20
39.7515
 30
0.0000
 42
1.0000
  0
VERTEX
  8
27
 10
55.9413
 20
39.7515
 30
0.0000
  0
SEQEND
  8
0
  0
POLYLINE
  8
27
 66
1
 10
0.0000
 20
0.0000
 30
0.0000
 40
0.0635
 41
0.0635
 70
0
  0
VERTEX
  8
27
 10
55.9413
 20
39.3702
 30
0.0000
 42
1.0000
  0
VERTEX
  8
27
 10
56.0048
 20
39.3702
 30
0.0000
  0
SEQEND
  8
0
  0
POLYLINE
  8
27
 66
1
 10
0.0000
 20
0.0000
 30
0.0000
 40
0.1270
 41
0.1270
 70
0
  0
VERTEX
  8
27
 10
55.4011
 20
39.3702
 30
0.0000
  0
VERTEX
  8
27
 10
55.4011
 20
38.9888
 30
0.0000
  0
SEQEND
  8
0
  0
POLYLINE
  8
27
 66
1
 10
0.0000
 20
0.0000
 30
0.0000
 40
0.0635
 41
0.0635
 70
0
  0
VERTEX
  8
27
 10
55.3693
 20
38.9888
 30
0.0000
 42
1.0000
  0
VERTEX
  8
27
 10
55.4328
 20
38.9888
 30
0.0000
  0
SEQEND
  8
0
  0
POLYLINE
  8
27
 66
1
 10
0.0000
 20
0.0000
 30
0.0000
 40
0.0635
 41
0.0635
 70
0
  0
VERTEX
  8
27
 10
55.4328
 20
39.3702
 30
0.0000
 42
1.0000
  0
VERTEX
  8
27
 10
55.3693
 20
39.3702
 30
0.0000
  0
SEQEND
  8
0
  0
POLYLINE
  8
27
 66
1
 10
0.0000
 20
0.0000
 30
0.0000
 40
0.1270
 41
0.1270
 70
0
  0
VERTEX
  8
27
 10
55.4011
 20
38.9888
 30
0.0000
  0
VERTEX
  8
27
 10
55.2104
 20
38.7982
 30
0.0000
  0
SEQEND
  8
0
  0
POLYLINE
  8
27
 66
1
 10
0.0000
 20
0.0000
 30
0.0000
 40
0.0635
 41
0.0635
 70
0
  0
VERTEX
  8
27
 10
55.1879
 20
38.8206
 30
0.0000
 42
1.0000
  0
VERTEX
  8
27
 10
55.2328
 20
38.7757
 30
0.0000
  0
SEQEND
  8
0
  0
POLYLINE
  8
27
 66
1
 10
0.0000
 20
0.0000
 30
0.0000
 40
0.0635
 41
0.0635
 70
0
  0
VERTEX
  8
27
 10
55.4235
 20
38.9664
 30
0.0000
 42
1.0000
  0
VERTEX
  8
27
 10
55.3786
 20
39.0113
 30
0.0000
  0
SEQEND
  8
0
  0
POLYLINE
  8
27
 66
1
 10
0.0000
 20
0.0000
 30
0.0000
 40
0.1270
 41
0.1270
 70
0
  0
VERTEX
  8
27
 10
56.3798
 20
39.1795
 30
0.0000
  0
VERTEX
  8
27
 10
56.3798
 20
40.3235
 30
0.0000
  0
SEQEND
  8
0
  0
POLYLINE
  8
27
 66
1
 10
0.0000
 20
0.0000
 30
0.0000
 40
0.0635
 41
0.0635
 70
0
  0
VERTEX
  8
27
 10
56.4115
 20
40.3235
 30
0.0000
 42
1.0000
  0
VERTEX
  8
27
 10
56.3480
 20
40.3235
 30
0.0000
  0
SEQEND
  8
0
  0
POLYLINE
  8
27
 66
1
 10
0.0000
 20
0.0000
 30
0.0000
 40
0.0635
 41
0.0635
 70
0
  0
VERTEX
  8
27
 10
56.3480
 20
39.1795
 30
0.0000
 42
1.0000
  0
VERTEX
  8
27
 10
56.4115
 20
39.1795
 30
0.0000
  0
SEQEND
  8
0
  0
POLYLINE
  8
27
 66
1
 10
0.0000
 20
0.0000
 30
0.0000
 40
0.1270
 41
0.1270
 70
0
  0
VERTEX
  8
27
 10
56.3798
 20
40.3235
 30
0.0000
  0
VERTEX
  8
27
 10
57.1424
 20
40.3235
 30
0.0000
  0
SEQEND
  8
0
  0
POLYLINE
  8
27
 66
1
 10
0.0000
 20
0.0000
 30
0.0000
 40
0.0635
 41
0.0635
 70
0
  0
VERTEX
  8
27
 10
57.1424
 20
40.2917
 30
0.0000
 42
1.0000
  0
VERTEX
  8
27
 10
57.1424
 20
40.3552
 30
0.0000
  0
SEQEND
  8
0
  0
POLYLINE
  8
27
 66
1
 10
0.0000
 20
0.0000
 30
0.0000
 40
0.0635
 41
0.0635
 70
0
  0
VERTEX
  8
27
 10
56.3798
 20
40.3552
 30
0.0000
 42
1.0000
  0
VERTEX
  8
27
 10
56.3798
 20
40.2917
 30
0.0000
  0
SEQEND
  8
0
  0
POLYLINE
  8
27
 66
1
 10
0.0000
 20
0.0000
 30
0.0000
 40
0.1270
 41
0.1270
 70
0
  0
VERTEX
  8
27
 10
56.3798
 20
39.7515
 30
0.0000
  0
VERTEX
  8
27
 10
56.7611
 20
39.7515
 30
0.0000
  0
SEQEND
  8
0
  0
POLYLINE
  8
27
 66
1
 10
0.0000
 20
0.0000
 30
0.0000
 40
0.0635
 41
0.0635
 70
0
  0
VERTEX
  8
27
 10
56.7611
 20
39.7197
 30
0.0000
 42
1.0000
  0
VERTEX
  8
27
 10
56.7611
 20
39.7832
 30
0.0000
  0
SEQEND
  8
0
  0
POLYLINE
  8
27
 66
1
 10
0.0000
 20
0.0000
 30
0.0000
 40
0.0635
 41
0.0635
 70
0
  0
VERTEX
  8
27
 10
56.3798
 20
39.7832
 30
0.0000
 42
1.0000
  0
VERTEX
  8
27
 10
56.3798
 20
39.7197
 30
0.0000
  0
SEQEND
  8
0
  0
INSERT
  8
17
  2
OCTAGONP
 10
52.0700
 20
41.9100
 30
0.0000
 41
1.3208
 42
1.3208
 43
1.0000
 50
0.0000
  0
INSERT
  8
17
  2
OCTAGONP
 10
52.0700
 20
41.9100
 30
0.0000
 41
1.3208
 42
1.3208
 43
1.0000
 50
0.0000
  0
INSERT
  8
17
  2
OCTAGONP
 10
54.6100
 20
41.9100
 30
0.0000
 41
1.3208
 42
1.3208
 43
1.0000
 50
0.0000
  0
INSERT
  8
17
  2
OCTAGONP
 10
54.6100
 20
41.9100
 30
0.0000
 41
1.3208
 42
1.3208
 43
1.0000
 50
0.0000
  0
POINT
  8
23
 10
48.2600
 20
57.1500
 30
0.0000
  0
POLYLINE
  8
21
 66
1
 10
0.0000
 20
0.0000
 30
0.0000
 40
0.1524
 41
0.1524
 70
0
  0
VERTEX
  8
21
 10
46.1010
 20
58.4200
 30
0.0000
  0
VERTEX
  8
21
 10
50.4190
 20
58.4200
 30
0.0000
  0
SEQEND
  8
0
  0
POLYLINE
  8
21
 66
1
 10
0.0000
 20
0.0000
 30
0.0000
 40
0.0762
 41
0.0762
 70
0
  0
VERTEX
  8
21
 10
50.4190
 20
58.3819
 30
0.0000
 42
1.0000
  0
VERTEX
  8
21
 10
50.4190
 20
58.4581
 30
0.0000
  0
SEQEND
  8
0
  0
POLYLINE
  8
21
 66
1
 10
0.0000
 20
0.0000
 30
0.0000
 40
0.0762
 41
0.0762
 70
0
  0
VERTEX
  8
21
 10
46.1010
 20
58.4581
 30
0.0000
 42
1.0000
  0
VERTEX
  8
21
 10
46.1010
 20
58.3819
 30
0.0000
  0
SEQEND
  8
0
  0
POLYLINE
  8
21
 66
1
 10
0.0000
 20
0.0000
 30
0.0000
 40
0.1524
 41
0.1524
 70
0
  0
VERTEX
  8
21
 10
50.4190
 20
55.8800
 30
0.0000
  0
VERTEX
  8
21
 10
46.1010
 20
55.8800
 30
0.0000
  0
SEQEND
  8
0
  0
POLYLINE
  8
21
 66
1
 10
0.0000
 20
0.0000
 30
0.0000
 40
0.0762
 41
0.0762
 70
0
  0
VERTEX
  8
21
 10
46.1010
 20
55.9181
 30
0.0000
 42
1.0000
  0
VERTEX
  8
21
 10
46.1010
 20
55.8419
 30
0.0000
  0
SEQEND
  8
0
  0
POLYLINE
  8
21
 66
1
 10
0.0000
 20
0.0000
 30
0.0000
 40
0.0762
 41
0.0762
 70
0
  0
VERTEX
  8
21
 10
50.4190
 20
55.8419
 30
0.0000
 42
1.0000
  0
VERTEX
  8
21
 10
50.4190
 20
55.9181
 30
0.0000
  0
SEQEND
  8
0
  0
POLYLINE
  8
21
 66
1
 10
0.0000
 20
0.0000
 30
0.0000
 40
0.1524
 41
0.1524
 70
0
  0
VERTEX
  8
21
 10
50.6730
 20
58.1660
 30
0.0000
  0
VERTEX
  8
21
 10
50.6730
 20
56.1340
 30
0.0000
  0
SEQEND
  8
0
  0
POLYLINE
  8
21
 66
1
 10
0.0000
 20
0.0000
 30
0.0000
 40
0.0762
 41
0.0762
 70
0
  0
VERTEX
  8
21
 10
50.6349
 20
56.1340
 30
0.0000
 42
1.0000
  0
VERTEX
  8
21
 10
50.7111
 20
56.1340
 30
0.0000
  0
SEQEND
  8
0
  0
POLYLINE
  8
21
 66
1
 10
0.0000
 20
0.0000
 30
0.0000
 40
0.0762
 41
0.0762
 70
0
  0
VERTEX
  8
21
 10
50.7111
 20
58.1660
 30
0.0000
 42
1.0000
  0
VERTEX
  8
21
 10
50.6349
 20
58.1660
 30
0.0000
  0
SEQEND
  8
0
  0
POLYLINE
  8
21
 66
1
 10
0.0000
 20
0.0000
 30
0.0000
 40
0.1524
 41
0.1524
 70
0
  0
VERTEX
  8
21
 10
45.8470
 20
58.1660
 30
0.0000
  0
VERTEX
  8
21
 10
45.8470
 20
56.1340
 30
0.0000
  0
SEQEND
  8
0
  0
POLYLINE
  8
21
 66
1
 10
0.0000
 20
0.0000
 30
0.0000
 40
0.0762
 41
0.0762
 70
0
  0
VERTEX
  8
21
 10
45.8089
 20
56.1340
 30
0.0000
 42
1.0000
  0
VERTEX
  8
21
 10
45.8851
 20
56.1340
 30
0.0000
  0
SEQEND
  8
0
  0
POLYLINE
  8
21
 66
1
 10
0.0000
 20
0.0000
 30
0.0000
 40
0.0762
 41
0.0762
 70
0
  0
VERTEX
  8
21
 10
45.8851
 20
58.1660
 30
0.0000
 42
1.0000
  0
VERTEX
  8
21
 10
45.8089
 20
58.1660
 30
0.0000
  0
SEQEND
  8
0
  0
POLYLINE
  8
21
 66
1
 10
0.0000
 20
0.0000
 30
0.0000
 40
0.1524
 41
0.1524
 70
0
  0
VERTEX
  8
21
 10
50.6730
 20
58.1660
 30
0.0000
 42
0.4142
  0
VERTEX
  8
21
 10
50.4190
 20
58.4200
 30
0.0000
  0
SEQEND
  8
0
  0
POLYLINE
  8
21
 66
1
 10
0.0000
 20
0.0000
 30
0.0000
 40
0.0762
 41
0.0762
 70
0
  0
VERTEX
  8
21
 10
50.6349
 20
58.1660
 30
0.0000
 42
1.0000
  0
VERTEX
  8
21
 10
50.7111
 20
58.1660
 30
0.0000
  0
SEQEND
  8
0
  0
POLYLINE
  8
21
 66
1
 10
0.0000
 20
0.0000
 30
0.0000
 40
0.0762
 41
0.0762
 70
0
  0
VERTEX
  8
21
 10
50.4190
 20
58.4581
 30
0.0000
 42
1.0000
  0
VERTEX
  8
21
 10
50.4190
 20
58.3819
 30
0.0000
  0
SEQEND
  8
0
  0
POLYLINE
  8
21
 66
1
 10
0.0000
 20
0.0000
 30
0.0000
 40
0.1524
 41
0.1524
 70
0
  0
VERTEX
  8
21
 10
46.1010
 20
58.4200
 30
0.0000
 42
0.4142
  0
VERTEX
  8
21
 10
45.8470
 20
58.1660
 30
0.0000
  0
SEQEND
  8
0
  0
POLYLINE
  8
21
 66
1
 10
0.0000
 20
0.0000
 30
0.0000
 40
0.0762
 41
0.0762
 70
0
  0
VERTEX
  8
21
 10
46.1010
 20
58.3819
 30
0.0000
 42
1.0000
  0
VERTEX
  8
21
 10
46.1010
 20
58.4581
 30
0.0000
  0
SEQEND
  8
0
  0
POLYLINE
  8
21
 66
1
 10
0.0000
 20
0.0000
 30
0.0000
 40
0.0762
 41
0.0762
 70
0
  0
VERTEX
  8
21
 10
45.8089
 20
58.1660
 30
0.0000
 42
1.0000
  0
VERTEX
  8
21
 10
45.8851
 20
58.1660
 30
0.0000
  0
SEQEND
  8
0
  0
POLYLINE
  8
21
 66
1
 10
0.0000
 20
0.0000
 30
0.0000
 40
0.1524
 41
0.1524
 70
0
  0
VERTEX
  8
21
 10
50.4190
 20
55.8800
 30
0.0000
 42
0.4142
  0
VERTEX
  8
21
 10
50.6730
 20
56.1340
 30
0.0000
  0
SEQEND
  8
0
  0
POLYLINE
  8
21
 66
1
 10
0.0000
 20
0.0000
 30
0.0000
 40
0.0762
 41
0.0762
 70
0
  0
VERTEX
  8
21
 10
50.4190
 20
55.9181
 30
0.0000
 42
1.0000
  0
VERTEX
  8
21
 10
50.4190
 20
55.8419
 30
0.0000
  0
SEQEND
  8
0
  0
POLYLINE
  8
21
 66
1
 10
0.0000
 20
0.0000
 30
0.0000
 40
0.0762
 41
0.0762
 70
0
  0
VERTEX
  8
21
 10
50.7111
 20
56.1340
 30
0.0000
 42
1.0000
  0
VERTEX
  8
21
 10
50.6349
 20
56.1340
 30
0.0000
  0
SEQEND
  8
0
  0
POLYLINE
  8
21
 66
1
 10
0.0000
 20
0.0000
 30
0.0000
 40
0.1524
 41
0.1524
 70
0
  0
VERTEX
  8
21
 10
45.8470
 20
56.1340
 30
0.0000
 42
0.4142
  0
VERTEX
  8
21
 10
46.1010
 20
55.8800
 30
0.0000
  0
SEQEND
  8
0
  0
POLYLINE
  8
21
 66
1
 10
0.0000
 20
0.0000
 30
0.0000
 40
0.0762
 41
0.0762
 70
0
  0
VERTEX
  8
21
 10
45.8851
 20
56.1340
 30
0.0000
 42
1.0000
  0
VERTEX
  8
21
 10
45.8089
 20
56.1340
 30
0.0000
  0
SEQEND
  8
0
  0
POLYLINE
  8
21
 66
1
 10
0.0000
 20
0.0000
 30
0.0000
 40
0.0762
 41
0.0762
 70
0
  0
VERTEX
  8
21
 10
46.1010
 20
55.8419
 30
0.0000
 42
1.0000
  0
VERTEX
  8
21
 10
46.1010
 20
55.9181
 30
0.0000
  0
SEQEND
  8
0
  0
POLYLINE
  8
51
 66
1
 10
0.0000
 20
0.0000
 30
0.0000
 40
0.1524
 41
0.1524
 70
0
  0
VERTEX
  8
51
 10
49.0220
 20
57.1500
 30
0.0000
  0
VERTEX
  8
51
 10
48.6410
 20
57.1500
 30
0.0000
  0
SEQEND
  8
0
  0
POLYLINE
  8
51
 66
1
 10
0.0000
 20
0.0000
 30
0.0000
 40
0.0762
 41
0.0762
 70
0
  0
VERTEX
  8
51
 10
48.6410
 20
57.1881
 30
0.0000
 42
1.0000
  0
VERTEX
  8
51
 10
48.6410
 20
57.1119
 30
0.0000
  0
SEQEND
  8
0
  0
POLYLINE
  8
51
 66
1
 10
0.0000
 20
0.0000
 30
0.0000
 40
0.0762
 41
0.0762
 70
0
  0
VERTEX
  8
51
 10
49.0220
 20
57.1119
 30
0.0000
 42
1.0000
  0
VERTEX
  8
51
 10
49.0220
 20
57.1881
 30
0.0000
  0
SEQEND
  8
0
  0
POLYLINE
  8
21
 66
1
 10
0.0000
 20
0.0000
 30
0.0000
 40
0.1524
 41
0.1524
 70
0
  0
VERTEX
  8
21
 10
48.6410
 20
57.1500
 30
0.0000
  0
VERTEX
  8
21
 10
48.5140
 20
57.1500
 30
0.0000
  0
SEQEND
  8
0
  0
POLYLINE
  8
21
 66
1
 10
0.0000
 20
0.0000
 30
0.0000
 40
0.0762
 41
0.0762
 70
0
  0
VERTEX
  8
21
 10
48.5140
 20
57.1881
 30
0.0000
 42
1.0000
  0
VERTEX
  8
21
 10
48.5140
 20
57.1119
 30
0.0000
  0
SEQEND
  8
0
  0
POLYLINE
  8
21
 66
1
 10
0.0000
 20
0.0000
 30
0.0000
 40
0.0762
 41
0.0762
 70
0
  0
VERTEX
  8
21
 10
48.6410
 20
57.1119
 30
0.0000
 42
1.0000
  0
VERTEX
  8
21
 10
48.6410
 20
57.1881
 30
0.0000
  0
SEQEND
  8
0
  0
POLYLINE
  8
21
 66
1
 10
0.0000
 20
0.0000
 30
0.0000
 40
0.2540
 41
0.2540
 70
0
  0
VERTEX
  8
21
 10
48.5140
 20
57.1500
 30
0.0000
  0
VERTEX
  8
21
 10
48.5140
 20
57.9120
 30
0.0000
  0
SEQEND
  8
0
  0
POLYLINE
  8
21
 66
1
 10
0.0000
 20
0.0000
 30
0.0000
 40
0.1270
 41
0.1270
 70
0
  0
VERTEX
  8
21
 10
48.5775
 20
57.9120
 30
0.0000
 42
1.0000
  0
VERTEX
  8
21
 10
48.4505
 20
57.9120
 30
0.0000
  0
SEQEND
  8
0
  0
POLYLINE
  8
21
 66
1
 10
0.0000
 20
0.0000
 30
0.0000
 40
0.1270
 41
0.1270
 70
0
  0
VERTEX
  8
21
 10
48.4505
 20
57.1500
 30
0.0000
 42
1.0000
  0
VERTEX
  8
21
 10
48.5775
 20
57.1500
 30
0.0000
  0
SEQEND
  8
0
  0
POLYLINE
  8
21
 66
1
 10
0.0000
 20
0.0000
 30
0.0000
 40
0.2540
 41
0.2540
 70
0
  0
VERTEX
  8
21
 10
48.5140
 20
57.1500
 30
0.0000
  0
VERTEX
  8
21
 10
48.5140
 20
56.3880
 30
0.0000
  0
SEQEND
  8
0
  0
POLYLINE
  8
21
 66
1
 10
0.0000
 20
0.0000
 30
0.0000
 40
0.1270
 41
0.1270
 70
0
  0
VERTEX
  8
21
 10
48.4505
 20
56.3880
 30
0.0000
 42
1.0000
  0
VERTEX
  8
21
 10
48.5775
 20
56.3880
 30
0.0000
  0
SEQEND
  8
0
  0
POLYLINE
  8
21
 66
1
 10
0.0000
 20
0.0000
 30
0.0000
 40
0.1270
 41
0.1270
 70
0
  0
VERTEX
  8
21
 10
48.5775
 20
57.1500
 30
0.0000
 42
1.0000
  0
VERTEX
  8
21
 10
48.4505
 20
57.1500
 30
0.0000
  0
SEQEND
  8
0
  0
POLYLINE
  8
21
 66
1
 10
0.0000
 20
0.0000
 30
0.0000
 40
0.2540
 41
0.2540
 70
0
  0
VERTEX
  8
21
 10
48.0060
 20
57.9120
 30
0.0000
  0
VERTEX
  8
21
 10
48.0060
 20
57.1500
 30
0.0000
  0
SEQEND
  8
0
  0
POLYLINE
  8
21
 66
1
 10
0.0000
 20
0.0000
 30
0.0000
 40
0.1270
 41
0.1270
 70
0
  0
VERTEX
  8
21
 10
47.9425
 20
57.1500
 30
0.0000
 42
1.0000
  0
VERTEX
  8
21
 10
48.0695
 20
57.1500
 30
0.0000
  0
SEQEND
  8
0
  0
POLYLINE
  8
21
 66
1
 10
0.0000
 20
0.0000
 30
0.0000
 40
0.1270
 41
0.1270
 70
0
  0
VERTEX
  8
21
 10
48.0695
 20
57.9120
 30
0.0000
 42
1.0000
  0
VERTEX
  8
21
 10
47.9425
 20
57.9120
 30
0.0000
  0
SEQEND
  8
0
  0
POLYLINE
  8
21
 66
1
 10
0.0000
 20
0.0000
 30
0.0000
 40
0.2540
 41
0.2540
 70
0
  0
VERTEX
  8
21
 10
48.0060
 20
57.1500
 30
0.0000
  0
VERTEX
  8
21
 10
48.0060
 20
56.3880
 30
0.0000
  0
SEQEND
  8
0
  0
POLYLINE
  8
21
 66
1
 10
0.0000
 20
0.0000
 30
0.0000
 40
0.1270
 41
0.1270
 70
0
  0
VERTEX
  8
21
 10
47.9425
 20
56.3880
 30
0.0000
 42
1.0000
  0
VERTEX
  8
21
 10
48.0695
 20
56.3880
 30
0.0000
  0
SEQEND
  8
0
  0
POLYLINE
  8
21
 66
1
 10
0.0000
 20
0.0000
 30
0.0000
 40
0.1270
 41
0.1270
 70
0
  0
VERTEX
  8
21
 10
48.0695
 20
57.1500
 30
0.0000
 42
1.0000
  0
VERTEX
  8
21
 10
47.9425
 20
57.1500
 30
0.0000
  0
SEQEND
  8
0
  0
POLYLINE
  8
21
 66
1
 10
0.0000
 20
0.0000
 30
0.0000
 40
0.1524
 41
0.1524
 70
0
  0
VERTEX
  8
21
 10
48.0060
 20
57.1500
 30
0.0000
  0
VERTEX
  8
21
 10
47.8790
 20
57.1500
 30
0.0000
  0
SEQEND
  8
0
  0
POLYLINE
  8
21
 66
1
 10
0.0000
 20
0.0000
 30
0.0000
 40
0.0762
 41
0.0762
 70
0
  0
VERTEX
  8
21
 10
47.8790
 20
57.1881
 30
0.0000
 42
1.0000
  0
VERTEX
  8
21
 10
47.8790
 20
57.1119
 30
0.0000
  0
SEQEND
  8
0
  0
POLYLINE
  8
21
 66
1
 10
0.0000
 20
0.0000
 30
0.0000
 40
0.0762
 41
0.0762
 70
0
  0
VERTEX
  8
21
 10
48.0060
 20
57.1119
 30
0.0000
 42
1.0000
  0
VERTEX
  8
21
 10
48.0060
 20
57.1881
 30
0.0000
  0
SEQEND
  8
0
  0
POLYLINE
  8
51
 66
1
 10
0.0000
 20
0.0000
 30
0.0000
 40
0.1524
 41
0.1524
 70
0
  0
VERTEX
  8
51
 10
47.8790
 20
57.1500
 30
0.0000
  0
VERTEX
  8
51
 10
47.4980
 20
57.1500
 30
0.0000
  0
SEQEND
  8
0
  0
POLYLINE
  8
51
 66
1
 10
0.0000
 20
0.0000
 30
0.0000
 40
0.0762
 41
0.0762
 70
0
  0
VERTEX
  8
51
 10
47.4980
 20
57.1881
 30
0.0000
 42
1.0000
  0
VERTEX
  8
51
 10
47.4980
 20
57.1119
 30
0.0000
  0
SEQEND
  8
0
  0
POLYLINE
  8
51
 66
1
 10
0.0000
 20
0.0000
 30
0.0000
 40
0.0762
 41
0.0762
 70
0
  0
VERTEX
  8
51
 10
47.8790
 20
57.1119
 30
0.0000
 42
1.0000
  0
VERTEX
  8
51
 10
47.8790
 20
57.1881
 30
0.0000
  0
SEQEND
  8
0
  0
POLYLINE
  8
25
 66
1
 10
0.0000
 20
0.0000
 30
0.0000
 40
0.1270
 41
0.1270
 70
0
  0
VERTEX
  8
25
 10
46.8002
 20
59.6908
 30
0.0000
  0
VERTEX
  8
25
 10
46.6095
 20
59.8815
 30
0.0000
  0
SEQEND
  8
0
  0
POLYLINE
  8
25
 66
1
 10
0.0000
 20
0.0000
 30
0.0000
 40
0.0635
 41
0.0635
 70
0
  0
VERTEX
  8
25
 10
46.6319
 20
59.9039
 30
0.0000
 42
1.0000
  0
VERTEX
  8
25
 10
46.5870
 20
59.8590
 30
0.0000
  0
SEQEND
  8
0
  0
POLYLINE
  8
25
 66
1
 10
0.0000
 20
0.0000
 30
0.0000
 40
0.0635
 41
0.0635
 70
0
  0
VERTEX
  8
25
 10
46.7777
 20
59.6684
 30
0.0000
 42
1.0000
  0
VERTEX
  8
25
 10
46.8226
 20
59.7133
 30
0.0000
  0
SEQEND
  8
0
  0
POLYLINE
  8
25
 66
1
 10
0.0000
 20
0.0000
 30
0.0000
 40
0.1270
 41
0.1270
 70
0
  0
VERTEX
  8
25
 10
46.6095
 20
59.8815
 30
0.0000
  0
VERTEX
  8
25
 10
46.2282
 20
59.8815
 30
0.0000
  0
SEQEND
  8
0
  0
POLYLINE
  8
25
 66
1
 10
0.0000
 20
0.0000
 30
0.0000
 40
0.0635
 41
0.0635
 70
0
  0
VERTEX
  8
25
 10
46.2282
 20
59.9132
 30
0.0000
 42
1.0000
  0
VERTEX
  8
25
 10
46.2282
 20
59.8497
 30
0.0000
  0
SEQEND
  8
0
  0
POLYLINE
  8
25
 66
1
 10
0.0000
 20
0.0000
 30
0.0000
 40
0.0635
 41
0.0635
 70
0
  0
VERTEX
  8
25
 10
46.6095
 20
59.8497
 30
0.0000
 42
1.0000
  0
VERTEX
  8
25
 10
46.6095
 20
59.9132
 30
0.0000
  0
SEQEND
  8
0
  0
POLYLINE
  8
25
 66
1
 10
0.0000
 20
0.0000
 30
0.0000
 40
0.1270
 41
0.1270
 70
0
  0
VERTEX
  8
25
 10
46.2282
 20
59.8815
 30
0.0000
  0
VERTEX
  8
25
 10
46.0375
 20
59.6908
 30
0.0000
  0
SEQEND
  8
0
  0
POLYLINE
  8
25
 66
1
 10
0.0000
 20
0.0000
 30
0.0000
 40
0.0635
 41
0.0635
 70
0
  0
VERTEX
  8
25
 10
46.0150
 20
59.7133
 30
0.0000
 42
1.0000
  0
VERTEX
  8
25
 10
46.0600
 20
59.6684
 30
0.0000
  0
SEQEND
  8
0
  0
POLYLINE
  8
25
 66
1
 10
0.0000
 20
0.0000
 30
0.0000
 40
0.0635
 41
0.0635
 70
0
  0
VERTEX
  8
25
 10
46.2506
 20
59.8590
 30
0.0000
 42
1.0000
  0
VERTEX
  8
25
 10
46.2057
 20
59.9039
 30
0.0000
  0
SEQEND
  8
0
  0
POLYLINE
  8
25
 66
1
 10
0.0000
 20
0.0000
 30
0.0000
 40
0.1270
 41
0.1270
 70
0
  0
VERTEX
  8
25
 10
46.0375
 20
59.6908
 30
0.0000
  0
VERTEX
  8
25
 10
46.0375
 20
58.9282
 30
0.0000
  0
SEQEND
  8
0
  0
POLYLINE
  8
25
 66
1
 10
0.0000
 20
0.0000
 30
0.0000
 40
0.0635
 41
0.0635
 70
0
  0
VERTEX
  8
25
 10
46.0057
 20
58.9282
 30
0.0000
 42
1.0000
  0
VERTEX
  8
25
 10
46.0693
 20
58.9282
 30
0.0000
  0
SEQEND
  8
0
  0
POLYLINE
  8
25
 66
1
 10
0.0000
 20
0.0000
 30
0.0000
 40
0.0635
 41
0.0635
 70
0
  0
VERTEX
  8
25
 10
46.0693
 20
59.6908
 30
0.0000
 42
1.0000
  0
VERTEX
  8
25
 10
46.0057
 20
59.6908
 30
0.0000
  0
SEQEND
  8
0
  0
POLYLINE
  8
25
 66
1
 10
0.0000
 20
0.0000
 30
0.0000
 40
0.1270
 41
0.1270
 70
0
  0
VERTEX
  8
25
 10
46.0375
 20
58.9282
 30
0.0000
  0
VERTEX
  8
25
 10
46.2282
 20
58.7375
 30
0.0000
  0
SEQEND
  8
0
  0
POLYLINE
  8
25
 66
1
 10
0.0000
 20
0.0000
 30
0.0000
 40
0.0635
 41
0.0635
 70
0
  0
VERTEX
  8
25
 10
46.2057
 20
58.7150
 30
0.0000
 42
1.0000
  0
VERTEX
  8
25
 10
46.2506
 20
58.7600
 30
0.0000
  0
SEQEND
  8
0
  0
POLYLINE
  8
25
 66
1
 10
0.0000
 20
0.0000
 30
0.0000
 40
0.0635
 41
0.0635
 70
0
  0
VERTEX
  8
25
 10
46.0600
 20
58.9506
 30
0.0000
 42
1.0000
  0
VERTEX
  8
25
 10
46.0150
 20
58.9057
 30
0.0000
  0
SEQEND
  8
0
  0
POLYLINE
  8
25
 66
1
 10
0.0000
 20
0.0000
 30
0.0000
 40
0.1270
 41
0.1270
 70
0
  0
VERTEX
  8
25
 10
46.2282
 20
58.7375
 30
0.0000
  0
VERTEX
  8
25
 10
46.6095
 20
58.7375
 30
0.0000
  0
SEQEND
  8
0
  0
POLYLINE
  8
25
 66
1
 10
0.0000
 20
0.0000
 30
0.0000
 40
0.0635
 41
0.0635
 70
0
  0
VERTEX
  8
25
 10
46.6095
 20
58.7058
 30
0.0000
 42
1.0000
  0
VERTEX
  8
25
 10
46.6095
 20
58.7693
 30
0.0000
  0
SEQEND
  8
0
  0
POLYLINE
  8
25
 66
1
 10
0.0000
 20
0.0000
 30
0.0000
 40
0.0635
 41
0.0635
 70
0
  0
VERTEX
  8
25
 10
46.2282
 20
58.7693
 30
0.0000
 42
1.0000
  0
VERTEX
  8
25
 10
46.2282
 20
58.7058
 30
0.0000
  0
SEQEND
  8
0
  0
POLYLINE
  8
25
 66
1
 10
0.0000
 20
0.0000
 30
0.0000
 40
0.1270
 41
0.1270
 70
0
  0
VERTEX
  8
25
 10
46.6095
 20
58.7375
 30
0.0000
  0
VERTEX
  8
25
 10
46.8002
 20
58.9282
 30
0.0000
  0
SEQEND
  8
0
  0
POLYLINE
  8
25
 66
1
 10
0.0000
 20
0.0000
 30
0.0000
 40
0.0635
 41
0.0635
 70
0
  0
VERTEX
  8
25
 10
46.8226
 20
58.9057
 30
0.0000
 42
1.0000
  0
VERTEX
  8
25
 10
46.7777
 20
58.9506
 30
0.0000
  0
SEQEND
  8
0
  0
POLYLINE
  8
25
 66
1
 10
0.0000
 20
0.0000
 30
0.0000
 40
0.0635
 41
0.0635
 70
0
  0
VERTEX
  8
25
 10
46.5870
 20
58.7600
 30
0.0000
 42
1.0000
  0
VERTEX
  8
25
 10
46.6319
 20
58.7150
 30
0.0000
  0
SEQEND
  8
0
  0
POLYLINE
  8
25
 66
1
 10
0.0000
 20
0.0000
 30
0.0000
 40
0.1270
 41
0.1270
 70
0
  0
VERTEX
  8
25
 10
47.7789
 20
58.7375
 30
0.0000
  0
VERTEX
  8
25
 10
47.7789
 20
59.8815
 30
0.0000
  0
SEQEND
  8
0
  0
POLYLINE
  8
25
 66
1
 10
0.0000
 20
0.0000
 30
0.0000
 40
0.0635
 41
0.0635
 70
0
  0
VERTEX
  8
25
 10
47.8106
 20
59.8815
 30
0.0000
 42
1.0000
  0
VERTEX
  8
25
 10
47.7471
 20
59.8815
 30
0.0000
  0
SEQEND
  8
0
  0
POLYLINE
  8
25
 66
1
 10
0.0000
 20
0.0000
 30
0.0000
 40
0.0635
 41
0.0635
 70
0
  0
VERTEX
  8
25
 10
47.7471
 20
58.7375
 30
0.0000
 42
1.0000
  0
VERTEX
  8
25
 10
47.8106
 20
58.7375
 30
0.0000
  0
SEQEND
  8
0
  0
POLYLINE
  8
25
 66
1
 10
0.0000
 20
0.0000
 30
0.0000
 40
0.1270
 41
0.1270
 70
0
  0
VERTEX
  8
25
 10
47.7789
 20
59.8815
 30
0.0000
  0
VERTEX
  8
25
 10
47.2069
 20
59.3095
 30
0.0000
  0
SEQEND
  8
0
  0
POLYLINE
  8
25
 66
1
 10
0.0000
 20
0.0000
 30
0.0000
 40
0.0635
 41
0.0635
 70
0
  0
VERTEX
  8
25
 10
47.1844
 20
59.3319
 30
0.0000
 42
1.0000
  0
VERTEX
  8
25
 10
47.2293
 20
59.2870
 30
0.0000
  0
SEQEND
  8
0
  0
POLYLINE
  8
25
 66
1
 10
0.0000
 20
0.0000
 30
0.0000
 40
0.0635
 41
0.0635
 70
0
  0
VERTEX
  8
25
 10
47.8013
 20
59.8590
 30
0.0000
 42
1.0000
  0
VERTEX
  8
25
 10
47.7564
 20
59.9039
 30
0.0000
  0
SEQEND
  8
0
  0
POLYLINE
  8
25
 66
1
 10
0.0000
 20
0.0000
 30
0.0000
 40
0.1270
 41
0.1270
 70
0
  0
VERTEX
  8
25
 10
47.2069
 20
59.3095
 30
0.0000
  0
VERTEX
  8
25
 10
47.9695
 20
59.3095
 30
0.0000
  0
SEQEND
  8
0
  0
POLYLINE
  8
25
 66
1
 10
0.0000
 20
0.0000
 30
0.0000
 40
0.0635
 41
0.0635
 70
0
  0
VERTEX
  8
25
 10
47.9695
 20
59.2777
 30
0.0000
 42
1.0000
  0
VERTEX
  8
25
 10
47.9695
 20
59.3412
 30
0.0000
  0
SEQEND
  8
0
  0
POLYLINE
  8
25
 66
1
 10
0.0000
 20
0.0000
 30
0.0000
 40
0.0635
 41
0.0635
 70
0
  0
VERTEX
  8
25
 10
47.2069
 20
59.3412
 30
0.0000
 42
1.0000
  0
VERTEX
  8
25
 10
47.2069
 20
59.2777
 30
0.0000
  0
SEQEND
  8
0
  0
POLYLINE
  8
27
 66
1
 10
0.0000
 20
0.0000
 30
0.0000
 40
0.1270
 41
0.1270
 70
0
  0
VERTEX
  8
27
 10
46.0375
 20
54.6102
 30
0.0000
  0
VERTEX
  8
27
 10
46.0375
 20
55.3728
 30
0.0000
  0
SEQEND
  8
0
  0
POLYLINE
  8
27
 66
1
 10
0.0000
 20
0.0000
 30
0.0000
 40
0.0635
 41
0.0635
 70
0
  0
VERTEX
  8
27
 10
46.0693
 20
55.3728
 30
0.0000
 42
1.0000
  0
VERTEX
  8
27
 10
46.0057
 20
55.3728
 30
0.0000
  0
SEQEND
  8
0
  0
POLYLINE
  8
27
 66
1
 10
0.0000
 20
0.0000
 30
0.0000
 40
0.0635
 41
0.0635
 70
0
  0
VERTEX
  8
27
 10
46.0057
 20
54.6102
 30
0.0000
 42
1.0000
  0
VERTEX
  8
27
 10
46.0693
 20
54.6102
 30
0.0000
  0
SEQEND
  8
0
  0
POLYLINE
  8
27
 66
1
 10
0.0000
 20
0.0000
 30
0.0000
 40
0.1270
 41
0.1270
 70
0
  0
VERTEX
  8
27
 10
46.0375
 20
55.3728
 30
0.0000
  0
VERTEX
  8
27
 10
46.2282
 20
55.5635
 30
0.0000
  0
SEQEND
  8
0
  0
POLYLINE
  8
27
 66
1
 10
0.0000
 20
0.0000
 30
0.0000
 40
0.0635
 41
0.0635
 70
0
  0
VERTEX
  8
27
 10
46.2506
 20
55.5410
 30
0.0000
 42
1.0000
  0
VERTEX
  8
27
 10
46.2057
 20
55.5859
 30
0.0000
  0
SEQEND
  8
0
  0
POLYLINE
  8
27
 66
1
 10
0.0000
 20
0.0000
 30
0.0000
 40
0.0635
 41
0.0635
 70
0
  0
VERTEX
  8
27
 10
46.0150
 20
55.3953
 30
0.0000
 42
1.0000
  0
VERTEX
  8
27
 10
46.0600
 20
55.3504
 30
0.0000
  0
SEQEND
  8
0
  0
POLYLINE
  8
27
 66
1
 10
0.0000
 20
0.0000
 30
0.0000
 40
0.1270
 41
0.1270
 70
0
  0
VERTEX
  8
27
 10
46.2282
 20
55.5635
 30
0.0000
  0
VERTEX
  8
27
 10
46.6095
 20
55.5635
 30
0.0000
  0
SEQEND
  8
0
  0
POLYLINE
  8
27
 66
1
 10
0.0000
 20
0.0000
 30
0.0000
 40
0.0635
 41
0.0635
 70
0
  0
VERTEX
  8
27
 10
46.6095
 20
55.5317
 30
0.0000
 42
1.0000
  0
VERTEX
  8
27
 10
46.6095
 20
55.5952
 30
0.0000
  0
SEQEND
  8
0
  0
POLYLINE
  8
27
 66
1
 10
0.0000
 20
0.0000
 30
0.0000
 40
0.0635
 41
0.0635
 70
0
  0
VERTEX
  8
27
 10
46.2282
 20
55.5952
 30
0.0000
 42
1.0000
  0
VERTEX
  8
27
 10
46.2282
 20
55.5317
 30
0.0000
  0
SEQEND
  8
0
  0
POLYLINE
  8
27
 66
1
 10
0.0000
 20
0.0000
 30
0.0000
 40
0.1270
 41
0.1270
 70
0
  0
VERTEX
  8
27
 10
46.6095
 20
55.5635
 30
0.0000
  0
VERTEX
  8
27
 10
46.8002
 20
55.3728
 30
0.0000
  0
SEQEND
  8
0
  0
POLYLINE
  8
27
 66
1
 10
0.0000
 20
0.0000
 30
0.0000
 40
0.0635
 41
0.0635
 70
0
  0
VERTEX
  8
27
 10
46.7777
 20
55.3504
 30
0.0000
 42
1.0000
  0
VERTEX
  8
27
 10
46.8226
 20
55.3953
 30
0.0000
  0
SEQEND
  8
0
  0
POLYLINE
  8
27
 66
1
 10
0.0000
 20
0.0000
 30
0.0000
 40
0.0635
 41
0.0635
 70
0
  0
VERTEX
  8
27
 10
46.6319
 20
55.5859
 30
0.0000
 42
1.0000
  0
VERTEX
  8
27
 10
46.5870
 20
55.5410
 30
0.0000
  0
SEQEND
  8
0
  0
POLYLINE
  8
27
 66
1
 10
0.0000
 20
0.0000
 30
0.0000
 40
0.1270
 41
0.1270
 70
0
  0
VERTEX
  8
27
 10
46.8002
 20
55.3728
 30
0.0000
  0
VERTEX
  8
27
 10
46.8002
 20
54.6102
 30
0.0000
  0
SEQEND
  8
0
  0
POLYLINE
  8
27
 66
1
 10
0.0000
 20
0.0000
 30
0.0000
 40
0.0635
 41
0.0635
 70
0
  0
VERTEX
  8
27
 10
46.7684
 20
54.6102
 30
0.0000
 42
1.0000
  0
VERTEX
  8
27
 10
46.8319
 20
54.6102
 30
0.0000
  0
SEQEND
  8
0
  0
POLYLINE
  8
27
 66
1
 10
0.0000
 20
0.0000
 30
0.0000
 40
0.0635
 41
0.0635
 70
0
  0
VERTEX
  8
27
 10
46.8319
 20
55.3728
 30
0.0000
 42
1.0000
  0
VERTEX
  8
27
 10
46.7684
 20
55.3728
 30
0.0000
  0
SEQEND
  8
0
  0
POLYLINE
  8
27
 66
1
 10
0.0000
 20
0.0000
 30
0.0000
 40
0.1270
 41
0.1270
 70
0
  0
VERTEX
  8
27
 10
46.8002
 20
54.6102
 30
0.0000
  0
VERTEX
  8
27
 10
46.6095
 20
54.4195
 30
0.0000
  0
SEQEND
  8
0
  0
POLYLINE
  8
27
 66
1
 10
0.0000
 20
0.0000
 30
0.0000
 40
0.0635
 41
0.0635
 70
0
  0
VERTEX
  8
27
 10
46.5870
 20
54.4420
 30
0.0000
 42
1.0000
  0
VERTEX
  8
27
 10
46.6319
 20
54.3970
 30
0.0000
  0
SEQEND
  8
0
  0
POLYLINE
  8
27
 66
1
 10
0.0000
 20
0.0000
 30
0.0000
 40
0.0635
 41
0.0635
 70
0
  0
VERTEX
  8
27
 10
46.8226
 20
54.5877
 30
0.0000
 42
1.0000
  0
VERTEX
  8
27
 10
46.7777
 20
54.6326
 30
0.0000
  0
SEQEND
  8
0
  0
POLYLINE
  8
27
 66
1
 10
0.0000
 20
0.0000
 30
0.0000
 40
0.1270
 41
0.1270
 70
0
  0
VERTEX
  8
27
 10
46.6095
 20
54.4195
 30
0.0000
  0
VERTEX
  8
27
 10
46.2282
 20
54.4195
 30
0.0000
  0
SEQEND
  8
0
  0
POLYLINE
  8
27
 66
1
 10
0.0000
 20
0.0000
 30
0.0000
 40
0.0635
 41
0.0635
 70
0
  0
VERTEX
  8
27
 10
46.2282
 20
54.4513
 30
0.0000
 42
1.0000
  0
VERTEX
  8
27
 10
46.2282
 20
54.3877
 30
0.0000
  0
SEQEND
  8
0
  0
POLYLINE
  8
27
 66
1
 10
0.0000
 20
0.0000
 30
0.0000
 40
0.0635
 41
0.0635
 70
0
  0
VERTEX
  8
27
 10
46.6095
 20
54.3877
 30
0.0000
 42
1.0000
  0
VERTEX
  8
27
 10
46.6095
 20
54.4513
 30
0.0000
  0
SEQEND
  8
0
  0
POLYLINE
  8
27
 66
1
 10
0.0000
 20
0.0000
 30
0.0000
 40
0.1270
 41
0.1270
 70
0
  0
VERTEX
  8
27
 10
46.2282
 20
54.4195
 30
0.0000
  0
VERTEX
  8
27
 10
46.0375
 20
54.6102
 30
0.0000
  0
SEQEND
  8
0
  0
POLYLINE
  8
27
 66
1
 10
0.0000
 20
0.0000
 30
0.0000
 40
0.0635
 41
0.0635
 70
0
  0
VERTEX
  8
27
 10
46.0600
 20
54.6326
 30
0.0000
 42
1.0000
  0
VERTEX
  8
27
 10
46.0150
 20
54.5877
 30
0.0000
  0
SEQEND
  8
0
  0
POLYLINE
  8
27
 66
1
 10
0.0000
 20
0.0000
 30
0.0000
 40
0.0635
 41
0.0635
 70
0
  0
VERTEX
  8
27
 10
46.2057
 20
54.3970
 30
0.0000
 42
1.0000
  0
VERTEX
  8
27
 10
46.2506
 20
54.4420
 30
0.0000
  0
SEQEND
  8
0
  0
POLYLINE
  8
27
 66
1
 10
0.0000
 20
0.0000
 30
0.0000
 40
0.1270
 41
0.1270
 70
0
  0
VERTEX
  8
27
 10
46.0375
 20
54.6102
 30
0.0000
  0
VERTEX
  8
27
 10
46.8002
 20
55.3728
 30
0.0000
  0
SEQEND
  8
0
  0
POLYLINE
  8
27
 66
1
 10
0.0000
 20
0.0000
 30
0.0000
 40
0.0635
 41
0.0635
 70
0
  0
VERTEX
  8
27
 10
46.8226
 20
55.3504
 30
0.0000
 42
1.0000
  0
VERTEX
  8
27
 10
46.7777
 20
55.3953
 30
0.0000
  0
SEQEND
  8
0
  0
POLYLINE
  8
27
 66
1
 10
0.0000
 20
0.0000
 30
0.0000
 40
0.0635
 41
0.0635
 70
0
  0
VERTEX
  8
27
 10
46.0150
 20
54.6326
 30
0.0000
 42
1.0000
  0
VERTEX
  8
27
 10
46.0600
 20
54.5877
 30
0.0000
  0
SEQEND
  8
0
  0
POLYLINE
  8
27
 66
1
 10
0.0000
 20
0.0000
 30
0.0000
 40
0.1270
 41
0.1270
 70
0
  0
VERTEX
  8
27
 10
47.2069
 20
54.4195
 30
0.0000
  0
VERTEX
  8
27
 10
47.2069
 20
54.6102
 30
0.0000
  0
SEQEND
  8
0
  0
POLYLINE
  8
27
 66
1
 10
0.0000
 20
0.0000
 30
0.0000
 40
0.0635
 41
0.0635
 70
0
  0
VERTEX
  8
27
 10
47.2386
 20
54.6102
 30
0.0000
 42
1.0000
  0
VERTEX
  8
27
 10
47.1751
 20
54.6102
 30
0.0000
  0
SEQEND
  8
0
  0
POLYLINE
  8
27
 66
1
 10
0.0000
 20
0.0000
 30
0.0000
 40
0.0635
 41
0.0635
 70
0
  0
VERTEX
  8
27
 10
47.1751
 20
54.4195
 30
0.0000
 42
1.0000
  0
VERTEX
  8
27
 10
47.2386
 20
54.4195
 30
0.0000
  0
SEQEND
  8
0
  0
POLYLINE
  8
27
 66
1
 10
0.0000
 20
0.0000
 30
0.0000
 40
0.1270
 41
0.1270
 70
0
  0
VERTEX
  8
27
 10
47.2069
 20
54.6102
 30
0.0000
  0
VERTEX
  8
27
 10
47.3976
 20
54.6102
 30
0.0000
  0
SEQEND
  8
0
  0
POLYLINE
  8
27
 66
1
 10
0.0000
 20
0.0000
 30
0.0000
 40
0.0635
 41
0.0635
 70
0
  0
VERTEX
  8
27
 10
47.3976
 20
54.5784
 30
0.0000
 42
1.0000
  0
VERTEX
  8
27
 10
47.3976
 20
54.6419
 30
0.0000
  0
SEQEND
  8
0
  0
POLYLINE
  8
27
 66
1
 10
0.0000
 20
0.0000
 30
0.0000
 40
0.0635
 41
0.0635
 70
0
  0
VERTEX
  8
27
 10
47.2069
 20
54.6419
 30
0.0000
 42
1.0000
  0
VERTEX
  8
27
 10
47.2069
 20
54.5784
 30
0.0000
  0
SEQEND
  8
0
  0
POLYLINE
  8
27
 66
1
 10
0.0000
 20
0.0000
 30
0.0000
 40
0.1270
 41
0.1270
 70
0
  0
VERTEX
  8
27
 10
47.3976
 20
54.6102
 30
0.0000
  0
VERTEX
  8
27
 10
47.3976
 20
54.4195
 30
0.0000
  0
SEQEND
  8
0
  0
POLYLINE
  8
27
 66
1
 10
0.0000
 20
0.0000
 30
0.0000
 40
0.0635
 41
0.0635
 70
0
  0
VERTEX
  8
27
 10
47.3658
 20
54.4195
 30
0.0000
 42
1.0000
  0
VERTEX
  8
27
 10
47.4293
 20
54.4195
 30
0.0000
  0
SEQEND
  8
0
  0
POLYLINE
  8
27
 66
1
 10
0.0000
 20
0.0000
 30
0.0000
 40
0.0635
 41
0.0635
 70
0
  0
VERTEX
  8
27
 10
47.4293
 20
54.6102
 30
0.0000
 42
1.0000
  0
VERTEX
  8
27
 10
47.3658
 20
54.6102
 30
0.0000
  0
SEQEND
  8
0
  0
POLYLINE
  8
27
 66
1
 10
0.0000
 20
0.0000
 30
0.0000
 40
0.1270
 41
0.1270
 70
0
  0
VERTEX
  8
27
 10
47.3976
 20
54.4195
 30
0.0000
  0
VERTEX
  8
27
 10
47.2069
 20
54.4195
 30
0.0000
  0
SEQEND
  8
0
  0
POLYLINE
  8
27
 66
1
 10
0.0000
 20
0.0000
 30
0.0000
 40
0.0635
 41
0.0635
 70
0
  0
VERTEX
  8
27
 10
47.2069
 20
54.4513
 30
0.0000
 42
1.0000
  0
VERTEX
  8
27
 10
47.2069
 20
54.3877
 30
0.0000
  0
SEQEND
  8
0
  0
POLYLINE
  8
27
 66
1
 10
0.0000
 20
0.0000
 30
0.0000
 40
0.0635
 41
0.0635
 70
0
  0
VERTEX
  8
27
 10
47.3976
 20
54.3877
 30
0.0000
 42
1.0000
  0
VERTEX
  8
27
 10
47.3976
 20
54.4513
 30
0.0000
  0
SEQEND
  8
0
  0
POLYLINE
  8
27
 66
1
 10
0.0000
 20
0.0000
 30
0.0000
 40
0.1270
 41
0.1270
 70
0
  0
VERTEX
  8
27
 10
47.7916
 20
55.1822
 30
0.0000
  0
VERTEX
  8
27
 10
48.1729
 20
55.5635
 30
0.0000
  0
SEQEND
  8
0
  0
POLYLINE
  8
27
 66
1
 10
0.0000
 20
0.0000
 30
0.0000
 40
0.0635
 41
0.0635
 70
0
  0
VERTEX
  8
27
 10
48.1954
 20
55.5410
 30
0.0000
 42
1.0000
  0
VERTEX
  8
27
 10
48.1505
 20
55.5859
 30
0.0000
  0
SEQEND
  8
0
  0
POLYLINE
  8
27
 66
1
 10
0.0000
 20
0.0000
 30
0.0000
 40
0.0635
 41
0.0635
 70
0
  0
VERTEX
  8
27
 10
47.7691
 20
55.2046
 30
0.0000
 42
1.0000
  0
VERTEX
  8
27
 10
47.8140
 20
55.1597
 30
0.0000
  0
SEQEND
  8
0
  0
POLYLINE
  8
27
 66
1
 10
0.0000
 20
0.0000
 30
0.0000
 40
0.1270
 41
0.1270
 70
0
  0
VERTEX
  8
27
 10
48.1729
 20
55.5635
 30
0.0000
  0
VERTEX
  8
27
 10
48.1729
 20
54.4195
 30
0.0000
  0
SEQEND
  8
0
  0
POLYLINE
  8
27
 66
1
 10
0.0000
 20
0.0000
 30
0.0000
 40
0.0635
 41
0.0635
 70
0
  0
VERTEX
  8
27
 10
48.1412
 20
54.4195
 30
0.0000
 42
1.0000
  0
VERTEX
  8
27
 10
48.2047
 20
54.4195
 30
0.0000
  0
SEQEND
  8
0
  0
POLYLINE
  8
27
 66
1
 10
0.0000
 20
0.0000
 30
0.0000
 40
0.0635
 41
0.0635
 70
0
  0
VERTEX
  8
27
 10
48.2047
 20
55.5635
 30
0.0000
 42
1.0000
  0
VERTEX
  8
27
 10
48.1412
 20
55.5635
 30
0.0000
  0
SEQEND
  8
0
  0
POLYLINE
  8
27
 66
1
 10
0.0000
 20
0.0000
 30
0.0000
 40
0.1270
 41
0.1270
 70
0
  0
VERTEX
  8
27
 10
47.7916
 20
54.4195
 30
0.0000
  0
VERTEX
  8
27
 10
48.5542
 20
54.4195
 30
0.0000
  0
SEQEND
  8
0
  0
POLYLINE
  8
27
 66
1
 10
0.0000
 20
0.0000
 30
0.0000
 40
0.0635
 41
0.0635
 70
0
  0
VERTEX
  8
27
 10
48.5542
 20
54.3877
 30
0.0000
 42
1.0000
  0
VERTEX
  8
27
 10
48.5542
 20
54.4513
 30
0.0000
  0
SEQEND
  8
0
  0
POLYLINE
  8
27
 66
1
 10
0.0000
 20
0.0000
 30
0.0000
 40
0.0635
 41
0.0635
 70
0
  0
VERTEX
  8
27
 10
47.7916
 20
54.4513
 30
0.0000
 42
1.0000
  0
VERTEX
  8
27
 10
47.7916
 20
54.3877
 30
0.0000
  0
SEQEND
  8
0
  0
POLYLINE
  8
27
 66
1
 10
0.0000
 20
0.0000
 30
0.0000
 40
0.1270
 41
0.1270
 70
0
  0
VERTEX
  8
27
 10
50.3210
 20
54.9915
 30
0.0000
  0
VERTEX
  8
27
 10
50.3210
 20
54.6102
 30
0.0000
  0
SEQEND
  8
0
  0
POLYLINE
  8
27
 66
1
 10
0.0000
 20
0.0000
 30
0.0000
 40
0.0635
 41
0.0635
 70
0
  0
VERTEX
  8
27
 10
50.2893
 20
54.6102
 30
0.0000
 42
1.0000
  0
VERTEX
  8
27
 10
50.3528
 20
54.6102
 30
0.0000
  0
SEQEND
  8
0
  0
POLYLINE
  8
27
 66
1
 10
0.0000
 20
0.0000
 30
0.0000
 40
0.0635
 41
0.0635
 70
0
  0
VERTEX
  8
27
 10
50.3528
 20
54.9915
 30
0.0000
 42
1.0000
  0
VERTEX
  8
27
 10
50.2893
 20
54.9915
 30
0.0000
  0
SEQEND
  8
0
  0
POLYLINE
  8
27
 66
1
 10
0.0000
 20
0.0000
 30
0.0000
 40
0.1270
 41
0.1270
 70
0
  0
VERTEX
  8
27
 10
50.3210
 20
54.6102
 30
0.0000
  0
VERTEX
  8
27
 10
50.5117
 20
54.4195
 30
0.0000
  0
SEQEND
  8
0
  0
POLYLINE
  8
27
 66
1
 10
0.0000
 20
0.0000
 30
0.0000
 40
0.0635
 41
0.0635
 70
0
  0
VERTEX
  8
27
 10
50.4893
 20
54.3970
 30
0.0000
 42
1.0000
  0
VERTEX
  8
27
 10
50.5342
 20
54.4420
 30
0.0000
  0
SEQEND
  8
0
  0
POLYLINE
  8
27
 66
1
 10
0.0000
 20
0.0000
 30
0.0000
 40
0.0635
 41
0.0635
 70
0
  0
VERTEX
  8
27
 10
50.3435
 20
54.6326
 30
0.0000
 42
1.0000
  0
VERTEX
  8
27
 10
50.2986
 20
54.5877
 30
0.0000
  0
SEQEND
  8
0
  0
POLYLINE
  8
27
 66
1
 10
0.0000
 20
0.0000
 30
0.0000
 40
0.1270
 41
0.1270
 70
0
  0
VERTEX
  8
27
 10
50.5117
 20
54.4195
 30
0.0000
  0
VERTEX
  8
27
 10
50.7024
 20
54.4195
 30
0.0000
  0
SEQEND
  8
0
  0
POLYLINE
  8
27
 66
1
 10
0.0000
 20
0.0000
 30
0.0000
 40
0.0635
 41
0.0635
 70
0
  0
VERTEX
  8
27
 10
50.7024
 20
54.3877
 30
0.0000
 42
1.0000
  0
VERTEX
  8
27
 10
50.7024
 20
54.4513
 30
0.0000
  0
SEQEND
  8
0
  0
POLYLINE
  8
27
 66
1
 10
0.0000
 20
0.0000
 30
0.0000
 40
0.0635
 41
0.0635
 70
0
  0
VERTEX
  8
27
 10
50.5117
 20
54.4513
 30
0.0000
 42
1.0000
  0
VERTEX
  8
27
 10
50.5117
 20
54.3877
 30
0.0000
  0
SEQEND
  8
0
  0
POLYLINE
  8
27
 66
1
 10
0.0000
 20
0.0000
 30
0.0000
 40
0.1270
 41
0.1270
 70
0
  0
VERTEX
  8
27
 10
50.7024
 20
54.4195
 30
0.0000
  0
VERTEX
  8
27
 10
50.8930
 20
54.6102
 30
0.0000
  0
SEQEND
  8
0
  0
POLYLINE
  8
27
 66
1
 10
0.0000
 20
0.0000
 30
0.0000
 40
0.0635
 41
0.0635
 70
0
  0
VERTEX
  8
27
 10
50.9155
 20
54.5877
 30
0.0000
 42
1.0000
  0
VERTEX
  8
27
 10
50.8706
 20
54.6326
 30
0.0000
  0
SEQEND
  8
0
  0
POLYLINE
  8
27
 66
1
 10
0.0000
 20
0.0000
 30
0.0000
 40
0.0635
 41
0.0635
 70
0
  0
VERTEX
  8
27
 10
50.6799
 20
54.4420
 30
0.0000
 42
1.0000
  0
VERTEX
  8
27
 10
50.7248
 20
54.3970
 30
0.0000
  0
SEQEND
  8
0
  0
POLYLINE
  8
27
 66
1
 10
0.0000
 20
0.0000
 30
0.0000
 40
0.1270
 41
0.1270
 70
0
  0
VERTEX
  8
27
 10
50.8930
 20
54.6102
 30
0.0000
  0
VERTEX
  8
27
 10
50.8930
 20
54.9915
 30
0.0000
  0
SEQEND
  8
0
  0
POLYLINE
  8
27
 66
1
 10
0.0000
 20
0.0000
 30
0.0000
 40
0.0635
 41
0.0635
 70
0
  0
VERTEX
  8
27
 10
50.9248
 20
54.9915
 30
0.0000
 42
1.0000
  0
VERTEX
  8
27
 10
50.8613
 20
54.9915
 30
0.0000
  0
SEQEND
  8
0
  0
POLYLINE
  8
27
 66
1
 10
0.0000
 20
0.0000
 30
0.0000
 40
0.0635
 41
0.0635
 70
0
  0
VERTEX
  8
27
 10
50.8613
 20
54.6102
 30
0.0000
 42
1.0000
  0
VERTEX
  8
27
 10
50.9248
 20
54.6102
 30
0.0000
  0
SEQEND
  8
0
  0
POLYLINE
  8
27
 66
1
 10
0.0000
 20
0.0000
 30
0.0000
 40
0.1270
 41
0.1270
 70
0
  0
VERTEX
  8
27
 10
50.3210
 20
54.6102
 30
0.0000
  0
VERTEX
  8
27
 10
50.3210
 20
54.2288
 30
0.0000
  0
SEQEND
  8
0
  0
POLYLINE
  8
27
 66
1
 10
0.0000
 20
0.0000
 30
0.0000
 40
0.0635
 41
0.0635
 70
0
  0
VERTEX
  8
27
 10
50.2893
 20
54.2288
 30
0.0000
 42
1.0000
  0
VERTEX
  8
27
 10
50.3528
 20
54.2288
 30
0.0000
  0
SEQEND
  8
0
  0
POLYLINE
  8
27
 66
1
 10
0.0000
 20
0.0000
 30
0.0000
 40
0.0635
 41
0.0635
 70
0
  0
VERTEX
  8
27
 10
50.3528
 20
54.6102
 30
0.0000
 42
1.0000
  0
VERTEX
  8
27
 10
50.2893
 20
54.6102
 30
0.0000
  0
SEQEND
  8
0
  0
POLYLINE
  8
27
 66
1
 10
0.0000
 20
0.0000
 30
0.0000
 40
0.1270
 41
0.1270
 70
0
  0
VERTEX
  8
27
 10
50.3210
 20
54.2288
 30
0.0000
  0
VERTEX
  8
27
 10
50.1304
 20
54.0382
 30
0.0000
  0
SEQEND
  8
0
  0
POLYLINE
  8
27
 66
1
 10
0.0000
 20
0.0000
 30
0.0000
 40
0.0635
 41
0.0635
 70
0
  0
VERTEX
  8
27
 10
50.1079
 20
54.0606
 30
0.0000
 42
1.0000
  0
VERTEX
  8
27
 10
50.1528
 20
54.0157
 30
0.0000
  0
SEQEND
  8
0
  0
POLYLINE
  8
27
 66
1
 10
0.0000
 20
0.0000
 30
0.0000
 40
0.0635
 41
0.0635
 70
0
  0
VERTEX
  8
27
 10
50.3435
 20
54.2064
 30
0.0000
 42
1.0000
  0
VERTEX
  8
27
 10
50.2986
 20
54.2513
 30
0.0000
  0
SEQEND
  8
0
  0
POLYLINE
  8
27
 66
1
 10
0.0000
 20
0.0000
 30
0.0000
 40
0.1270
 41
0.1270
 70
0
  0
VERTEX
  8
27
 10
51.2998
 20
54.4195
 30
0.0000
  0
VERTEX
  8
27
 10
51.2998
 20
55.5635
 30
0.0000
  0
SEQEND
  8
0
  0
POLYLINE
  8
27
 66
1
 10
0.0000
 20
0.0000
 30
0.0000
 40
0.0635
 41
0.0635
 70
0
  0
VERTEX
  8
27
 10
51.3315
 20
55.5635
 30
0.0000
 42
1.0000
  0
VERTEX
  8
27
 10
51.2680
 20
55.5635
 30
0.0000
  0
SEQEND
  8
0
  0
POLYLINE
  8
27
 66
1
 10
0.0000
 20
0.0000
 30
0.0000
 40
0.0635
 41
0.0635
 70
0
  0
VERTEX
  8
27
 10
51.2680
 20
54.4195
 30
0.0000
 42
1.0000
  0
VERTEX
  8
27
 10
51.3315
 20
54.4195
 30
0.0000
  0
SEQEND
  8
0
  0
POLYLINE
  8
27
 66
1
 10
0.0000
 20
0.0000
 30
0.0000
 40
0.1270
 41
0.1270
 70
0
  0
VERTEX
  8
27
 10
51.2998
 20
55.5635
 30
0.0000
  0
VERTEX
  8
27
 10
52.0624
 20
55.5635
 30
0.0000
  0
SEQEND
  8
0
  0
POLYLINE
  8
27
 66
1
 10
0.0000
 20
0.0000
 30
0.0000
 40
0.0635
 41
0.0635
 70
0
  0
VERTEX
  8
27
 10
52.0624
 20
55.5317
 30
0.0000
 42
1.0000
  0
VERTEX
  8
27
 10
52.0624
 20
55.5952
 30
0.0000
  0
SEQEND
  8
0
  0
POLYLINE
  8
27
 66
1
 10
0.0000
 20
0.0000
 30
0.0000
 40
0.0635
 41
0.0635
 70
0
  0
VERTEX
  8
27
 10
51.2998
 20
55.5952
 30
0.0000
 42
1.0000
  0
VERTEX
  8
27
 10
51.2998
 20
55.5317
 30
0.0000
  0
SEQEND
  8
0
  0
POLYLINE
  8
27
 66
1
 10
0.0000
 20
0.0000
 30
0.0000
 40
0.1270
 41
0.1270
 70
0
  0
VERTEX
  8
27
 10
51.2998
 20
54.9915
 30
0.0000
  0
VERTEX
  8
27
 10
51.6811
 20
54.9915
 30
0.0000
  0
SEQEND
  8
0
  0
POLYLINE
  8
27
 66
1
 10
0.0000
 20
0.0000
 30
0.0000
 40
0.0635
 41
0.0635
 70
0
  0
VERTEX
  8
27
 10
51.6811
 20
54.9597
 30
0.0000
 42
1.0000
  0
VERTEX
  8
27
 10
51.6811
 20
55.0232
 30
0.0000
  0
SEQEND
  8
0
  0
POLYLINE
  8
27
 66
1
 10
0.0000
 20
0.0000
 30
0.0000
 40
0.0635
 41
0.0635
 70
0
  0
VERTEX
  8
27
 10
51.2998
 20
55.0232
 30
0.0000
 42
1.0000
  0
VERTEX
  8
27
 10
51.2998
 20
54.9597
 30
0.0000
  0
SEQEND
  8
0
  0
INSERT
  8
17
  2
OCTAGONP
 10
46.9900
 20
57.1500
 30
0.0000
 41
1.3208
 42
1.3208
 43
1.0000
 50
0.0000
  0
INSERT
  8
17
  2
OCTAGONP
 10
46.9900
 20
57.1500
 30
0.0000
 41
1.3208
 42
1.3208
 43
1.0000
 50
0.0000
  0
INSERT
  8
17
  2
OCTAGONP
 10
49.5300
 20
57.1500
 30
0.0000
 41
1.3208
 42
1.3208
 43
1.0000
 50
0.0000
  0
INSERT
  8
17
  2
OCTAGONP
 10
49.5300
 20
57.1500
 30
0.0000
 41
1.3208
 42
1.3208
 43
1.0000
 50
0.0000
  0
POINT
  8
23
 10
55.8800
 20
49.5300
 30
0.0000
  0
POLYLINE
  8
21
 66
1
 10
0.0000
 20
0.0000
 30
0.0000
 40
0.1524
 41
0.1524
 70
0
  0
VERTEX
  8
21
 10
54.6100
 20
46.3550
 30
0.0000
  0
VERTEX
  8
21
 10
54.6100
 20
47.6250
 30
0.0000
  0
SEQEND
  8
0
  0
POLYLINE
  8
21
 66
1
 10
0.0000
 20
0.0000
 30
0.0000
 40
0.0762
 41
0.0762
 70
0
  0
VERTEX
  8
21
 10
54.6481
 20
47.6250
 30
0.0000
 42
1.0000
  0
VERTEX
  8
21
 10
54.5719
 20
47.6250
 30
0.0000
  0
SEQEND
  8
0
  0
POLYLINE
  8
21
 66
1
 10
0.0000
 20
0.0000
 30
0.0000
 40
0.0762
 41
0.0762
 70
0
  0
VERTEX
  8
21
 10
54.5719
 20
46.3550
 30
0.0000
 42
1.0000
  0
VERTEX
  8
21
 10
54.6481
 20
46.3550
 30
0.0000
  0
SEQEND
  8
0
  0
POLYLINE
  8
21
 66
1
 10
0.0000
 20
0.0000
 30
0.0000
 40
0.1524
 41
0.1524
 70
0
  0
VERTEX
  8
21
 10
54.6100
 20
47.6250
 30
0.0000
  0
VERTEX
  8
21
 10
55.2450
 20
48.2600
 30
0.0000
  0
SEQEND
  8
0
  0
POLYLINE
  8
21
 66
1
 10
0.0000
 20
0.0000
 30
0.0000
 40
0.0762
 41
0.0762
 70
0
  0
VERTEX
  8
21
 10
55.2719
 20
48.2331
 30
0.0000
 42
1.0000
  0
VERTEX
  8
21
 10
55.2181
 20
48.2869
 30
0.0000
  0
SEQEND
  8
0
  0
POLYLINE
  8
21
 66
1
 10
0.0000
 20
0.0000
 30
0.0000
 40
0.0762
 41
0.0762
 70
0
  0
VERTEX
  8
21
 10
54.5831
 20
47.6519
 30
0.0000
 42
1.0000
  0
VERTEX
  8
21
 10
54.6369
 20
47.5981
 30
0.0000
  0
SEQEND
  8
0
  0
POLYLINE
  8
21
 66
1
 10
0.0000
 20
0.0000
 30
0.0000
 40
0.1524
 41
0.1524
 70
0
  0
VERTEX
  8
21
 10
55.2450
 20
48.2600
 30
0.0000
  0
VERTEX
  8
21
 10
56.5150
 20
48.2600
 30
0.0000
  0
SEQEND
  8
0
  0
POLYLINE
  8
21
 66
1
 10
0.0000
 20
0.0000
 30
0.0000
 40
0.0762
 41
0.0762
 70
0
  0
VERTEX
  8
21
 10
56.5150
 20
48.2219
 30
0.0000
 42
1.0000
  0
VERTEX
  8
21
 10
56.5150
 20
48.2981
 30
0.0000
  0
SEQEND
  8
0
  0
POLYLINE
  8
21
 66
1
 10
0.0000
 20
0.0000
 30
0.0000
 40
0.0762
 41
0.0762
 70
0
  0
VERTEX
  8
21
 10
55.2450
 20
48.2981
 30
0.0000
 42
1.0000
  0
VERTEX
  8
21
 10
55.2450
 20
48.2219
 30
0.0000
  0
SEQEND
  8
0
  0
POLYLINE
  8
21
 66
1
 10
0.0000
 20
0.0000
 30
0.0000
 40
0.1524
 41
0.1524
 70
0
  0
VERTEX
  8
21
 10
56.5150
 20
48.2600
 30
0.0000
  0
VERTEX
  8
21
 10
57.1500
 20
47.6250
 30
0.0000
  0
SEQEND
  8
0
  0
POLYLINE
  8
21
 66
1
 10
0.0000
 20
0.0000
 30
0.0000
 40
0.0762
 41
0.0762
 70
0
  0
VERTEX
  8
21
 10
57.1231
 20
47.5981
 30
0.0000
 42
1.0000
  0
VERTEX
  8
21
 10
57.1769
 20
47.6519
 30
0.0000
  0
SEQEND
  8
0
  0
POLYLINE
  8
21
 66
1
 10
0.0000
 20
0.0000
 30
0.0000
 40
0.0762
 41
0.0762
 70
0
  0
VERTEX
  8
21
 10
56.5419
 20
48.2869
 30
0.0000
 42
1.0000
  0
VERTEX
  8
21
 10
56.4881
 20
48.2331
 30
0.0000
  0
SEQEND
  8
0
  0
POLYLINE
  8
21
 66
1
 10
0.0000
 20
0.0000
 30
0.0000
 40
0.1524
 41
0.1524
 70
0
  0
VERTEX
  8
21
 10
55.2450
 20
48.2600
 30
0.0000
  0
VERTEX
  8
21
 10
54.6100
 20
48.8950
 30
0.0000
  0
SEQEND
  8
0
  0
POLYLINE
  8
21
 66
1
 10
0.0000
 20
0.0000
 30
0.0000
 40
0.0762
 41
0.0762
 70
0
  0
VERTEX
  8
21
 10
54.6369
 20
48.9219
 30
0.0000
 42
1.0000
  0
VERTEX
  8
21
 10
54.5831
 20
48.8681
 30
0.0000
  0
SEQEND
  8
0
  0
POLYLINE
  8
21
 66
1
 10
0.0000
 20
0.0000
 30
0.0000
 40
0.0762
 41
0.0762
 70
0
  0
VERTEX
  8
21
 10
55.2181
 20
48.2331
 30
0.0000
 42
1.0000
  0
VERTEX
  8
21
 10
55.2719
 20
48.2869
 30
0.0000
  0
SEQEND
  8
0
  0
POLYLINE
  8
21
 66
1
 10
0.0000
 20
0.0000
 30
0.0000
 40
0.1524
 41
0.1524
 70
0
  0
VERTEX
  8
21
 10
54.6100
 20
48.8950
 30
0.0000
  0
VERTEX
  8
21
 10
54.6100
 20
50.1650
 30
0.0000
  0
SEQEND
  8
0
  0
POLYLINE
  8
21
 66
1
 10
0.0000
 20
0.0000
 30
0.0000
 40
0.0762
 41
0.0762
 70
0
  0
VERTEX
  8
21
 10
54.6481
 20
50.1650
 30
0.0000
 42
1.0000
  0
VERTEX
  8
21
 10
54.5719
 20
50.1650
 30
0.0000
  0
SEQEND
  8
0
  0
POLYLINE
  8
21
 66
1
 10
0.0000
 20
0.0000
 30
0.0000
 40
0.0762
 41
0.0762
 70
0
  0
VERTEX
  8
21
 10
54.5719
 20
48.8950
 30
0.0000
 42
1.0000
  0
VERTEX
  8
21
 10
54.6481
 20
48.8950
 30
0.0000
  0
SEQEND
  8
0
  0
POLYLINE
  8
21
 66
1
 10
0.0000
 20
0.0000
 30
0.0000
 40
0.1524
 41
0.1524
 70
0
  0
VERTEX
  8
21
 10
54.6100
 20
50.1650
 30
0.0000
  0
VERTEX
  8
21
 10
55.2450
 20
50.8000
 30
0.0000
  0
SEQEND
  8
0
  0
POLYLINE
  8
21
 66
1
 10
0.0000
 20
0.0000
 30
0.0000
 40
0.0762
 41
0.0762
 70
0
  0
VERTEX
  8
21
 10
55.2719
 20
50.7731
 30
0.0000
 42
1.0000
  0
VERTEX
  8
21
 10
55.2181
 20
50.8269
 30
0.0000
  0
SEQEND
  8
0
  0
POLYLINE
  8
21
 66
1
 10
0.0000
 20
0.0000
 30
0.0000
 40
0.0762
 41
0.0762
 70
0
  0
VERTEX
  8
21
 10
54.5831
 20
50.1919
 30
0.0000
 42
1.0000
  0
VERTEX
  8
21
 10
54.6369
 20
50.1381
 30
0.0000
  0
SEQEND
  8
0
  0
POLYLINE
  8
21
 66
1
 10
0.0000
 20
0.0000
 30
0.0000
 40
0.1524
 41
0.1524
 70
0
  0
VERTEX
  8
21
 10
55.2450
 20
50.8000
 30
0.0000
  0
VERTEX
  8
21
 10
56.5150
 20
50.8000
 30
0.0000
  0
SEQEND
  8
0
  0
POLYLINE
  8
21
 66
1
 10
0.0000
 20
0.0000
 30
0.0000
 40
0.0762
 41
0.0762
 70
0
  0
VERTEX
  8
21
 10
56.5150
 20
50.7619
 30
0.0000
 42
1.0000
  0
VERTEX
  8
21
 10
56.5150
 20
50.8381
 30
0.0000
  0
SEQEND
  8
0
  0
POLYLINE
  8
21
 66
1
 10
0.0000
 20
0.0000
 30
0.0000
 40
0.0762
 41
0.0762
 70
0
  0
VERTEX
  8
21
 10
55.2450
 20
50.8381
 30
0.0000
 42
1.0000
  0
VERTEX
  8
21
 10
55.2450
 20
50.7619
 30
0.0000
  0
SEQEND
  8
0
  0
POLYLINE
  8
21
 66
1
 10
0.0000
 20
0.0000
 30
0.0000
 40
0.1524
 41
0.1524
 70
0
  0
VERTEX
  8
21
 10
56.5150
 20
50.8000
 30
0.0000
  0
VERTEX
  8
21
 10
57.1500
 20
50.1650
 30
0.0000
  0
SEQEND
  8
0
  0
POLYLINE
  8
21
 66
1
 10
0.0000
 20
0.0000
 30
0.0000
 40
0.0762
 41
0.0762
 70
0
  0
VERTEX
  8
21
 10
57.1231
 20
50.1381
 30
0.0000
 42
1.0000
  0
VERTEX
  8
21
 10
57.1769
 20
50.1919
 30
0.0000
  0
SEQEND
  8
0
  0
POLYLINE
  8
21
 66
1
 10
0.0000
 20
0.0000
 30
0.0000
 40
0.0762
 41
0.0762
 70
0
  0
VERTEX
  8
21
 10
56.5419
 20
50.8269
 30
0.0000
 42
1.0000
  0
VERTEX
  8
21
 10
56.4881
 20
50.7731
 30
0.0000
  0
SEQEND
  8
0
  0
POLYLINE
  8
21
 66
1
 10
0.0000
 20
0.0000
 30
0.0000
 40
0.1524
 41
0.1524
 70
0
  0
VERTEX
  8
21
 10
57.1500
 20
50.1650
 30
0.0000
  0
VERTEX
  8
21
 10
57.1500
 20
48.8950
 30
0.0000
  0
SEQEND
  8
0
  0
POLYLINE
  8
21
 66
1
 10
0.0000
 20
0.0000
 30
0.0000
 40
0.0762
 41
0.0762
 70
0
  0
VERTEX
  8
21
 10
57.1119
 20
48.8950
 30
0.0000
 42
1.0000
  0
VERTEX
  8
21
 10
57.1881
 20
48.8950
 30
0.0000
  0
SEQEND
  8
0
  0
POLYLINE
  8
21
 66
1
 10
0.0000
 20
0.0000
 30
0.0000
 40
0.0762
 41
0.0762
 70
0
  0
VERTEX
  8
21
 10
57.1881
 20
50.1650
 30
0.0000
 42
1.0000
  0
VERTEX
  8
21
 10
57.1119
 20
50.1650
 30
0.0000
  0
SEQEND
  8
0
  0
POLYLINE
  8
21
 66
1
 10
0.0000
 20
0.0000
 30
0.0000
 40
0.1524
 41
0.1524
 70
0
  0
VERTEX
  8
21
 10
57.1500
 20
48.8950
 30
0.0000
  0
VERTEX
  8
21
 10
56.5150
 20
48.2600
 30
0.0000
  0
SEQEND
  8
0
  0
POLYLINE
  8
21
 66
1
 10
0.0000
 20
0.0000
 30
0.0000
 40
0.0762
 41
0.0762
 70
0
  0
VERTEX
  8
21
 10
56.4881
 20
48.2869
 30
0.0000
 42
1.0000
  0
VERTEX
  8
21
 10
56.5419
 20
48.2331
 30
0.0000
  0
SEQEND
  8
0
  0
POLYLINE
  8
21
 66
1
 10
0.0000
 20
0.0000
 30
0.0000
 40
0.0762
 41
0.0762
 70
0
  0
VERTEX
  8
21
 10
57.1769
 20
48.8681
 30
0.0000
 42
1.0000
  0
VERTEX
  8
21
 10
57.1231
 20
48.9219
 30
0.0000
  0
SEQEND
  8
0
  0
POLYLINE
  8
21
 66
1
 10
0.0000
 20
0.0000
 30
0.0000
 40
0.1524
 41
0.1524
 70
0
  0
VERTEX
  8
21
 10
55.2450
 20
45.7200
 30
0.0000
  0
VERTEX
  8
21
 10
56.5150
 20
45.7200
 30
0.0000
  0
SEQEND
  8
0
  0
POLYLINE
  8
21
 66
1
 10
0.0000
 20
0.0000
 30
0.0000
 40
0.0762
 41
0.0762
 70
0
  0
VERTEX
  8
21
 10
56.5150
 20
45.6819
 30
0.0000
 42
1.0000
  0
VERTEX
  8
21
 10
56.5150
 20
45.7581
 30
0.0000
  0
SEQEND
  8
0
  0
POLYLINE
  8
21
 66
1
 10
0.0000
 20
0.0000
 30
0.0000
 40
0.0762
 41
0.0762
 70
0
  0
VERTEX
  8
21
 10
55.2450
 20
45.7581
 30
0.0000
 42
1.0000
  0
VERTEX
  8
21
 10
55.2450
 20
45.6819
 30
0.0000
  0
SEQEND
  8
0
  0
POLYLINE
  8
21
 66
1
 10
0.0000
 20
0.0000
 30
0.0000
 40
0.1524
 41
0.1524
 70
0
  0
VERTEX
  8
21
 10
54.6100
 20
46.3550
 30
0.0000
  0
VERTEX
  8
21
 10
55.2450
 20
45.7200
 30
0.0000
  0
SEQEND
  8
0
  0
POLYLINE
  8
21
 66
1
 10
0.0000
 20
0.0000
 30
0.0000
 40
0.0762
 41
0.0762
 70
0
  0
VERTEX
  8
21
 10
55.2181
 20
45.6931
 30
0.0000
 42
1.0000
  0
VERTEX
  8
21
 10
55.2719
 20
45.7469
 30
0.0000
  0
SEQEND
  8
0
  0
POLYLINE
  8
21
 66
1
 10
0.0000
 20
0.0000
 30
0.0000
 40
0.0762
 41
0.0762
 70
0
  0
VERTEX
  8
21
 10
54.6369
 20
46.3819
 30
0.0000
 42
1.0000
  0
VERTEX
  8
21
 10
54.5831
 20
46.3281
 30
0.0000
  0
SEQEND
  8
0
  0
POLYLINE
  8
21
 66
1
 10
0.0000
 20
0.0000
 30
0.0000
 40
0.1524
 41
0.1524
 70
0
  0
VERTEX
  8
21
 10
56.5150
 20
45.7200
 30
0.0000
  0
VERTEX
  8
21
 10
57.1500
 20
46.3550
 30
0.0000
  0
SEQEND
  8
0
  0
POLYLINE
  8
21
 66
1
 10
0.0000
 20
0.0000
 30
0.0000
 40
0.0762
 41
0.0762
 70
0
  0
VERTEX
  8
21
 10
57.1769
 20
46.3281
 30
0.0000
 42
1.0000
  0
VERTEX
  8
21
 10
57.1231
 20
46.3819
 30
0.0000
  0
SEQEND
  8
0
  0
POLYLINE
  8
21
 66
1
 10
0.0000
 20
0.0000
 30
0.0000
 40
0.0762
 41
0.0762
 70
0
  0
VERTEX
  8
21
 10
56.4881
 20
45.7469
 30
0.0000
 42
1.0000
  0
VERTEX
  8
21
 10
56.5419
 20
45.6931
 30
0.0000
  0
SEQEND
  8
0
  0
POLYLINE
  8
21
 66
1
 10
0.0000
 20
0.0000
 30
0.0000
 40
0.1524
 41
0.1524
 70
0
  0
VERTEX
  8
21
 10
57.1500
 20
47.6250
 30
0.0000
  0
VERTEX
  8
21
 10
57.1500
 20
46.3550
 30
0.0000
  0
SEQEND
  8
0
  0
POLYLINE
  8
21
 66
1
 10
0.0000
 20
0.0000
 30
0.0000
 40
0.0762
 41
0.0762
 70
0
  0
VERTEX
  8
21
 10
57.1119
 20
46.3550
 30
0.0000
 42
1.0000
  0
VERTEX
  8
21
 10
57.1881
 20
46.3550
 30
0.0000
  0
SEQEND
  8
0
  0
POLYLINE
  8
21
 66
1
 10
0.0000
 20
0.0000
 30
0.0000
 40
0.0762
 41
0.0762
 70
0
  0
VERTEX
  8
21
 10
57.1881
 20
47.6250
 30
0.0000
 42
1.0000
  0
VERTEX
  8
21
 10
57.1119
 20
47.6250
 30
0.0000
  0
SEQEND
  8
0
  0
POLYLINE
  8
21
 66
1
 10
0.0000
 20
0.0000
 30
0.0000
 40
0.1524
 41
0.1524
 70
0
  0
VERTEX
  8
21
 10
55.2450
 20
50.8000
 30
0.0000
  0
VERTEX
  8
21
 10
54.6100
 20
51.4350
 30
0.0000
  0
SEQEND
  8
0
  0
POLYLINE
  8
21
 66
1
 10
0.0000
 20
0.0000
 30
0.0000
 40
0.0762
 41
0.0762
 70
0
  0
VERTEX
  8
21
 10
54.6369
 20
51.4619
 30
0.0000
 42
1.0000
  0
VERTEX
  8
21
 10
54.5831
 20
51.4081
 30
0.0000
  0
SEQEND
  8
0
  0
POLYLINE
  8
21
 66
1
 10
0.0000
 20
0.0000
 30
0.0000
 40
0.0762
 41
0.0762
 70
0
  0
VERTEX
  8
21
 10
55.2181
 20
50.7731
 30
0.0000
 42
1.0000
  0
VERTEX
  8
21
 10
55.2719
 20
50.8269
 30
0.0000
  0
SEQEND
  8
0
  0
POLYLINE
  8
21
 66
1
 10
0.0000
 20
0.0000
 30
0.0000
 40
0.1524
 41
0.1524
 70
0
  0
VERTEX
  8
21
 10
54.6100
 20
51.4350
 30
0.0000
  0
VERTEX
  8
21
 10
54.6100
 20
52.7050
 30
0.0000
  0
SEQEND
  8
0
  0
POLYLINE
  8
21
 66
1
 10
0.0000
 20
0.0000
 30
0.0000
 40
0.0762
 41
0.0762
 70
0
  0
VERTEX
  8
21
 10
54.6481
 20
52.7050
 30
0.0000
 42
1.0000
  0
VERTEX
  8
21
 10
54.5719
 20
52.7050
 30
0.0000
  0
SEQEND
  8
0
  0
POLYLINE
  8
21
 66
1
 10
0.0000
 20
0.0000
 30
0.0000
 40
0.0762
 41
0.0762
 70
0
  0
VERTEX
  8
21
 10
54.5719
 20
51.4350
 30
0.0000
 42
1.0000
  0
VERTEX
  8
21
 10
54.6481
 20
51.4350
 30
0.0000
  0
SEQEND
  8
0
  0
POLYLINE
  8
21
 66
1
 10
0.0000
 20
0.0000
 30
0.0000
 40
0.1524
 41
0.1524
 70
0
  0
VERTEX
  8
21
 10
54.6100
 20
52.7050
 30
0.0000
  0
VERTEX
  8
21
 10
55.2450
 20
53.3400
 30
0.0000
  0
SEQEND
  8
0
  0
POLYLINE
  8
21
 66
1
 10
0.0000
 20
0.0000
 30
0.0000
 40
0.0762
 41
0.0762
 70
0
  0
VERTEX
  8
21
 10
55.2719
 20
53.3131
 30
0.0000
 42
1.0000
  0
VERTEX
  8
21
 10
55.2181
 20
53.3669
 30
0.0000
  0
SEQEND
  8
0
  0
POLYLINE
  8
21
 66
1
 10
0.0000
 20
0.0000
 30
0.0000
 40
0.0762
 41
0.0762
 70
0
  0
VERTEX
  8
21
 10
54.5831
 20
52.7319
 30
0.0000
 42
1.0000
  0
VERTEX
  8
21
 10
54.6369
 20
52.6781
 30
0.0000
  0
SEQEND
  8
0
  0
POLYLINE
  8
21
 66
1
 10
0.0000
 20
0.0000
 30
0.0000
 40
0.1524
 41
0.1524
 70
0
  0
VERTEX
  8
21
 10
55.2450
 20
53.3400
 30
0.0000
  0
VERTEX
  8
21
 10
56.5150
 20
53.3400
 30
0.0000
  0
SEQEND
  8
0
  0
POLYLINE
  8
21
 66
1
 10
0.0000
 20
0.0000
 30
0.0000
 40
0.0762
 41
0.0762
 70
0
  0
VERTEX
  8
21
 10
56.5150
 20
53.3019
 30
0.0000
 42
1.0000
  0
VERTEX
  8
21
 10
56.5150
 20
53.3781
 30
0.0000
  0
SEQEND
  8
0
  0
POLYLINE
  8
21
 66
1
 10
0.0000
 20
0.0000
 30
0.0000
 40
0.0762
 41
0.0762
 70
0
  0
VERTEX
  8
21
 10
55.2450
 20
53.3781
 30
0.0000
 42
1.0000
  0
VERTEX
  8
21
 10
55.2450
 20
53.3019
 30
0.0000
  0
SEQEND
  8
0
  0
POLYLINE
  8
21
 66
1
 10
0.0000
 20
0.0000
 30
0.0000
 40
0.1524
 41
0.1524
 70
0
  0
VERTEX
  8
21
 10
56.5150
 20
53.3400
 30
0.0000
  0
VERTEX
  8
21
 10
57.1500
 20
52.7050
 30
0.0000
  0
SEQEND
  8
0
  0
POLYLINE
  8
21
 66
1
 10
0.0000
 20
0.0000
 30
0.0000
 40
0.0762
 41
0.0762
 70
0
  0
VERTEX
  8
21
 10
57.1231
 20
52.6781
 30
0.0000
 42
1.0000
  0
VERTEX
  8
21
 10
57.1769
 20
52.7319
 30
0.0000
  0
SEQEND
  8
0
  0
POLYLINE
  8
21
 66
1
 10
0.0000
 20
0.0000
 30
0.0000
 40
0.0762
 41
0.0762
 70
0
  0
VERTEX
  8
21
 10
56.5419
 20
53.3669
 30
0.0000
 42
1.0000
  0
VERTEX
  8
21
 10
56.4881
 20
53.3131
 30
0.0000
  0
SEQEND
  8
0
  0
POLYLINE
  8
21
 66
1
 10
0.0000
 20
0.0000
 30
0.0000
 40
0.1524
 41
0.1524
 70
0
  0
VERTEX
  8
21
 10
57.1500
 20
52.7050
 30
0.0000
  0
VERTEX
  8
21
 10
57.1500
 20
51.4350
 30
0.0000
  0
SEQEND
  8
0
  0
POLYLINE
  8
21
 66
1
 10
0.0000
 20
0.0000
 30
0.0000
 40
0.0762
 41
0.0762
 70
0
  0
VERTEX
  8
21
 10
57.1119
 20
51.4350
 30
0.0000
 42
1.0000
  0
VERTEX
  8
21
 10
57.1881
 20
51.4350
 30
0.0000
  0
SEQEND
  8
0
  0
POLYLINE
  8
21
 66
1
 10
0.0000
 20
0.0000
 30
0.0000
 40
0.0762
 41
0.0762
 70
0
  0
VERTEX
  8
21
 10
57.1881
 20
52.7050
 30
0.0000
 42
1.0000
  0
VERTEX
  8
21
 10
57.1119
 20
52.7050
 30
0.0000
  0
SEQEND
  8
0
  0
POLYLINE
  8
21
 66
1
 10
0.0000
 20
0.0000
 30
0.0000
 40
0.1524
 41
0.1524
 70
0
  0
VERTEX
  8
21
 10
57.1500
 20
51.4350
 30
0.0000
  0
VERTEX
  8
21
 10
56.5150
 20
50.8000
 30
0.0000
  0
SEQEND
  8
0
  0
POLYLINE
  8
21
 66
1
 10
0.0000
 20
0.0000
 30
0.0000
 40
0.0762
 41
0.0762
 70
0
  0
VERTEX
  8
21
 10
56.4881
 20
50.8269
 30
0.0000
 42
1.0000
  0
VERTEX
  8
21
 10
56.5419
 20
50.7731
 30
0.0000
  0
SEQEND
  8
0
  0
POLYLINE
  8
21
 66
1
 10
0.0000
 20
0.0000
 30
0.0000
 40
0.0762
 41
0.0762
 70
0
  0
VERTEX
  8
21
 10
57.1769
 20
51.4081
 30
0.0000
 42
1.0000
  0
VERTEX
  8
21
 10
57.1231
 20
51.4619
 30
0.0000
  0
SEQEND
  8
0
  0
POLYLINE
  8
25
 66
1
 10
0.0000
 20
0.0000
 30
0.0000
 40
0.1270
 41
0.1270
 70
0
  0
VERTEX
  8
25
 10
53.7970
 20
45.7073
 30
0.0000
  0
VERTEX
  8
25
 10
53.9877
 20
45.8980
 30
0.0000
  0
SEQEND
  8
0
  0
POLYLINE
  8
25
 66
1
 10
0.0000
 20
0.0000
 30
0.0000
 40
0.0635
 41
0.0635
 70
0
  0
VERTEX
  8
25
 10
54.0102
 20
45.8755
 30
0.0000
 42
1.0000
  0
VERTEX
  8
25
 10
53.9652
 20
45.9204
 30
0.0000
  0
SEQEND
  8
0
  0
POLYLINE
  8
25
 66
1
 10
0.0000
 20
0.0000
 30
0.0000
 40
0.0635
 41
0.0635
 70
0
  0
VERTEX
  8
25
 10
53.7746
 20
45.7298
 30
0.0000
 42
1.0000
  0
VERTEX
  8
25
 10
53.8195
 20
45.6848
 30
0.0000
  0
SEQEND
  8
0
  0
POLYLINE
  8
25
 66
1
 10
0.0000
 20
0.0000
 30
0.0000
 40
0.1270
 41
0.1270
 70
0
  0
VERTEX
  8
25
 10
53.9877
 20
45.8980
 30
0.0000
  0
VERTEX
  8
25
 10
53.9877
 20
46.0886
 30
0.0000
  0
SEQEND
  8
0
  0
POLYLINE
  8
25
 66
1
 10
0.0000
 20
0.0000
 30
0.0000
 40
0.0635
 41
0.0635
 70
0
  0
VERTEX
  8
25
 10
54.0195
 20
46.0886
 30
0.0000
 42
1.0000
  0
VERTEX
  8
25
 10
53.9560
 20
46.0886
 30
0.0000
  0
SEQEND
  8
0
  0
POLYLINE
  8
25
 66
1
 10
0.0000
 20
0.0000
 30
0.0000
 40
0.0635
 41
0.0635
 70
0
  0
VERTEX
  8
25
 10
53.9560
 20
45.8980
 30
0.0000
 42
1.0000
  0
VERTEX
  8
25
 10
54.0195
 20
45.8980
 30
0.0000
  0
SEQEND
  8
0
  0
POLYLINE
  8
25
 66
1
 10
0.0000
 20
0.0000
 30
0.0000
 40
0.1270
 41
0.1270
 70
0
  0
VERTEX
  8
25
 10
53.9877
 20
46.0886
 30
0.0000
  0
VERTEX
  8
25
 10
53.7970
 20
46.2793
 30
0.0000
  0
SEQEND
  8
0
  0
POLYLINE
  8
25
 66
1
 10
0.0000
 20
0.0000
 30
0.0000
 40
0.0635
 41
0.0635
 70
0
  0
VERTEX
  8
25
 10
53.8195
 20
46.3017
 30
0.0000
 42
1.0000
  0
VERTEX
  8
25
 10
53.7746
 20
46.2568
 30
0.0000
  0
SEQEND
  8
0
  0
POLYLINE
  8
25
 66
1
 10
0.0000
 20
0.0000
 30
0.0000
 40
0.0635
 41
0.0635
 70
0
  0
VERTEX
  8
25
 10
53.9652
 20
46.0662
 30
0.0000
 42
1.0000
  0
VERTEX
  8
25
 10
54.0102
 20
46.1111
 30
0.0000
  0
SEQEND
  8
0
  0
POLYLINE
  8
25
 66
1
 10
0.0000
 20
0.0000
 30
0.0000
 40
0.1270
 41
0.1270
 70
0
  0
VERTEX
  8
25
 10
53.7970
 20
46.2793
 30
0.0000
  0
VERTEX
  8
25
 10
52.8437
 20
46.2793
 30
0.0000
  0
SEQEND
  8
0
  0
POLYLINE
  8
25
 66
1
 10
0.0000
 20
0.0000
 30
0.0000
 40
0.0635
 41
0.0635
 70
0
  0
VERTEX
  8
25
 10
52.8437
 20
46.3110
 30
0.0000
 42
1.0000
  0
VERTEX
  8
25
 10
52.8437
 20
46.2475
 30
0.0000
  0
SEQEND
  8
0
  0
POLYLINE
  8
25
 66
1
 10
0.0000
 20
0.0000
 30
0.0000
 40
0.0635
 41
0.0635
 70
0
  0
VERTEX
  8
25
 10
53.7970
 20
46.2475
 30
0.0000
 42
1.0000
  0
VERTEX
  8
25
 10
53.7970
 20
46.3110
 30
0.0000
  0
SEQEND
  8
0
  0
POLYLINE
  8
25
 66
1
 10
0.0000
 20
0.0000
 30
0.0000
 40
0.1270
 41
0.1270
 70
0
  0
VERTEX
  8
25
 10
52.8437
 20
46.0886
 30
0.0000
  0
VERTEX
  8
25
 10
52.8437
 20
46.4700
 30
0.0000
  0
SEQEND
  8
0
  0
POLYLINE
  8
25
 66
1
 10
0.0000
 20
0.0000
 30
0.0000
 40
0.0635
 41
0.0635
 70
0
  0
VERTEX
  8
25
 10
52.8755
 20
46.4700
 30
0.0000
 42
1.0000
  0
VERTEX
  8
25
 10
52.8120
 20
46.4700
 30
0.0000
  0
SEQEND
  8
0
  0
POLYLINE
  8
25
 66
1
 10
0.0000
 20
0.0000
 30
0.0000
 40
0.0635
 41
0.0635
 70
0
  0
VERTEX
  8
25
 10
52.8120
 20
46.0886
 30
0.0000
 42
1.0000
  0
VERTEX
  8
25
 10
52.8755
 20
46.0886
 30
0.0000
  0
SEQEND
  8
0
  0
POLYLINE
  8
25
 66
1
 10
0.0000
 20
0.0000
 30
0.0000
 40
0.1270
 41
0.1270
 70
0
  0
VERTEX
  8
25
 10
53.9877
 20
46.8767
 30
0.0000
  0
VERTEX
  8
25
 10
52.8437
 20
46.8767
 30
0.0000
  0
SEQEND
  8
0
  0
POLYLINE
  8
25
 66
1
 10
0.0000
 20
0.0000
 30
0.0000
 40
0.0635
 41
0.0635
 70
0
  0
VERTEX
  8
25
 10
52.8437
 20
46.9084
 30
0.0000
 42
1.0000
  0
VERTEX
  8
25
 10
52.8437
 20
46.8449
 30
0.0000
  0
SEQEND
  8
0
  0
POLYLINE
  8
25
 66
1
 10
0.0000
 20
0.0000
 30
0.0000
 40
0.0635
 41
0.0635
 70
0
  0
VERTEX
  8
25
 10
53.9877
 20
46.8449
 30
0.0000
 42
1.0000
  0
VERTEX
  8
25
 10
53.9877
 20
46.9084
 30
0.0000
  0
SEQEND
  8
0
  0
POLYLINE
  8
25
 66
1
 10
0.0000
 20
0.0000
 30
0.0000
 40
0.1270
 41
0.1270
 70
0
  0
VERTEX
  8
25
 10
52.8437
 20
46.8767
 30
0.0000
  0
VERTEX
  8
25
 10
52.8437
 20
47.4487
 30
0.0000
  0
SEQEND
  8
0
  0
POLYLINE
  8
25
 66
1
 10
0.0000
 20
0.0000
 30
0.0000
 40
0.0635
 41
0.0635
 70
0
  0
VERTEX
  8
25
 10
52.8755
 20
47.4487
 30
0.0000
 42
1.0000
  0
VERTEX
  8
25
 10
52.8120
 20
47.4487
 30
0.0000
  0
SEQEND
  8
0
  0
POLYLINE
  8
25
 66
1
 10
0.0000
 20
0.0000
 30
0.0000
 40
0.0635
 41
0.0635
 70
0
  0
VERTEX
  8
25
 10
52.8120
 20
46.8767
 30
0.0000
 42
1.0000
  0
VERTEX
  8
25
 10
52.8755
 20
46.8767
 30
0.0000
  0
SEQEND
  8
0
  0
POLYLINE
  8
25
 66
1
 10
0.0000
 20
0.0000
 30
0.0000
 40
0.1270
 41
0.1270
 70
0
  0
VERTEX
  8
25
 10
52.8437
 20
47.4487
 30
0.0000
  0
VERTEX
  8
25
 10
53.0344
 20
47.6393
 30
0.0000
  0
SEQEND
  8
0
  0
POLYLINE
  8
25
 66
1
 10
0.0000
 20
0.0000
 30
0.0000
 40
0.0635
 41
0.0635
 70
0
  0
VERTEX
  8
25
 10
53.0568
 20
47.6169
 30
0.0000
 42
1.0000
  0
VERTEX
  8
25
 10
53.0119
 20
47.6618
 30
0.0000
  0
SEQEND
  8
0
  0
POLYLINE
  8
25
 66
1
 10
0.0000
 20
0.0000
 30
0.0000
 40
0.0635
 41
0.0635
 70
0
  0
VERTEX
  8
25
 10
52.8213
 20
47.4711
 30
0.0000
 42
1.0000
  0
VERTEX
  8
25
 10
52.8662
 20
47.4262
 30
0.0000
  0
SEQEND
  8
0
  0
POLYLINE
  8
25
 66
1
 10
0.0000
 20
0.0000
 30
0.0000
 40
0.1270
 41
0.1270
 70
0
  0
VERTEX
  8
25
 10
53.0344
 20
47.6393
 30
0.0000
  0
VERTEX
  8
25
 10
53.4157
 20
47.6393
 30
0.0000
  0
SEQEND
  8
0
  0
POLYLINE
  8
25
 66
1
 10
0.0000
 20
0.0000
 30
0.0000
 40
0.0635
 41
0.0635
 70
0
  0
VERTEX
  8
25
 10
53.4157
 20
47.6076
 30
0.0000
 42
1.0000
  0
VERTEX
  8
25
 10
53.4157
 20
47.6711
 30
0.0000
  0
SEQEND
  8
0
  0
POLYLINE
  8
25
 66
1
 10
0.0000
 20
0.0000
 30
0.0000
 40
0.0635
 41
0.0635
 70
0
  0
VERTEX
  8
25
 10
53.0344
 20
47.6711
 30
0.0000
 42
1.0000
  0
VERTEX
  8
25
 10
53.0344
 20
47.6076
 30
0.0000
  0
SEQEND
  8
0
  0
POLYLINE
  8
25
 66
1
 10
0.0000
 20
0.0000
 30
0.0000
 40
0.1270
 41
0.1270
 70
0
  0
VERTEX
  8
25
 10
53.4157
 20
47.6393
 30
0.0000
  0
VERTEX
  8
25
 10
53.6064
 20
47.4487
 30
0.0000
  0
SEQEND
  8
0
  0
POLYLINE
  8
25
 66
1
 10
0.0000
 20
0.0000
 30
0.0000
 40
0.0635
 41
0.0635
 70
0
  0
VERTEX
  8
25
 10
53.5839
 20
47.4262
 30
0.0000
 42
1.0000
  0
VERTEX
  8
25
 10
53.6288
 20
47.4711
 30
0.0000
  0
SEQEND
  8
0
  0
POLYLINE
  8
25
 66
1
 10
0.0000
 20
0.0000
 30
0.0000
 40
0.0635
 41
0.0635
 70
0
  0
VERTEX
  8
25
 10
53.4382
 20
47.6618
 30
0.0000
 42
1.0000
  0
VERTEX
  8
25
 10
53.3933
 20
47.6169
 30
0.0000
  0
SEQEND
  8
0
  0
POLYLINE
  8
25
 66
1
 10
0.0000
 20
0.0000
 30
0.0000
 40
0.1270
 41
0.1270
 70
0
  0
VERTEX
  8
25
 10
53.6064
 20
47.4487
 30
0.0000
  0
VERTEX
  8
25
 10
53.6064
 20
46.8767
 30
0.0000
  0
SEQEND
  8
0
  0
POLYLINE
  8
25
 66
1
 10
0.0000
 20
0.0000
 30
0.0000
 40
0.0635
 41
0.0635
 70
0
  0
VERTEX
  8
25
 10
53.5746
 20
46.8767
 30
0.0000
 42
1.0000
  0
VERTEX
  8
25
 10
53.6381
 20
46.8767
 30
0.0000
  0
SEQEND
  8
0
  0
POLYLINE
  8
25
 66
1
 10
0.0000
 20
0.0000
 30
0.0000
 40
0.0635
 41
0.0635
 70
0
  0
VERTEX
  8
25
 10
53.6381
 20
47.4487
 30
0.0000
 42
1.0000
  0
VERTEX
  8
25
 10
53.5746
 20
47.4487
 30
0.0000
  0
SEQEND
  8
0
  0
POLYLINE
  8
25
 66
1
 10
0.0000
 20
0.0000
 30
0.0000
 40
0.1270
 41
0.1270
 70
0
  0
VERTEX
  8
25
 10
53.9877
 20
48.8087
 30
0.0000
  0
VERTEX
  8
25
 10
53.9877
 20
48.0461
 30
0.0000
  0
SEQEND
  8
0
  0
POLYLINE
  8
25
 66
1
 10
0.0000
 20
0.0000
 30
0.0000
 40
0.0635
 41
0.0635
 70
0
  0
VERTEX
  8
25
 10
53.9560
 20
48.0461
 30
0.0000
 42
1.0000
  0
VERTEX
  8
25
 10
54.0195
 20
48.0461
 30
0.0000
  0
SEQEND
  8
0
  0
POLYLINE
  8
25
 66
1
 10
0.0000
 20
0.0000
 30
0.0000
 40
0.0635
 41
0.0635
 70
0
  0
VERTEX
  8
25
 10
54.0195
 20
48.8087
 30
0.0000
 42
1.0000
  0
VERTEX
  8
25
 10
53.9560
 20
48.8087
 30
0.0000
  0
SEQEND
  8
0
  0
POLYLINE
  8
25
 66
1
 10
0.0000
 20
0.0000
 30
0.0000
 40
0.1270
 41
0.1270
 70
0
  0
VERTEX
  8
25
 10
53.9877
 20
48.0461
 30
0.0000
  0
VERTEX
  8
25
 10
53.2251
 20
48.8087
 30
0.0000
  0
SEQEND
  8
0
  0
POLYLINE
  8
25
 66
1
 10
0.0000
 20
0.0000
 30
0.0000
 40
0.0635
 41
0.0635
 70
0
  0
VERTEX
  8
25
 10
53.2475
 20
48.8312
 30
0.0000
 42
1.0000
  0
VERTEX
  8
25
 10
53.2026
 20
48.7863
 30
0.0000
  0
SEQEND
  8
0
  0
POLYLINE
  8
25
 66
1
 10
0.0000
 20
0.0000
 30
0.0000
 40
0.0635
 41
0.0635
 70
0
  0
VERTEX
  8
25
 10
53.9652
 20
48.0236
 30
0.0000
 42
1.0000
  0
VERTEX
  8
25
 10
54.0102
 20
48.0685
 30
0.0000
  0
SEQEND
  8
0
  0
POLYLINE
  8
25
 66
1
 10
0.0000
 20
0.0000
 30
0.0000
 40
0.1270
 41
0.1270
 70
0
  0
VERTEX
  8
25
 10
53.2251
 20
48.8087
 30
0.0000
  0
VERTEX
  8
25
 10
53.0344
 20
48.8087
 30
0.0000
  0
SEQEND
  8
0
  0
POLYLINE
  8
25
 66
1
 10
0.0000
 20
0.0000
 30
0.0000
 40
0.0635
 41
0.0635
 70
0
  0
VERTEX
  8
25
 10
53.0344
 20
48.8405
 30
0.0000
 42
1.0000
  0
VERTEX
  8
25
 10
53.0344
 20
48.7770
 30
0.0000
  0
SEQEND
  8
0
  0
POLYLINE
  8
25
 66
1
 10
0.0000
 20
0.0000
 30
0.0000
 40
0.0635
 41
0.0635
 70
0
  0
VERTEX
  8
25
 10
53.2251
 20
48.7770
 30
0.0000
 42
1.0000
  0
VERTEX
  8
25
 10
53.2251
 20
48.8405
 30
0.0000
  0
SEQEND
  8
0
  0
POLYLINE
  8
25
 66
1
 10
0.0000
 20
0.0000
 30
0.0000
 40
0.1270
 41
0.1270
 70
0
  0
VERTEX
  8
25
 10
53.0344
 20
48.8087
 30
0.0000
  0
VERTEX
  8
25
 10
52.8437
 20
48.6181
 30
0.0000
  0
SEQEND
  8
0
  0
POLYLINE
  8
25
 66
1
 10
0.0000
 20
0.0000
 30
0.0000
 40
0.0635
 41
0.0635
 70
0
  0
VERTEX
  8
25
 10
52.8213
 20
48.6405
 30
0.0000
 42
1.0000
  0
VERTEX
  8
25
 10
52.8662
 20
48.5956
 30
0.0000
  0
SEQEND
  8
0
  0
POLYLINE
  8
25
 66
1
 10
0.0000
 20
0.0000
 30
0.0000
 40
0.0635
 41
0.0635
 70
0
  0
VERTEX
  8
25
 10
53.0568
 20
48.7863
 30
0.0000
 42
1.0000
  0
VERTEX
  8
25
 10
53.0119
 20
48.8312
 30
0.0000
  0
SEQEND
  8
0
  0
POLYLINE
  8
25
 66
1
 10
0.0000
 20
0.0000
 30
0.0000
 40
0.1270
 41
0.1270
 70
0
  0
VERTEX
  8
25
 10
52.8437
 20
48.6181
 30
0.0000
  0
VERTEX
  8
25
 10
52.8437
 20
48.2368
 30
0.0000
  0
SEQEND
  8
0
  0
POLYLINE
  8
25
 66
1
 10
0.0000
 20
0.0000
 30
0.0000
 40
0.0635
 41
0.0635
 70
0
  0
VERTEX
  8
25
 10
52.8120
 20
48.2368
 30
0.0000
 42
1.0000
  0
VERTEX
  8
25
 10
52.8755
 20
48.2368
 30
0.0000
  0
SEQEND
  8
0
  0
POLYLINE
  8
25
 66
1
 10
0.0000
 20
0.0000
 30
0.0000
 40
0.0635
 41
0.0635
 70
0
  0
VERTEX
  8
25
 10
52.8755
 20
48.6181
 30
0.0000
 42
1.0000
  0
VERTEX
  8
25
 10
52.8120
 20
48.6181
 30
0.0000
  0
SEQEND
  8
0
  0
POLYLINE
  8
25
 66
1
 10
0.0000
 20
0.0000
 30
0.0000
 40
0.1270
 41
0.1270
 70
0
  0
VERTEX
  8
25
 10
52.8437
 20
48.2368
 30
0.0000
  0
VERTEX
  8
25
 10
53.0344
 20
48.0461
 30
0.0000
  0
SEQEND
  8
0
  0
POLYLINE
  8
25
 66
1
 10
0.0000
 20
0.0000
 30
0.0000
 40
0.0635
 41
0.0635
 70
0
  0
VERTEX
  8
25
 10
53.0119
 20
48.0236
 30
0.0000
 42
1.0000
  0
VERTEX
  8
25
 10
53.0568
 20
48.0685
 30
0.0000
  0
SEQEND
  8
0
  0
POLYLINE
  8
25
 66
1
 10
0.0000
 20
0.0000
 30
0.0000
 40
0.0635
 41
0.0635
 70
0
  0
VERTEX
  8
25
 10
52.8662
 20
48.2592
 30
0.0000
 42
1.0000
  0
VERTEX
  8
25
 10
52.8213
 20
48.2143
 30
0.0000
  0
SEQEND
  8
0
  0
INSERT
  8
51
  2
RECT
 10
55.8800
 20
49.5300
 30
0.0000
 41
0.5080
 42
0.5080
 43
1.0000
 50
90.0000
  0
INSERT
  8
51
  2
RECT
 10
55.8800
 20
46.9900
 30
0.0000
 41
0.5080
 42
0.5080
 43
1.0000
 50
90.0000
  0
INSERT
  8
51
  2
RECT
 10
55.8800
 20
52.0700
 30
0.0000
 41
0.5080
 42
0.5080
 43
1.0000
 50
90.0000
  0
INSERT
  8
17
  2
LONGP100
 10
55.8800
 20
46.9900
 30
0.0000
 41
1.5240
 42
1.5240
 43
1.0000
 50
180.0000
  0
INSERT
  8
17
  2
LONGP100
 10
55.8800
 20
46.9900
 30
0.0000
 41
1.5240
 42
1.5240
 43
1.0000
 50
180.0000
  0
INSERT
  8
17
  2
LONGP100
 10
55.8800
 20
49.5300
 30
0.0000
 41
1.5240
 42
1.5240
 43
1.0000
 50
180.0000
  0
INSERT
  8
17
  2
LONGP100
 10
55.8800
 20
49.5300
 30
0.0000
 41
1.5240
 42
1.5240
 43
1.0000
 50
180.0000
  0
INSERT
  8
17
  2
LONGP100
 10
55.8800
 20
52.0700
 30
0.0000
 41
1.5240
 42
1.5240
 43
1.0000
 50
180.0000
  0
INSERT
  8
17
  2
LONGP100
 10
55.8800
 20
52.0700
 30
0.0000
 41
1.5240
 42
1.5240
 43
1.0000
 50
180.0000
  0
POINT
  8
23
 10
45.7200
 20
43.1800
 30
0.0000
  0
POLYLINE
  8
51
 66
1
 10
0.0000
 20
0.0000
 30
0.0000
 40
0.5080
 41
0.5080
 70
0
  0
VERTEX
  8
51
 10
43.1800
 20
43.1800
 30
0.0000
  0
VERTEX
  8
51
 10
43.6880
 20
43.1800
 30
0.0000
  0
SEQEND
  8
0
  0
POLYLINE
  8
51
 66
1
 10
0.0000
 20
0.0000
 30
0.0000
 40
0.2540
 41
0.2540
 70
0
  0
VERTEX
  8
51
 10
43.6880
 20
43.0530
 30
0.0000
 42
1.0000
  0
VERTEX
  8
51
 10
43.6880
 20
43.3070
 30
0.0000
  0
SEQEND
  8
0
  0
POLYLINE
  8
51
 66
1
 10
0.0000
 20
0.0000
 30
0.0000
 40
0.2540
 41
0.2540
 70
0
  0
VERTEX
  8
51
 10
43.1800
 20
43.3070
 30
0.0000
 42
1.0000
  0
VERTEX
  8
51
 10
43.1800
 20
43.0530
 30
0.0000
  0
SEQEND
  8
0
  0
POLYLINE
  8
51
 66
1
 10
0.0000
 20
0.0000
 30
0.0000
 40
0.5080
 41
0.5080
 70
0
  0
VERTEX
  8
51
 10
48.2600
 20
43.1800
 30
0.0000
  0
VERTEX
  8
51
 10
47.7520
 20
43.1800
 30
0.0000
  0
SEQEND
  8
0
  0
POLYLINE
  8
51
 66
1
 10
0.0000
 20
0.0000
 30
0.0000
 40
0.2540
 41
0.2540
 70
0
  0
VERTEX
  8
51
 10
47.7520
 20
43.3070
 30
0.0000
 42
1.0000
  0
VERTEX
  8
51
 10
47.7520
 20
43.0530
 30
0.0000
  0
SEQEND
  8
0
  0
POLYLINE
  8
51
 66
1
 10
0.0000
 20
0.0000
 30
0.0000
 40
0.2540
 41
0.2540
 70
0
  0
VERTEX
  8
51
 10
48.2600
 20
43.0530
 30
0.0000
 42
1.0000
  0
VERTEX
  8
51
 10
48.2600
 20
43.3070
 30
0.0000
  0
SEQEND
  8
0
  0
POLYLINE
  8
21
 66
1
 10
0.0000
 20
0.0000
 30
0.0000
 40
0.1524
 41
0.1524
 70
0
  0
VERTEX
  8
21
 10
47.2440
 20
42.2910
 30
0.0000
 42
0.4142
  0
VERTEX
  8
21
 10
47.4980
 20
42.5450
 30
0.0000
  0
SEQEND
  8
0
  0
POLYLINE
  8
21
 66
1
 10
0.0000
 20
0.0000
 30
0.0000
 40
0.0762
 41
0.0762
 70
0
  0
VERTEX
  8
21
 10
47.2440
 20
42.3291
 30
0.0000
 42
1.0000
  0
VERTEX
  8
21
 10
47.2440
 20
42.2529
 30
0.0000
  0
SEQEND
  8
0
  0
POLYLINE
  8
21
 66
1
 10
0.0000
 20
0.0000
 30
0.0000
 40
0.0762
 41
0.0762
 70
0
  0
VERTEX
  8
21
 10
47.5361
 20
42.5450
 30
0.0000
 42
1.0000
  0
VERTEX
  8
21
 10
47.4599
 20
42.5450
 30
0.0000
  0
SEQEND
  8
0
  0
POLYLINE
  8
21
 66
1
 10
0.0000
 20
0.0000
 30
0.0000
 40
0.1524
 41
0.1524
 70
0
  0
VERTEX
  8
21
 10
47.4980
 20
43.8150
 30
0.0000
 42
0.4142
  0
VERTEX
  8
21
 10
47.2440
 20
44.0690
 30
0.0000
  0
SEQEND
  8
0
  0
POLYLINE
  8
21
 66
1
 10
0.0000
 20
0.0000
 30
0.0000
 40
0.0762
 41
0.0762
 70
0
  0
VERTEX
  8
21
 10
47.4599
 20
43.8150
 30
0.0000
 42
1.0000
  0
VERTEX
  8
21
 10
47.5361
 20
43.8150
 30
0.0000
  0
SEQEND
  8
0
  0
POLYLINE
  8
21
 66
1
 10
0.0000
 20
0.0000
 30
0.0000
 40
0.0762
 41
0.0762
 70
0
  0
VERTEX
  8
21
 10
47.2440
 20
44.1071
 30
0.0000
 42
1.0000
  0
VERTEX
  8
21
 10
47.2440
 20
44.0309
 30
0.0000
  0
SEQEND
  8
0
  0
POLYLINE
  8
21
 66
1
 10
0.0000
 20
0.0000
 30
0.0000
 40
0.1524
 41
0.1524
 70
0
  0
VERTEX
  8
21
 10
44.1960
 20
44.0690
 30
0.0000
 42
0.4142
  0
VERTEX
  8
21
 10
43.9420
 20
43.8150
 30
0.0000
  0
SEQEND
  8
0
  0
POLYLINE
  8
21
 66
1
 10
0.0000
 20
0.0000
 30
0.0000
 40
0.0762
 41
0.0762
 70
0
  0
VERTEX
  8
21
 10
44.1960
 20
44.0309
 30
0.0000
 42
1.0000
  0
VERTEX
  8
21
 10
44.1960
 20
44.1071
 30
0.0000
  0
SEQEND
  8
0
  0
POLYLINE
  8
21
 66
1
 10
0.0000
 20
0.0000
 30
0.0000
 40
0.0762
 41
0.0762
 70
0
  0
VERTEX
  8
21
 10
43.9039
 20
43.8150
 30
0.0000
 42
1.0000
  0
VERTEX
  8
21
 10
43.9801
 20
43.8150
 30
0.0000
  0
SEQEND
  8
0
  0
POLYLINE
  8
21
 66
1
 10
0.0000
 20
0.0000
 30
0.0000
 40
0.1524
 41
0.1524
 70
0
  0
VERTEX
  8
21
 10
43.9420
 20
42.5450
 30
0.0000
 42
0.4142
  0
VERTEX
  8
21
 10
44.1960
 20
42.2910
 30
0.0000
  0
SEQEND
  8
0
  0
POLYLINE
  8
21
 66
1
 10
0.0000
 20
0.0000
 30
0.0000
 40
0.0762
 41
0.0762
 70
0
  0
VERTEX
  8
21
 10
43.9801
 20
42.5450
 30
0.0000
 42
1.0000
  0
VERTEX
  8
21
 10
43.9039
 20
42.5450
 30
0.0000
  0
SEQEND
  8
0
  0
POLYLINE
  8
21
 66
1
 10
0.0000
 20
0.0000
 30
0.0000
 40
0.0762
 41
0.0762
 70
0
  0
VERTEX
  8
21
 10
44.1960
 20
42.2529
 30
0.0000
 42
1.0000
  0
VERTEX
  8
21
 10
44.1960
 20
42.3291
 30
0.0000
  0
SEQEND
  8
0
  0
POLYLINE
  8
51
 66
1
 10
0.0000
 20
0.0000
 30
0.0000
 40
0.1524
 41
0.1524
 70
0
  0
VERTEX
  8
51
 10
47.4980
 20
43.8150
 30
0.0000
  0
VERTEX
  8
51
 10
47.4980
 20
42.5450
 30
0.0000
  0
SEQEND
  8
0
  0
POLYLINE
  8
51
 66
1
 10
0.0000
 20
0.0000
 30
0.0000
 40
0.0762
 41
0.0762
 70
0
  0
VERTEX
  8
51
 10
47.4599
 20
42.5450
 30
0.0000
 42
1.0000
  0
VERTEX
  8
51
 10
47.5361
 20
42.5450
 30
0.0000
  0
SEQEND
  8
0
  0
POLYLINE
  8
51
 66
1
 10
0.0000
 20
0.0000
 30
0.0000
 40
0.0762
 41
0.0762
 70
0
  0
VERTEX
  8
51
 10
47.5361
 20
43.8150
 30
0.0000
 42
1.0000
  0
VERTEX
  8
51
 10
47.4599
 20
43.8150
 30
0.0000
  0
SEQEND
  8
0
  0
POLYLINE
  8
21
 66
1
 10
0.0000
 20
0.0000
 30
0.0000
 40
0.1524
 41
0.1524
 70
0
  0
VERTEX
  8
21
 10
47.2440
 20
42.2910
 30
0.0000
  0
VERTEX
  8
21
 10
46.9900
 20
42.2910
 30
0.0000
  0
SEQEND
  8
0
  0
POLYLINE
  8
21
 66
1
 10
0.0000
 20
0.0000
 30
0.0000
 40
0.0762
 41
0.0762
 70
0
  0
VERTEX
  8
21
 10
46.9900
 20
42.3291
 30
0.0000
 42
1.0000
  0
VERTEX
  8
21
 10
46.9900
 20
42.2529
 30
0.0000
  0
SEQEND
  8
0
  0
POLYLINE
  8
21
 66
1
 10
0.0000
 20
0.0000
 30
0.0000
 40
0.0762
 41
0.0762
 70
0
  0
VERTEX
  8
21
 10
47.2440
 20
42.2529
 30
0.0000
 42
1.0000
  0
VERTEX
  8
21
 10
47.2440
 20
42.3291
 30
0.0000
  0
SEQEND
  8
0
  0
POLYLINE
  8
21
 66
1
 10
0.0000
 20
0.0000
 30
0.0000
 40
0.1524
 41
0.1524
 70
0
  0
VERTEX
  8
21
 10
46.8630
 20
42.4180
 30
0.0000
  0
VERTEX
  8
21
 10
46.9900
 20
42.2910
 30
0.0000
  0
SEQEND
  8
0
  0
POLYLINE
  8
21
 66
1
 10
0.0000
 20
0.0000
 30
0.0000
 40
0.0762
 41
0.0762
 70
0
  0
VERTEX
  8
21
 10
46.9631
 20
42.2641
 30
0.0000
 42
1.0000
  0
VERTEX
  8
21
 10
47.0169
 20
42.3179
 30
0.0000
  0
SEQEND
  8
0
  0
POLYLINE
  8
21
 66
1
 10
0.0000
 20
0.0000
 30
0.0000
 40
0.0762
 41
0.0762
 70
0
  0
VERTEX
  8
21
 10
46.8899
 20
42.4449
 30
0.0000
 42
1.0000
  0
VERTEX
  8
21
 10
46.8361
 20
42.3911
 30
0.0000
  0
SEQEND
  8
0
  0
POLYLINE
  8
21
 66
1
 10
0.0000
 20
0.0000
 30
0.0000
 40
0.1524
 41
0.1524
 70
0
  0
VERTEX
  8
21
 10
47.2440
 20
44.0690
 30
0.0000
  0
VERTEX
  8
21
 10
46.9900
 20
44.0690
 30
0.0000
  0
SEQEND
  8
0
  0
POLYLINE
  8
21
 66
1
 10
0.0000
 20
0.0000
 30
0.0000
 40
0.0762
 41
0.0762
 70
0
  0
VERTEX
  8
21
 10
46.9900
 20
44.1071
 30
0.0000
 42
1.0000
  0
VERTEX
  8
21
 10
46.9900
 20
44.0309
 30
0.0000
  0
SEQEND
  8
0
  0
POLYLINE
  8
21
 66
1
 10
0.0000
 20
0.0000
 30
0.0000
 40
0.0762
 41
0.0762
 70
0
  0
VERTEX
  8
21
 10
47.2440
 20
44.0309
 30
0.0000
 42
1.0000
  0
VERTEX
  8
21
 10
47.2440
 20
44.1071
 30
0.0000
  0
SEQEND
  8
0
  0
POLYLINE
  8
21
 66
1
 10
0.0000
 20
0.0000
 30
0.0000
 40
0.1524
 41
0.1524
 70
0
  0
VERTEX
  8
21
 10
46.8630
 20
43.9420
 30
0.0000
  0
VERTEX
  8
21
 10
46.9900
 20
44.0690
 30
0.0000
  0
SEQEND
  8
0
  0
POLYLINE
  8
21
 66
1
 10
0.0000
 20
0.0000
 30
0.0000
 40
0.0762
 41
0.0762
 70
0
  0
VERTEX
  8
21
 10
47.0169
 20
44.0421
 30
0.0000
 42
1.0000
  0
VERTEX
  8
21
 10
46.9631
 20
44.0959
 30
0.0000
  0
SEQEND
  8
0
  0
POLYLINE
  8
21
 66
1
 10
0.0000
 20
0.0000
 30
0.0000
 40
0.0762
 41
0.0762
 70
0
  0
VERTEX
  8
21
 10
46.8361
 20
43.9689
 30
0.0000
 42
1.0000
  0
VERTEX
  8
21
 10
46.8899
 20
43.9151
 30
0.0000
  0
SEQEND
  8
0
  0
POLYLINE
  8
21
 66
1
 10
0.0000
 20
0.0000
 30
0.0000
 40
0.1524
 41
0.1524
 70
0
  0
VERTEX
  8
21
 10
44.5770
 20
42.4180
 30
0.0000
  0
VERTEX
  8
21
 10
44.4500
 20
42.2910
 30
0.0000
  0
SEQEND
  8
0
  0
POLYLINE
  8
21
 66
1
 10
0.0000
 20
0.0000
 30
0.0000
 40
0.0762
 41
0.0762
 70
0
  0
VERTEX
  8
21
 10
44.4231
 20
42.3179
 30
0.0000
 42
1.0000
  0
VERTEX
  8
21
 10
44.4769
 20
42.2641
 30
0.0000
  0
SEQEND
  8
0
  0
POLYLINE
  8
21
 66
1
 10
0.0000
 20
0.0000
 30
0.0000
 40
0.0762
 41
0.0762
 70
0
  0
VERTEX
  8
21
 10
44.6039
 20
42.3911
 30
0.0000
 42
1.0000
  0
VERTEX
  8
21
 10
44.5501
 20
42.4449
 30
0.0000
  0
SEQEND
  8
0
  0
POLYLINE
  8
21
 66
1
 10
0.0000
 20
0.0000
 30
0.0000
 40
0.1524
 41
0.1524
 70
0
  0
VERTEX
  8
21
 10
44.5770
 20
42.4180
 30
0.0000
  0
VERTEX
  8
21
 10
46.8630
 20
42.4180
 30
0.0000
  0
SEQEND
  8
0
  0
POLYLINE
  8
21
 66
1
 10
0.0000
 20
0.0000
 30
0.0000
 40
0.0762
 41
0.0762
 70
0
  0
VERTEX
  8
21
 10
46.8630
 20
42.3799
 30
0.0000
 42
1.0000
  0
VERTEX
  8
21
 10
46.8630
 20
42.4561
 30
0.0000
  0
SEQEND
  8
0
  0
POLYLINE
  8
21
 66
1
 10
0.0000
 20
0.0000
 30
0.0000
 40
0.0762
 41
0.0762
 70
0
  0
VERTEX
  8
21
 10
44.5770
 20
42.4561
 30
0.0000
 42
1.0000
  0
VERTEX
  8
21
 10
44.5770
 20
42.3799
 30
0.0000
  0
SEQEND
  8
0
  0
POLYLINE
  8
21
 66
1
 10
0.0000
 20
0.0000
 30
0.0000
 40
0.1524
 41
0.1524
 70
0
  0
VERTEX
  8
21
 10
44.5770
 20
43.9420
 30
0.0000
  0
VERTEX
  8
21
 10
44.4500
 20
44.0690
 30
0.0000
  0
SEQEND
  8
0
  0
POLYLINE
  8
21
 66
1
 10
0.0000
 20
0.0000
 30
0.0000
 40
0.0762
 41
0.0762
 70
0
  0
VERTEX
  8
21
 10
44.4769
 20
44.0959
 30
0.0000
 42
1.0000
  0
VERTEX
  8
21
 10
44.4231
 20
44.0421
 30
0.0000
  0
SEQEND
  8
0
  0
POLYLINE
  8
21
 66
1
 10
0.0000
 20
0.0000
 30
0.0000
 40
0.0762
 41
0.0762
 70
0
  0
VERTEX
  8
21
 10
44.5501
 20
43.9151
 30
0.0000
 42
1.0000
  0
VERTEX
  8
21
 10
44.6039
 20
43.9689
 30
0.0000
  0
SEQEND
  8
0
  0
POLYLINE
  8
21
 66
1
 10
0.0000
 20
0.0000
 30
0.0000
 40
0.1524
 41
0.1524
 70
0
  0
VERTEX
  8
21
 10
44.5770
 20
43.9420
 30
0.0000
  0
VERTEX
  8
21
 10
46.8630
 20
43.9420
 30
0.0000
  0
SEQEND
  8
0
  0
POLYLINE
  8
21
 66
1
 10
0.0000
 20
0.0000
 30
0.0000
 40
0.0762
 41
0.0762
 70
0
  0
VERTEX
  8
21
 10
46.8630
 20
43.9039
 30
0.0000
 42
1.0000
  0
VERTEX
  8
21
 10
46.8630
 20
43.9801
 30
0.0000
  0
SEQEND
  8
0
  0
POLYLINE
  8
21
 66
1
 10
0.0000
 20
0.0000
 30
0.0000
 40
0.0762
 41
0.0762
 70
0
  0
VERTEX
  8
21
 10
44.5770
 20
43.9801
 30
0.0000
 42
1.0000
  0
VERTEX
  8
21
 10
44.5770
 20
43.9039
 30
0.0000
  0
SEQEND
  8
0
  0
POLYLINE
  8
21
 66
1
 10
0.0000
 20
0.0000
 30
0.0000
 40
0.1524
 41
0.1524
 70
0
  0
VERTEX
  8
21
 10
44.1960
 20
42.2910
 30
0.0000
  0
VERTEX
  8
21
 10
44.4500
 20
42.2910
 30
0.0000
  0
SEQEND
  8
0
  0
POLYLINE
  8
21
 66
1
 10
0.0000
 20
0.0000
 30
0.0000
 40
0.0762
 41
0.0762
 70
0
  0
VERTEX
  8
21
 10
44.4500
 20
42.2529
 30
0.0000
 42
1.0000
  0
VERTEX
  8
21
 10
44.4500
 20
42.3291
 30
0.0000
  0
SEQEND
  8
0
  0
POLYLINE
  8
21
 66
1
 10
0.0000
 20
0.0000
 30
0.0000
 40
0.0762
 41
0.0762
 70
0
  0
VERTEX
  8
21
 10
44.1960
 20
42.3291
 30
0.0000
 42
1.0000
  0
VERTEX
  8
21
 10
44.1960
 20
42.2529
 30
0.0000
  0
SEQEND
  8
0
  0
POLYLINE
  8
21
 66
1
 10
0.0000
 20
0.0000
 30
0.0000
 40
0.1524
 41
0.1524
 70
0
  0
VERTEX
  8
21
 10
44.1960
 20
44.0690
 30
0.0000
  0
VERTEX
  8
21
 10
44.4500
 20
44.0690
 30
0.0000
  0
SEQEND
  8
0
  0
POLYLINE
  8
21
 66
1
 10
0.0000
 20
0.0000
 30
0.0000
 40
0.0762
 41
0.0762
 70
0
  0
VERTEX
  8
21
 10
44.4500
 20
44.0309
 30
0.0000
 42
1.0000
  0
VERTEX
  8
21
 10
44.4500
 20
44.1071
 30
0.0000
  0
SEQEND
  8
0
  0
POLYLINE
  8
21
 66
1
 10
0.0000
 20
0.0000
 30
0.0000
 40
0.0762
 41
0.0762
 70
0
  0
VERTEX
  8
21
 10
44.1960
 20
44.1071
 30
0.0000
 42
1.0000
  0
VERTEX
  8
21
 10
44.1960
 20
44.0309
 30
0.0000
  0
SEQEND
  8
0
  0
POLYLINE
  8
51
 66
1
 10
0.0000
 20
0.0000
 30
0.0000
 40
0.1524
 41
0.1524
 70
0
  0
VERTEX
  8
51
 10
43.9420
 20
43.8150
 30
0.0000
  0
VERTEX
  8
51
 10
43.9420
 20
42.5450
 30
0.0000
  0
SEQEND
  8
0
  0
POLYLINE
  8
51
 66
1
 10
0.0000
 20
0.0000
 30
0.0000
 40
0.0762
 41
0.0762
 70
0
  0
VERTEX
  8
51
 10
43.9039
 20
42.5450
 30
0.0000
 42
1.0000
  0
VERTEX
  8
51
 10
43.9801
 20
42.5450
 30
0.0000
  0
SEQEND
  8
0
  0
POLYLINE
  8
51
 66
1
 10
0.0000
 20
0.0000
 30
0.0000
 40
0.0762
 41
0.0762
 70
0
  0
VERTEX
  8
51
 10
43.9801
 20
43.8150
 30
0.0000
 42
1.0000
  0
VERTEX
  8
51
 10
43.9039
 20
43.8150
 30
0.0000
  0
SEQEND
  8
0
  0
POLYLINE
  8
25
 66
1
 10
0.0000
 20
0.0000
 30
0.0000
 40
0.1016
 41
0.1016
 70
0
  0
VERTEX
  8
25
 10
45.9531
 20
41.0718
 30
0.0000
  0
VERTEX
  8
25
 10
45.9531
 20
41.9616
 30
0.0000
  0
SEQEND
  8
0
  0
POLYLINE
  8
25
 66
1
 10
0.0000
 20
0.0000
 30
0.0000
 40
0.0508
 41
0.0508
 70
0
  0
VERTEX
  8
25
 10
45.9785
 20
41.9616
 30
0.0000
 42
1.0000
  0
VERTEX
  8
25
 10
45.9277
 20
41.9616
 30
0.0000
  0
SEQEND
  8
0
  0
POLYLINE
  8
25
 66
1
 10
0.0000
 20
0.0000
 30
0.0000
 40
0.0508
 41
0.0508
 70
0
  0
VERTEX
  8
25
 10
45.9277
 20
41.0718
 30
0.0000
 42
1.0000
  0
VERTEX
  8
25
 10
45.9785
 20
41.0718
 30
0.0000
  0
SEQEND
  8
0
  0
POLYLINE
  8
25
 66
1
 10
0.0000
 20
0.0000
 30
0.0000
 40
0.1016
 41
0.1016
 70
0
  0
VERTEX
  8
25
 10
45.9531
 20
41.9616
 30
0.0000
  0
VERTEX
  8
25
 10
46.3980
 20
41.9616
 30
0.0000
  0
SEQEND
  8
0
  0
POLYLINE
  8
25
 66
1
 10
0.0000
 20
0.0000
 30
0.0000
 40
0.0508
 41
0.0508
 70
0
  0
VERTEX
  8
25
 10
46.3980
 20
41.9362
 30
0.0000
 42
1.0000
  0
VERTEX
  8
25
 10
46.3980
 20
41.9870
 30
0.0000
  0
SEQEND
  8
0
  0
POLYLINE
  8
25
 66
1
 10
0.0000
 20
0.0000
 30
0.0000
 40
0.0508
 41
0.0508
 70
0
  0
VERTEX
  8
25
 10
45.9531
 20
41.9870
 30
0.0000
 42
1.0000
  0
VERTEX
  8
25
 10
45.9531
 20
41.9362
 30
0.0000
  0
SEQEND
  8
0
  0
POLYLINE
  8
25
 66
1
 10
0.0000
 20
0.0000
 30
0.0000
 40
0.1016
 41
0.1016
 70
0
  0
VERTEX
  8
25
 10
46.3980
 20
41.9616
 30
0.0000
  0
VERTEX
  8
25
 10
46.5463
 20
41.8133
 30
0.0000
  0
SEQEND
  8
0
  0
POLYLINE
  8
25
 66
1
 10
0.0000
 20
0.0000
 30
0.0000
 40
0.0508
 41
0.0508
 70
0
  0
VERTEX
  8
25
 10
46.5283
 20
41.7953
 30
0.0000
 42
1.0000
  0
VERTEX
  8
25
 10
46.5643
 20
41.8312
 30
0.0000
  0
SEQEND
  8
0
  0
POLYLINE
  8
25
 66
1
 10
0.0000
 20
0.0000
 30
0.0000
 40
0.0508
 41
0.0508
 70
0
  0
VERTEX
  8
25
 10
46.4160
 20
41.9795
 30
0.0000
 42
1.0000
  0
VERTEX
  8
25
 10
46.3801
 20
41.9436
 30
0.0000
  0
SEQEND
  8
0
  0
POLYLINE
  8
25
 66
1
 10
0.0000
 20
0.0000
 30
0.0000
 40
0.1016
 41
0.1016
 70
0
  0
VERTEX
  8
25
 10
46.5463
 20
41.8133
 30
0.0000
  0
VERTEX
  8
25
 10
46.5463
 20
41.5167
 30
0.0000
  0
SEQEND
  8
0
  0
POLYLINE
  8
25
 66
1
 10
0.0000
 20
0.0000
 30
0.0000
 40
0.0508
 41
0.0508
 70
0
  0
VERTEX
  8
25
 10
46.5209
 20
41.5167
 30
0.0000
 42
1.0000
  0
VERTEX
  8
25
 10
46.5717
 20
41.5167
 30
0.0000
  0
SEQEND
  8
0
  0
POLYLINE
  8
25
 66
1
 10
0.0000
 20
0.0000
 30
0.0000
 40
0.0508
 41
0.0508
 70
0
  0
VERTEX
  8
25
 10
46.5717
 20
41.8133
 30
0.0000
 42
1.0000
  0
VERTEX
  8
25
 10
46.5209
 20
41.8133
 30
0.0000
  0
SEQEND
  8
0
  0
POLYLINE
  8
25
 66
1
 10
0.0000
 20
0.0000
 30
0.0000
 40
0.1016
 41
0.1016
 70
0
  0
VERTEX
  8
25
 10
46.5463
 20
41.5167
 30
0.0000
  0
VERTEX
  8
25
 10
46.3980
 20
41.3684
 30
0.0000
  0
SEQEND
  8
0
  0
POLYLINE
  8
25
 66
1
 10
0.0000
 20
0.0000
 30
0.0000
 40
0.0508
 41
0.0508
 70
0
  0
VERTEX
  8
25
 10
46.3801
 20
41.3863
 30
0.0000
 42
1.0000
  0
VERTEX
  8
25
 10
46.4160
 20
41.3504
 30
0.0000
  0
SEQEND
  8
0
  0
POLYLINE
  8
25
 66
1
 10
0.0000
 20
0.0000
 30
0.0000
 40
0.0508
 41
0.0508
 70
0
  0
VERTEX
  8
25
 10
46.5643
 20
41.4987
 30
0.0000
 42
1.0000
  0
VERTEX
  8
25
 10
46.5283
 20
41.5346
 30
0.0000
  0
SEQEND
  8
0
  0
POLYLINE
  8
25
 66
1
 10
0.0000
 20
0.0000
 30
0.0000
 40
0.1016
 41
0.1016
 70
0
  0
VERTEX
  8
25
 10
46.3980
 20
41.3684
 30
0.0000
  0
VERTEX
  8
25
 10
45.9531
 20
41.3684
 30
0.0000
  0
SEQEND
  8
0
  0
POLYLINE
  8
25
 66
1
 10
0.0000
 20
0.0000
 30
0.0000
 40
0.0508
 41
0.0508
 70
0
  0
VERTEX
  8
25
 10
45.9531
 20
41.3938
 30
0.0000
 42
1.0000
  0
VERTEX
  8
25
 10
45.9531
 20
41.3430
 30
0.0000
  0
SEQEND
  8
0
  0
POLYLINE
  8
25
 66
1
 10
0.0000
 20
0.0000
 30
0.0000
 40
0.0508
 41
0.0508
 70
0
  0
VERTEX
  8
25
 10
46.3980
 20
41.3430
 30
0.0000
 42
1.0000
  0
VERTEX
  8
25
 10
46.3980
 20
41.3938
 30
0.0000
  0
SEQEND
  8
0
  0
POLYLINE
  8
25
 66
1
 10
0.0000
 20
0.0000
 30
0.0000
 40
0.1016
 41
0.1016
 70
0
  0
VERTEX
  8
25
 10
46.2497
 20
41.3684
 30
0.0000
  0
VERTEX
  8
25
 10
46.5463
 20
41.0718
 30
0.0000
  0
SEQEND
  8
0
  0
POLYLINE
  8
25
 66
1
 10
0.0000
 20
0.0000
 30
0.0000
 40
0.0508
 41
0.0508
 70
0
  0
VERTEX
  8
25
 10
46.5283
 20
41.0538
 30
0.0000
 42
1.0000
  0
VERTEX
  8
25
 10
46.5643
 20
41.0898
 30
0.0000
  0
SEQEND
  8
0
  0
POLYLINE
  8
25
 66
1
 10
0.0000
 20
0.0000
 30
0.0000
 40
0.0508
 41
0.0508
 70
0
  0
VERTEX
  8
25
 10
46.2677
 20
41.3863
 30
0.0000
 42
1.0000
  0
VERTEX
  8
25
 10
46.2318
 20
41.3504
 30
0.0000
  0
SEQEND
  8
0
  0
POLYLINE
  8
25
 66
1
 10
0.0000
 20
0.0000
 30
0.0000
 40
0.1016
 41
0.1016
 70
0
  0
VERTEX
  8
25
 10
47.4584
 20
41.0718
 30
0.0000
  0
VERTEX
  8
25
 10
46.8653
 20
41.0718
 30
0.0000
  0
SEQEND
  8
0
  0
POLYLINE
  8
25
 66
1
 10
0.0000
 20
0.0000
 30
0.0000
 40
0.0508
 41
0.0508
 70
0
  0
VERTEX
  8
25
 10
46.8653
 20
41.0972
 30
0.0000
 42
1.0000
  0
VERTEX
  8
25
 10
46.8653
 20
41.0464
 30
0.0000
  0
SEQEND
  8
0
  0
POLYLINE
  8
25
 66
1
 10
0.0000
 20
0.0000
 30
0.0000
 40
0.0508
 41
0.0508
 70
0
  0
VERTEX
  8
25
 10
47.4584
 20
41.0464
 30
0.0000
 42
1.0000
  0
VERTEX
  8
25
 10
47.4584
 20
41.0972
 30
0.0000
  0
SEQEND
  8
0
  0
POLYLINE
  8
25
 66
1
 10
0.0000
 20
0.0000
 30
0.0000
 40
0.1016
 41
0.1016
 70
0
  0
VERTEX
  8
25
 10
46.8653
 20
41.0718
 30
0.0000
  0
VERTEX
  8
25
 10
47.4584
 20
41.6650
 30
0.0000
  0
SEQEND
  8
0
  0
POLYLINE
  8
25
 66
1
 10
0.0000
 20
0.0000
 30
0.0000
 40
0.0508
 41
0.0508
 70
0
  0
VERTEX
  8
25
 10
47.4764
 20
41.6470
 30
0.0000
 42
1.0000
  0
VERTEX
  8
25
 10
47.4405
 20
41.6829
 30
0.0000
  0
SEQEND
  8
0
  0
POLYLINE
  8
25
 66
1
 10
0.0000
 20
0.0000
 30
0.0000
 40
0.0508
 41
0.0508
 70
0
  0
VERTEX
  8
25
 10
46.8473
 20
41.0898
 30
0.0000
 42
1.0000
  0
VERTEX
  8
25
 10
46.8832
 20
41.0538
 30
0.0000
  0
SEQEND
  8
0
  0
POLYLINE
  8
25
 66
1
 10
0.0000
 20
0.0000
 30
0.0000
 40
0.1016
 41
0.1016
 70
0
  0
VERTEX
  8
25
 10
47.4584
 20
41.6650
 30
0.0000
  0
VERTEX
  8
25
 10
47.4584
 20
41.8133
 30
0.0000
  0
SEQEND
  8
0
  0
POLYLINE
  8
25
 66
1
 10
0.0000
 20
0.0000
 30
0.0000
 40
0.0508
 41
0.0508
 70
0
  0
VERTEX
  8
25
 10
47.4838
 20
41.8133
 30
0.0000
 42
1.0000
  0
VERTEX
  8
25
 10
47.4330
 20
41.8133
 30
0.0000
  0
SEQEND
  8
0
  0
POLYLINE
  8
25
 66
1
 10
0.0000
 20
0.0000
 30
0.0000
 40
0.0508
 41
0.0508
 70
0
  0
VERTEX
  8
25
 10
47.4330
 20
41.6650
 30
0.0000
 42
1.0000
  0
VERTEX
  8
25
 10
47.4838
 20
41.6650
 30
0.0000
  0
SEQEND
  8
0
  0
POLYLINE
  8
25
 66
1
 10
0.0000
 20
0.0000
 30
0.0000
 40
0.1016
 41
0.1016
 70
0
  0
VERTEX
  8
25
 10
47.4584
 20
41.8133
 30
0.0000
  0
VERTEX
  8
25
 10
47.3101
 20
41.9616
 30
0.0000
  0
SEQEND
  8
0
  0
POLYLINE
  8
25
 66
1
 10
0.0000
 20
0.0000
 30
0.0000
 40
0.0508
 41
0.0508
 70
0
  0
VERTEX
  8
25
 10
47.3281
 20
41.9795
 30
0.0000
 42
1.0000
  0
VERTEX
  8
25
 10
47.2922
 20
41.9436
 30
0.0000
  0
SEQEND
  8
0
  0
POLYLINE
  8
25
 66
1
 10
0.0000
 20
0.0000
 30
0.0000
 40
0.0508
 41
0.0508
 70
0
  0
VERTEX
  8
25
 10
47.4405
 20
41.7953
 30
0.0000
 42
1.0000
  0
VERTEX
  8
25
 10
47.4764
 20
41.8312
 30
0.0000
  0
SEQEND
  8
0
  0
POLYLINE
  8
25
 66
1
 10
0.0000
 20
0.0000
 30
0.0000
 40
0.1016
 41
0.1016
 70
0
  0
VERTEX
  8
25
 10
47.3101
 20
41.9616
 30
0.0000
  0
VERTEX
  8
25
 10
47.0136
 20
41.9616
 30
0.0000
  0
SEQEND
  8
0
  0
POLYLINE
  8
25
 66
1
 10
0.0000
 20
0.0000
 30
0.0000
 40
0.0508
 41
0.0508
 70
0
  0
VERTEX
  8
25
 10
47.0136
 20
41.9870
 30
0.0000
 42
1.0000
  0
VERTEX
  8
25
 10
47.0136
 20
41.9362
 30
0.0000
  0
SEQEND
  8
0
  0
POLYLINE
  8
25
 66
1
 10
0.0000
 20
0.0000
 30
0.0000
 40
0.0508
 41
0.0508
 70
0
  0
VERTEX
  8
25
 10
47.3101
 20
41.9362
 30
0.0000
 42
1.0000
  0
VERTEX
  8
25
 10
47.3101
 20
41.9870
 30
0.0000
  0
SEQEND
  8
0
  0
POLYLINE
  8
25
 66
1
 10
0.0000
 20
0.0000
 30
0.0000
 40
0.1016
 41
0.1016
 70
0
  0
VERTEX
  8
25
 10
47.0136
 20
41.9616
 30
0.0000
  0
VERTEX
  8
25
 10
46.8653
 20
41.8133
 30
0.0000
  0
SEQEND
  8
0
  0
POLYLINE
  8
25
 66
1
 10
0.0000
 20
0.0000
 30
0.0000
 40
0.0508
 41
0.0508
 70
0
  0
VERTEX
  8
25
 10
46.8473
 20
41.8312
 30
0.0000
 42
1.0000
  0
VERTEX
  8
25
 10
46.8832
 20
41.7953
 30
0.0000
  0
SEQEND
  8
0
  0
POLYLINE
  8
25
 66
1
 10
0.0000
 20
0.0000
 30
0.0000
 40
0.0508
 41
0.0508
 70
0
  0
VERTEX
  8
25
 10
47.0315
 20
41.9436
 30
0.0000
 42
1.0000
  0
VERTEX
  8
25
 10
46.9956
 20
41.9795
 30
0.0000
  0
SEQEND
  8
0
  0
INSERT
  8
51
  2
RECT
 10
47.6250
 20
43.1800
 30
0.0000
 41
0.2540
 42
0.5080
 43
1.0000
 50
180.0000
  0
INSERT
  8
51
  2
RECT
 10
43.8150
 20
43.1800
 30
0.0000
 41
0.2540
 42
0.5080
 43
1.0000
 50
180.0000
  0
INSERT
  8
17
  2
OCTAGONP
 10
48.2600
 20
43.1800
 30
0.0000
 41
1.3208
 42
1.3208
 43
1.0000
 50
180.0000
  0
INSERT
  8
17
  2
OCTAGONP
 10
48.2600
 20
43.1800
 30
0.0000
 41
1.3208
 42
1.3208
 43
1.0000
 50
180.0000
  0
INSERT
  8
17
  2
OCTAGONP
 10
43.1800
 20
43.1800
 30
0.0000
 41
1.3208
 42
1.3208
 43
1.0000
 50
180.0000
  0
INSERT
  8
17
  2
OCTAGONP
 10
43.1800
 20
43.1800
 30
0.0000
 41
1.3208
 42
1.3208
 43
1.0000
 50
180.0000
  0
POINT
  8
23
 10
40.6400
 20
45.7200
 30
0.0000
  0
POLYLINE
  8
21
 66
1
 10
0.0000
 20
0.0000
 30
0.0000
 40
0.1270
 41
0.1270
 70
0
  0
VERTEX
  8
21
 10
39.1400
 20
54.2200
 30
0.0000
  0
VERTEX
  8
21
 10
52.6400
 20
54.2200
 30
0.0000
  0
SEQEND
  8
0
  0
POLYLINE
  8
21
 66
1
 10
0.0000
 20
0.0000
 30
0.0000
 40
0.0635
 41
0.0635
 70
0
  0
VERTEX
  8
21
 10
52.6400
 20
54.1883
 30
0.0000
 42
1.0000
  0
VERTEX
  8
21
 10
52.6400
 20
54.2518
 30
0.0000
  0
SEQEND
  8
0
  0
POLYLINE
  8
21
 66
1
 10
0.0000
 20
0.0000
 30
0.0000
 40
0.0635
 41
0.0635
 70
0
  0
VERTEX
  8
21
 10
39.1400
 20
54.2518
 30
0.0000
 42
1.0000
  0
VERTEX
  8
21
 10
39.1400
 20
54.1883
 30
0.0000
  0
SEQEND
  8
0
  0
POLYLINE
  8
21
 66
1
 10
0.0000
 20
0.0000
 30
0.0000
 40
0.1270
 41
0.1270
 70
0
  0
VERTEX
  8
21
 10
52.6400
 20
54.2200
 30
0.0000
  0
VERTEX
  8
21
 10
52.6400
 20
45.2200
 30
0.0000
  0
SEQEND
  8
0
  0
POLYLINE
  8
21
 66
1
 10
0.0000
 20
0.0000
 30
0.0000
 40
0.0635
 41
0.0635
 70
0
  0
VERTEX
  8
21
 10
52.6082
 20
45.2200
 30
0.0000
 42
1.0000
  0
VERTEX
  8
21
 10
52.6718
 20
45.2200
 30
0.0000
  0
SEQEND
  8
0
  0
POLYLINE
  8
21
 66
1
 10
0.0000
 20
0.0000
 30
0.0000
 40
0.0635
 41
0.0635
 70
0
  0
VERTEX
  8
21
 10
52.6718
 20
54.2200
 30
0.0000
 42
1.0000
  0
VERTEX
  8
21
 10
52.6082
 20
54.2200
 30
0.0000
  0
SEQEND
  8
0
  0
POLYLINE
  8
21
 66
1
 10
0.0000
 20
0.0000
 30
0.0000
 40
0.1270
 41
0.1270
 70
0
  0
VERTEX
  8
21
 10
52.6400
 20
45.2200
 30
0.0000
  0
VERTEX
  8
21
 10
39.6400
 20
45.2200
 30
0.0000
  0
SEQEND
  8
0
  0
POLYLINE
  8
21
 66
1
 10
0.0000
 20
0.0000
 30
0.0000
 40
0.0635
 41
0.0635
 70
0
  0
VERTEX
  8
21
 10
39.6400
 20
45.2518
 30
0.0000
 42
1.0000
  0
VERTEX
  8
21
 10
39.6400
 20
45.1882
 30
0.0000
  0
SEQEND
  8
0
  0
POLYLINE
  8
21
 66
1
 10
0.0000
 20
0.0000
 30
0.0000
 40
0.0635
 41
0.0635
 70
0
  0
VERTEX
  8
21
 10
52.6400
 20
45.1882
 30
0.0000
 42
1.0000
  0
VERTEX
  8
21
 10
52.6400
 20
45.2518
 30
0.0000
  0
SEQEND
  8
0
  0
POLYLINE
  8
21
 66
1
 10
0.0000
 20
0.0000
 30
0.0000
 40
0.1270
 41
0.1270
 70
0
  0
VERTEX
  8
21
 10
39.6400
 20
45.2200
 30
0.0000
  0
VERTEX
  8
21
 10
39.1400
 20
45.2200
 30
0.0000
  0
SEQEND
  8
0
  0
POLYLINE
  8
21
 66
1
 10
0.0000
 20
0.0000
 30
0.0000
 40
0.0635
 41
0.0635
 70
0
  0
VERTEX
  8
21
 10
39.1400
 20
45.2518
 30
0.0000
 42
1.0000
  0
VERTEX
  8
21
 10
39.1400
 20
45.1882
 30
0.0000
  0
SEQEND
  8
0
  0
POLYLINE
  8
21
 66
1
 10
0.0000
 20
0.0000
 30
0.0000
 40
0.0635
 41
0.0635
 70
0
  0
VERTEX
  8
21
 10
39.6400
 20
45.1882
 30
0.0000
 42
1.0000
  0
VERTEX
  8
21
 10
39.6400
 20
45.2518
 30
0.0000
  0
SEQEND
  8
0
  0
POLYLINE
  8
21
 66
1
 10
0.0000
 20
0.0000
 30
0.0000
 40
0.1270
 41
0.1270
 70
0
  0
VERTEX
  8
21
 10
39.1400
 20
45.2200
 30
0.0000
  0
VERTEX
  8
21
 10
39.1400
 20
45.7200
 30
0.0000
  0
SEQEND
  8
0
  0
POLYLINE
  8
21
 66
1
 10
0.0000
 20
0.0000
 30
0.0000
 40
0.0635
 41
0.0635
 70
0
  0
VERTEX
  8
21
 10
39.1718
 20
45.7200
 30
0.0000
 42
1.0000
  0
VERTEX
  8
21
 10
39.1082
 20
45.7200
 30
0.0000
  0
SEQEND
  8
0
  0
POLYLINE
  8
21
 66
1
 10
0.0000
 20
0.0000
 30
0.0000
 40
0.0635
 41
0.0635
 70
0
  0
VERTEX
  8
21
 10
39.1082
 20
45.2200
 30
0.0000
 42
1.0000
  0
VERTEX
  8
21
 10
39.1718
 20
45.2200
 30
0.0000
  0
SEQEND
  8
0
  0
POLYLINE
  8
21
 66
1
 10
0.0000
 20
0.0000
 30
0.0000
 40
0.1270
 41
0.1270
 70
0
  0
VERTEX
  8
21
 10
39.1400
 20
45.7200
 30
0.0000
  0
VERTEX
  8
21
 10
39.1400
 20
54.2200
 30
0.0000
  0
SEQEND
  8
0
  0
POLYLINE
  8
21
 66
1
 10
0.0000
 20
0.0000
 30
0.0000
 40
0.0635
 41
0.0635
 70
0
  0
VERTEX
  8
21
 10
39.1718
 20
54.2200
 30
0.0000
 42
1.0000
  0
VERTEX
  8
21
 10
39.1082
 20
54.2200
 30
0.0000
  0
SEQEND
  8
0
  0
POLYLINE
  8
21
 66
1
 10
0.0000
 20
0.0000
 30
0.0000
 40
0.0635
 41
0.0635
 70
0
  0
VERTEX
  8
21
 10
39.1082
 20
45.7200
 30
0.0000
 42
1.0000
  0
VERTEX
  8
21
 10
39.1718
 20
45.7200
 30
0.0000
  0
SEQEND
  8
0
  0
POLYLINE
  8
21
 66
1
 10
0.0000
 20
0.0000
 30
0.0000
 40
0.1270
 41
0.1270
 70
0
  0
VERTEX
  8
21
 10
39.1400
 20
45.7200
 30
0.0000
  0
VERTEX
  8
21
 10
39.6400
 20
45.7200
 30
0.0000
  0
SEQEND
  8
0
  0
POLYLINE
  8
21
 66
1
 10
0.0000
 20
0.0000
 30
0.0000
 40
0.0635
 41
0.0635
 70
0
  0
VERTEX
  8
21
 10
39.6400
 20
45.6882
 30
0.0000
 42
1.0000
  0
VERTEX
  8
21
 10
39.6400
 20
45.7518
 30
0.0000
  0
SEQEND
  8
0
  0
POLYLINE
  8
21
 66
1
 10
0.0000
 20
0.0000
 30
0.0000
 40
0.0635
 41
0.0635
 70
0
  0
VERTEX
  8
21
 10
39.1400
 20
45.7518
 30
0.0000
 42
1.0000
  0
VERTEX
  8
21
 10
39.1400
 20
45.6882
 30
0.0000
  0
SEQEND
  8
0
  0
POLYLINE
  8
21
 66
1
 10
0.0000
 20
0.0000
 30
0.0000
 40
0.1270
 41
0.1270
 70
0
  0
VERTEX
  8
21
 10
39.6400
 20
45.7200
 30
0.0000
  0
VERTEX
  8
21
 10
39.6400
 20
45.2200
 30
0.0000
  0
SEQEND
  8
0
  0
POLYLINE
  8
21
 66
1
 10
0.0000
 20
0.0000
 30
0.0000
 40
0.0635
 41
0.0635
 70
0
  0
VERTEX
  8
21
 10
39.6082
 20
45.2200
 30
0.0000
 42
1.0000
  0
VERTEX
  8
21
 10
39.6718
 20
45.2200
 30
0.0000
  0
SEQEND
  8
0
  0
POLYLINE
  8
21
 66
1
 10
0.0000
 20
0.0000
 30
0.0000
 40
0.0635
 41
0.0635
 70
0
  0
VERTEX
  8
21
 10
39.6718
 20
45.7200
 30
0.0000
 42
1.0000
  0
VERTEX
  8
21
 10
39.6082
 20
45.7200
 30
0.0000
  0
SEQEND
  8
0
  0
POLYLINE
  8
21
 66
1
 10
0.0000
 20
0.0000
 30
0.0000
 40
0.1016
 41
0.1016
 70
0
  0
VERTEX
  8
21
 10
39.1908
 20
55.9402
 30
0.0000
  0
VERTEX
  8
21
 10
39.1908
 20
54.9657
 30
0.0000
  0
SEQEND
  8
0
  0
POLYLINE
  8
21
 66
1
 10
0.0000
 20
0.0000
 30
0.0000
 40
0.0508
 41
0.0508
 70
0
  0
VERTEX
  8
21
 10
39.1654
 20
54.9657
 30
0.0000
 42
1.0000
  0
VERTEX
  8
21
 10
39.2162
 20
54.9657
 30
0.0000
  0
SEQEND
  8
0
  0
POLYLINE
  8
21
 66
1
 10
0.0000
 20
0.0000
 30
0.0000
 40
0.0508
 41
0.0508
 70
0
  0
VERTEX
  8
21
 10
39.2162
 20
55.9402
 30
0.0000
 42
1.0000
  0
VERTEX
  8
21
 10
39.1654
 20
55.9402
 30
0.0000
  0
SEQEND
  8
0
  0
POLYLINE
  8
21
 66
1
 10
0.0000
 20
0.0000
 30
0.0000
 40
0.1016
 41
0.1016
 70
0
  0
VERTEX
  8
21
 10
39.1908
 20
54.9657
 30
0.0000
  0
VERTEX
  8
21
 10
39.3857
 20
54.7708
 30
0.0000
  0
SEQEND
  8
0
  0
POLYLINE
  8
21
 66
1
 10
0.0000
 20
0.0000
 30
0.0000
 40
0.0508
 41
0.0508
 70
0
  0
VERTEX
  8
21
 10
39.3677
 20
54.7528
 30
0.0000
 42
1.0000
  0
VERTEX
  8
21
 10
39.4037
 20
54.7888
 30
0.0000
  0
SEQEND
  8
0
  0
POLYLINE
  8
21
 66
1
 10
0.0000
 20
0.0000
 30
0.0000
 40
0.0508
 41
0.0508
 70
0
  0
VERTEX
  8
21
 10
39.2088
 20
54.9837
 30
0.0000
 42
1.0000
  0
VERTEX
  8
21
 10
39.1728
 20
54.9477
 30
0.0000
  0
SEQEND
  8
0
  0
POLYLINE
  8
21
 66
1
 10
0.0000
 20
0.0000
 30
0.0000
 40
0.1016
 41
0.1016
 70
0
  0
VERTEX
  8
21
 10
39.3857
 20
54.7708
 30
0.0000
  0
VERTEX
  8
21
 10
39.7755
 20
54.7708
 30
0.0000
  0
SEQEND
  8
0
  0
POLYLINE
  8
21
 66
1
 10
0.0000
 20
0.0000
 30
0.0000
 40
0.0508
 41
0.0508
 70
0
  0
VERTEX
  8
21
 10
39.7755
 20
54.7454
 30
0.0000
 42
1.0000
  0
VERTEX
  8
21
 10
39.7755
 20
54.7962
 30
0.0000
  0
SEQEND
  8
0
  0
POLYLINE
  8
21
 66
1
 10
0.0000
 20
0.0000
 30
0.0000
 40
0.0508
 41
0.0508
 70
0
  0
VERTEX
  8
21
 10
39.3857
 20
54.7962
 30
0.0000
 42
1.0000
  0
VERTEX
  8
21
 10
39.3857
 20
54.7454
 30
0.0000
  0
SEQEND
  8
0
  0
POLYLINE
  8
21
 66
1
 10
0.0000
 20
0.0000
 30
0.0000
 40
0.1016
 41
0.1016
 70
0
  0
VERTEX
  8
21
 10
39.7755
 20
54.7708
 30
0.0000
  0
VERTEX
  8
21
 10
39.9704
 20
54.9657
 30
0.0000
  0
SEQEND
  8
0
  0
POLYLINE
  8
21
 66
1
 10
0.0000
 20
0.0000
 30
0.0000
 40
0.0508
 41
0.0508
 70
0
  0
VERTEX
  8
21
 10
39.9884
 20
54.9477
 30
0.0000
 42
1.0000
  0
VERTEX
  8
21
 10
39.9524
 20
54.9837
 30
0.0000
  0
SEQEND
  8
0
  0
POLYLINE
  8
21
 66
1
 10
0.0000
 20
0.0000
 30
0.0000
 40
0.0508
 41
0.0508
 70
0
  0
VERTEX
  8
21
 10
39.7575
 20
54.7888
 30
0.0000
 42
1.0000
  0
VERTEX
  8
21
 10
39.7935
 20
54.7528
 30
0.0000
  0
SEQEND
  8
0
  0
POLYLINE
  8
21
 66
1
 10
0.0000
 20
0.0000
 30
0.0000
 40
0.1016
 41
0.1016
 70
0
  0
VERTEX
  8
21
 10
39.9704
 20
54.9657
 30
0.0000
  0
VERTEX
  8
21
 10
39.9704
 20
55.9402
 30
0.0000
  0
SEQEND
  8
0
  0
POLYLINE
  8
21
 66
1
 10
0.0000
 20
0.0000
 30
0.0000
 40
0.0508
 41
0.0508
 70
0
  0
VERTEX
  8
21
 10
39.9958
 20
55.9402
 30
0.0000
 42
1.0000
  0
VERTEX
  8
21
 10
39.9450
 20
55.9402
 30
0.0000
  0
SEQEND
  8
0
  0
POLYLINE
  8
21
 66
1
 10
0.0000
 20
0.0000
 30
0.0000
 40
0.0508
 41
0.0508
 70
0
  0
VERTEX
  8
21
 10
39.9450
 20
54.9657
 30
0.0000
 42
1.0000
  0
VERTEX
  8
21
 10
39.9958
 20
54.9657
 30
0.0000
  0
SEQEND
  8
0
  0
POLYLINE
  8
21
 66
1
 10
0.0000
 20
0.0000
 30
0.0000
 40
0.1016
 41
0.1016
 70
0
  0
VERTEX
  8
21
 10
40.3602
 20
54.9657
 30
0.0000
  0
VERTEX
  8
21
 10
40.5551
 20
54.7708
 30
0.0000
  0
SEQEND
  8
0
  0
POLYLINE
  8
21
 66
1
 10
0.0000
 20
0.0000
 30
0.0000
 40
0.0508
 41
0.0508
 70
0
  0
VERTEX
  8
21
 10
40.5371
 20
54.7528
 30
0.0000
 42
1.0000
  0
VERTEX
  8
21
 10
40.5731
 20
54.7888
 30
0.0000
  0
SEQEND
  8
0
  0
POLYLINE
  8
21
 66
1
 10
0.0000
 20
0.0000
 30
0.0000
 40
0.0508
 41
0.0508
 70
0
  0
VERTEX
  8
21
 10
40.3782
 20
54.9837
 30
0.0000
 42
1.0000
  0
VERTEX
  8
21
 10
40.3422
 20
54.9477
 30
0.0000
  0
SEQEND
  8
0
  0
POLYLINE
  8
21
 66
1
 10
0.0000
 20
0.0000
 30
0.0000
 40
0.1016
 41
0.1016
 70
0
  0
VERTEX
  8
21
 10
40.5551
 20
54.7708
 30
0.0000
  0
VERTEX
  8
21
 10
40.9449
 20
54.7708
 30
0.0000
  0
SEQEND
  8
0
  0
POLYLINE
  8
21
 66
1
 10
0.0000
 20
0.0000
 30
0.0000
 40
0.0508
 41
0.0508
 70
0
  0
VERTEX
  8
21
 10
40.9449
 20
54.7454
 30
0.0000
 42
1.0000
  0
VERTEX
  8
21
 10
40.9449
 20
54.7962
 30
0.0000
  0
SEQEND
  8
0
  0
POLYLINE
  8
21
 66
1
 10
0.0000
 20
0.0000
 30
0.0000
 40
0.0508
 41
0.0508
 70
0
  0
VERTEX
  8
21
 10
40.5551
 20
54.7962
 30
0.0000
 42
1.0000
  0
VERTEX
  8
21
 10
40.5551
 20
54.7454
 30
0.0000
  0
SEQEND
  8
0
  0
POLYLINE
  8
21
 66
1
 10
0.0000
 20
0.0000
 30
0.0000
 40
0.1016
 41
0.1016
 70
0
  0
VERTEX
  8
21
 10
40.9449
 20
54.7708
 30
0.0000
  0
VERTEX
  8
21
 10
41.1398
 20
54.9657
 30
0.0000
  0
SEQEND
  8
0
  0
POLYLINE
  8
21
 66
1
 10
0.0000
 20
0.0000
 30
0.0000
 40
0.0508
 41
0.0508
 70
0
  0
VERTEX
  8
21
 10
41.1578
 20
54.9477
 30
0.0000
 42
1.0000
  0
VERTEX
  8
21
 10
41.1218
 20
54.9837
 30
0.0000
  0
SEQEND
  8
0
  0
POLYLINE
  8
21
 66
1
 10
0.0000
 20
0.0000
 30
0.0000
 40
0.0508
 41
0.0508
 70
0
  0
VERTEX
  8
21
 10
40.9269
 20
54.7888
 30
0.0000
 42
1.0000
  0
VERTEX
  8
21
 10
40.9629
 20
54.7528
 30
0.0000
  0
SEQEND
  8
0
  0
POLYLINE
  8
21
 66
1
 10
0.0000
 20
0.0000
 30
0.0000
 40
0.1016
 41
0.1016
 70
0
  0
VERTEX
  8
21
 10
41.1398
 20
54.9657
 30
0.0000
  0
VERTEX
  8
21
 10
41.1398
 20
55.1606
 30
0.0000
  0
SEQEND
  8
0
  0
POLYLINE
  8
21
 66
1
 10
0.0000
 20
0.0000
 30
0.0000
 40
0.0508
 41
0.0508
 70
0
  0
VERTEX
  8
21
 10
41.1652
 20
55.1606
 30
0.0000
 42
1.0000
  0
VERTEX
  8
21
 10
41.1144
 20
55.1606
 30
0.0000
  0
SEQEND
  8
0
  0
POLYLINE
  8
21
 66
1
 10
0.0000
 20
0.0000
 30
0.0000
 40
0.0508
 41
0.0508
 70
0
  0
VERTEX
  8
21
 10
41.1144
 20
54.9657
 30
0.0000
 42
1.0000
  0
VERTEX
  8
21
 10
41.1652
 20
54.9657
 30
0.0000
  0
SEQEND
  8
0
  0
POLYLINE
  8
21
 66
1
 10
0.0000
 20
0.0000
 30
0.0000
 40
0.1016
 41
0.1016
 70
0
  0
VERTEX
  8
21
 10
41.1398
 20
55.1606
 30
0.0000
  0
VERTEX
  8
21
 10
40.9449
 20
55.3555
 30
0.0000
  0
SEQEND
  8
0
  0
POLYLINE
  8
21
 66
1
 10
0.0000
 20
0.0000
 30
0.0000
 40
0.0508
 41
0.0508
 70
0
  0
VERTEX
  8
21
 10
40.9629
 20
55.3735
 30
0.0000
 42
1.0000
  0
VERTEX
  8
21
 10
40.9269
 20
55.3375
 30
0.0000
  0
SEQEND
  8
0
  0
POLYLINE
  8
21
 66
1
 10
0.0000
 20
0.0000
 30
0.0000
 40
0.0508
 41
0.0508
 70
0
  0
VERTEX
  8
21
 10
41.1218
 20
55.1426
 30
0.0000
 42
1.0000
  0
VERTEX
  8
21
 10
41.1578
 20
55.1786
 30
0.0000
  0
SEQEND
  8
0
  0
POLYLINE
  8
21
 66
1
 10
0.0000
 20
0.0000
 30
0.0000
 40
0.1016
 41
0.1016
 70
0
  0
VERTEX
  8
21
 10
40.9449
 20
55.3555
 30
0.0000
  0
VERTEX
  8
21
 10
40.5551
 20
55.3555
 30
0.0000
  0
SEQEND
  8
0
  0
POLYLINE
  8
21
 66
1
 10
0.0000
 20
0.0000
 30
0.0000
 40
0.0508
 41
0.0508
 70
0
  0
VERTEX
  8
21
 10
40.5551
 20
55.3809
 30
0.0000
 42
1.0000
  0
VERTEX
  8
21
 10
40.5551
 20
55.3301
 30
0.0000
  0
SEQEND
  8
0
  0
POLYLINE
  8
21
 66
1
 10
0.0000
 20
0.0000
 30
0.0000
 40
0.0508
 41
0.0508
 70
0
  0
VERTEX
  8
21
 10
40.9449
 20
55.3301
 30
0.0000
 42
1.0000
  0
VERTEX
  8
21
 10
40.9449
 20
55.3809
 30
0.0000
  0
SEQEND
  8
0
  0
POLYLINE
  8
21
 66
1
 10
0.0000
 20
0.0000
 30
0.0000
 40
0.1016
 41
0.1016
 70
0
  0
VERTEX
  8
21
 10
40.5551
 20
55.3555
 30
0.0000
  0
VERTEX
  8
21
 10
40.3602
 20
55.5504
 30
0.0000
  0
SEQEND
  8
0
  0
POLYLINE
  8
21
 66
1
 10
0.0000
 20
0.0000
 30
0.0000
 40
0.0508
 41
0.0508
 70
0
  0
VERTEX
  8
21
 10
40.3782
 20
55.5684
 30
0.0000
 42
1.0000
  0
VERTEX
  8
21
 10
40.3422
 20
55.5324
 30
0.0000
  0
SEQEND
  8
0
  0
POLYLINE
  8
21
 66
1
 10
0.0000
 20
0.0000
 30
0.0000
 40
0.0508
 41
0.0508
 70
0
  0
VERTEX
  8
21
 10
40.5371
 20
55.3375
 30
0.0000
 42
1.0000
  0
VERTEX
  8
21
 10
40.5731
 20
55.3735
 30
0.0000
  0
SEQEND
  8
0
  0
POLYLINE
  8
21
 66
1
 10
0.0000
 20
0.0000
 30
0.0000
 40
0.1016
 41
0.1016
 70
0
  0
VERTEX
  8
21
 10
40.3602
 20
55.5504
 30
0.0000
  0
VERTEX
  8
21
 10
40.3602
 20
55.7453
 30
0.0000
  0
SEQEND
  8
0
  0
POLYLINE
  8
21
 66
1
 10
0.0000
 20
0.0000
 30
0.0000
 40
0.0508
 41
0.0508
 70
0
  0
VERTEX
  8
21
 10
40.3856
 20
55.7453
 30
0.0000
 42
1.0000
  0
VERTEX
  8
21
 10
40.3348
 20
55.7453
 30
0.0000
  0
SEQEND
  8
0
  0
POLYLINE
  8
21
 66
1
 10
0.0000
 20
0.0000
 30
0.0000
 40
0.0508
 41
0.0508
 70
0
  0
VERTEX
  8
21
 10
40.3348
 20
55.5504
 30
0.0000
 42
1.0000
  0
VERTEX
  8
21
 10
40.3856
 20
55.5504
 30
0.0000
  0
SEQEND
  8
0
  0
POLYLINE
  8
21
 66
1
 10
0.0000
 20
0.0000
 30
0.0000
 40
0.1016
 41
0.1016
 70
0
  0
VERTEX
  8
21
 10
40.3602
 20
55.7453
 30
0.0000
  0
VERTEX
  8
21
 10
40.5551
 20
55.9402
 30
0.0000
  0
SEQEND
  8
0
  0
POLYLINE
  8
21
 66
1
 10
0.0000
 20
0.0000
 30
0.0000
 40
0.0508
 41
0.0508
 70
0
  0
VERTEX
  8
21
 10
40.5731
 20
55.9222
 30
0.0000
 42
1.0000
  0
VERTEX
  8
21
 10
40.5371
 20
55.9582
 30
0.0000
  0
SEQEND
  8
0
  0
POLYLINE
  8
21
 66
1
 10
0.0000
 20
0.0000
 30
0.0000
 40
0.0508
 41
0.0508
 70
0
  0
VERTEX
  8
21
 10
40.3422
 20
55.7633
 30
0.0000
 42
1.0000
  0
VERTEX
  8
21
 10
40.3782
 20
55.7273
 30
0.0000
  0
SEQEND
  8
0
  0
POLYLINE
  8
21
 66
1
 10
0.0000
 20
0.0000
 30
0.0000
 40
0.1016
 41
0.1016
 70
0
  0
VERTEX
  8
21
 10
40.5551
 20
55.9402
 30
0.0000
  0
VERTEX
  8
21
 10
40.9449
 20
55.9402
 30
0.0000
  0
SEQEND
  8
0
  0
POLYLINE
  8
21
 66
1
 10
0.0000
 20
0.0000
 30
0.0000
 40
0.0508
 41
0.0508
 70
0
  0
VERTEX
  8
21
 10
40.9449
 20
55.9148
 30
0.0000
 42
1.0000
  0
VERTEX
  8
21
 10
40.9449
 20
55.9656
 30
0.0000
  0
SEQEND
  8
0
  0
POLYLINE
  8
21
 66
1
 10
0.0000
 20
0.0000
 30
0.0000
 40
0.0508
 41
0.0508
 70
0
  0
VERTEX
  8
21
 10
40.5551
 20
55.9656
 30
0.0000
 42
1.0000
  0
VERTEX
  8
21
 10
40.5551
 20
55.9148
 30
0.0000
  0
SEQEND
  8
0
  0
POLYLINE
  8
21
 66
1
 10
0.0000
 20
0.0000
 30
0.0000
 40
0.1016
 41
0.1016
 70
0
  0
VERTEX
  8
21
 10
40.9449
 20
55.9402
 30
0.0000
  0
VERTEX
  8
21
 10
41.1398
 20
55.7453
 30
0.0000
  0
SEQEND
  8
0
  0
POLYLINE
  8
21
 66
1
 10
0.0000
 20
0.0000
 30
0.0000
 40
0.0508
 41
0.0508
 70
0
  0
VERTEX
  8
21
 10
41.1218
 20
55.7273
 30
0.0000
 42
1.0000
  0
VERTEX
  8
21
 10
41.1578
 20
55.7633
 30
0.0000
  0
SEQEND
  8
0
  0
POLYLINE
  8
21
 66
1
 10
0.0000
 20
0.0000
 30
0.0000
 40
0.0508
 41
0.0508
 70
0
  0
VERTEX
  8
21
 10
40.9629
 20
55.9582
 30
0.0000
 42
1.0000
  0
VERTEX
  8
21
 10
40.9269
 20
55.9222
 30
0.0000
  0
SEQEND
  8
0
  0
POLYLINE
  8
21
 66
1
 10
0.0000
 20
0.0000
 30
0.0000
 40
0.1016
 41
0.1016
 70
0
  0
VERTEX
  8
21
 10
40.7500
 20
56.1351
 30
0.0000
  0
VERTEX
  8
21
 10
40.7500
 20
54.5759
 30
0.0000
  0
SEQEND
  8
0
  0
POLYLINE
  8
21
 66
1
 10
0.0000
 20
0.0000
 30
0.0000
 40
0.0508
 41
0.0508
 70
0
  0
VERTEX
  8
21
 10
40.7246
 20
54.5759
 30
0.0000
 42
1.0000
  0
VERTEX
  8
21
 10
40.7754
 20
54.5759
 30
0.0000
  0
SEQEND
  8
0
  0
POLYLINE
  8
21
 66
1
 10
0.0000
 20
0.0000
 30
0.0000
 40
0.0508
 41
0.0508
 70
0
  0
VERTEX
  8
21
 10
40.7754
 20
56.1351
 30
0.0000
 42
1.0000
  0
VERTEX
  8
21
 10
40.7246
 20
56.1351
 30
0.0000
  0
SEQEND
  8
0
  0
POLYLINE
  8
21
 66
1
 10
0.0000
 20
0.0000
 30
0.0000
 40
0.1016
 41
0.1016
 70
0
  0
VERTEX
  8
21
 10
42.3092
 20
54.7708
 30
0.0000
  0
VERTEX
  8
21
 10
41.5296
 20
54.7708
 30
0.0000
  0
SEQEND
  8
0
  0
POLYLINE
  8
21
 66
1
 10
0.0000
 20
0.0000
 30
0.0000
 40
0.0508
 41
0.0508
 70
0
  0
VERTEX
  8
21
 10
41.5296
 20
54.7962
 30
0.0000
 42
1.0000
  0
VERTEX
  8
21
 10
41.5296
 20
54.7454
 30
0.0000
  0
SEQEND
  8
0
  0
POLYLINE
  8
21
 66
1
 10
0.0000
 20
0.0000
 30
0.0000
 40
0.0508
 41
0.0508
 70
0
  0
VERTEX
  8
21
 10
42.3092
 20
54.7454
 30
0.0000
 42
1.0000
  0
VERTEX
  8
21
 10
42.3092
 20
54.7962
 30
0.0000
  0
SEQEND
  8
0
  0
POLYLINE
  8
21
 66
1
 10
0.0000
 20
0.0000
 30
0.0000
 40
0.1016
 41
0.1016
 70
0
  0
VERTEX
  8
21
 10
41.5296
 20
54.7708
 30
0.0000
  0
VERTEX
  8
21
 10
42.3092
 20
55.5504
 30
0.0000
  0
SEQEND
  8
0
  0
POLYLINE
  8
21
 66
1
 10
0.0000
 20
0.0000
 30
0.0000
 40
0.0508
 41
0.0508
 70
0
  0
VERTEX
  8
21
 10
42.3272
 20
55.5324
 30
0.0000
 42
1.0000
  0
VERTEX
  8
21
 10
42.2912
 20
55.5684
 30
0.0000
  0
SEQEND
  8
0
  0
POLYLINE
  8
21
 66
1
 10
0.0000
 20
0.0000
 30
0.0000
 40
0.0508
 41
0.0508
 70
0
  0
VERTEX
  8
21
 10
41.5116
 20
54.7888
 30
0.0000
 42
1.0000
  0
VERTEX
  8
21
 10
41.5476
 20
54.7528
 30
0.0000
  0
SEQEND
  8
0
  0
POLYLINE
  8
21
 66
1
 10
0.0000
 20
0.0000
 30
0.0000
 40
0.1016
 41
0.1016
 70
0
  0
VERTEX
  8
21
 10
42.3092
 20
55.5504
 30
0.0000
  0
VERTEX
  8
21
 10
42.3092
 20
55.7453
 30
0.0000
  0
SEQEND
  8
0
  0
POLYLINE
  8
21
 66
1
 10
0.0000
 20
0.0000
 30
0.0000
 40
0.0508
 41
0.0508
 70
0
  0
VERTEX
  8
21
 10
42.3346
 20
55.7453
 30
0.0000
 42
1.0000
  0
VERTEX
  8
21
 10
42.2838
 20
55.7453
 30
0.0000
  0
SEQEND
  8
0
  0
POLYLINE
  8
21
 66
1
 10
0.0000
 20
0.0000
 30
0.0000
 40
0.0508
 41
0.0508
 70
0
  0
VERTEX
  8
21
 10
42.2838
 20
55.5504
 30
0.0000
 42
1.0000
  0
VERTEX
  8
21
 10
42.3346
 20
55.5504
 30
0.0000
  0
SEQEND
  8
0
  0
POLYLINE
  8
21
 66
1
 10
0.0000
 20
0.0000
 30
0.0000
 40
0.1016
 41
0.1016
 70
0
  0
VERTEX
  8
21
 10
42.3092
 20
55.7453
 30
0.0000
  0
VERTEX
  8
21
 10
42.1143
 20
55.9402
 30
0.0000
  0
SEQEND
  8
0
  0
POLYLINE
  8
21
 66
1
 10
0.0000
 20
0.0000
 30
0.0000
 40
0.0508
 41
0.0508
 70
0
  0
VERTEX
  8
21
 10
42.1323
 20
55.9582
 30
0.0000
 42
1.0000
  0
VERTEX
  8
21
 10
42.0963
 20
55.9222
 30
0.0000
  0
SEQEND
  8
0
  0
POLYLINE
  8
21
 66
1
 10
0.0000
 20
0.0000
 30
0.0000
 40
0.0508
 41
0.0508
 70
0
  0
VERTEX
  8
21
 10
42.2912
 20
55.7273
 30
0.0000
 42
1.0000
  0
VERTEX
  8
21
 10
42.3272
 20
55.7633
 30
0.0000
  0
SEQEND
  8
0
  0
POLYLINE
  8
21
 66
1
 10
0.0000
 20
0.0000
 30
0.0000
 40
0.1016
 41
0.1016
 70
0
  0
VERTEX
  8
21
 10
42.1143
 20
55.9402
 30
0.0000
  0
VERTEX
  8
21
 10
41.7245
 20
55.9402
 30
0.0000
  0
SEQEND
  8
0
  0
POLYLINE
  8
21
 66
1
 10
0.0000
 20
0.0000
 30
0.0000
 40
0.0508
 41
0.0508
 70
0
  0
VERTEX
  8
21
 10
41.7245
 20
55.9656
 30
0.0000
 42
1.0000
  0
VERTEX
  8
21
 10
41.7245
 20
55.9148
 30
0.0000
  0
SEQEND
  8
0
  0
POLYLINE
  8
21
 66
1
 10
0.0000
 20
0.0000
 30
0.0000
 40
0.0508
 41
0.0508
 70
0
  0
VERTEX
  8
21
 10
42.1143
 20
55.9148
 30
0.0000
 42
1.0000
  0
VERTEX
  8
21
 10
42.1143
 20
55.9656
 30
0.0000
  0
SEQEND
  8
0
  0
POLYLINE
  8
21
 66
1
 10
0.0000
 20
0.0000
 30
0.0000
 40
0.1016
 41
0.1016
 70
0
  0
VERTEX
  8
21
 10
41.7245
 20
55.9402
 30
0.0000
  0
VERTEX
  8
21
 10
41.5296
 20
55.7453
 30
0.0000
  0
SEQEND
  8
0
  0
POLYLINE
  8
21
 66
1
 10
0.0000
 20
0.0000
 30
0.0000
 40
0.0508
 41
0.0508
 70
0
  0
VERTEX
  8
21
 10
41.5116
 20
55.7633
 30
0.0000
 42
1.0000
  0
VERTEX
  8
21
 10
41.5476
 20
55.7273
 30
0.0000
  0
SEQEND
  8
0
  0
POLYLINE
  8
21
 66
1
 10
0.0000
 20
0.0000
 30
0.0000
 40
0.0508
 41
0.0508
 70
0
  0
VERTEX
  8
21
 10
41.7425
 20
55.9222
 30
0.0000
 42
1.0000
  0
VERTEX
  8
21
 10
41.7065
 20
55.9582
 30
0.0000
  0
SEQEND
  8
0
  0
INSERT
  8
17
  2
ROUNDP
 10
40.6400
 20
46.4500
 30
0.0000
 41
1.2080
 42
1.2080
 43
1.0000
 50
0.0000
  0
INSERT
  8
17
  2
ROUNDP
 10
40.6400
 20
46.4500
 30
0.0000
 41
1.2080
 42
1.2080
 43
1.0000
 50
0.0000
  0
INSERT
  8
17
  2
ROUNDP
 10
43.6400
 20
46.4500
 30
0.0000
 41
1.2080
 42
1.2080
 43
1.0000
 50
0.0000
  0
INSERT
  8
17
  2
ROUNDP
 10
43.6400
 20
46.4500
 30
0.0000
 41
1.2080
 42
1.2080
 43
1.0000
 50
0.0000
  0
INSERT
  8
17
  2
ROUNDP
 10
45.1400
 20
46.4500
 30
0.0000
 41
1.2080
 42
1.2080
 43
1.0000
 50
0.0000
  0
INSERT
  8
17
  2
ROUNDP
 10
45.1400
 20
46.4500
 30
0.0000
 41
1.2080
 42
1.2080
 43
1.0000
 50
0.0000
  0
INSERT
  8
17
  2
ROUNDP
 10
46.6400
 20
46.4500
 30
0.0000
 41
1.2080
 42
1.2080
 43
1.0000
 50
0.0000
  0
INSERT
  8
17
  2
ROUNDP
 10
46.6400
 20
46.4500
 30
0.0000
 41
1.2080
 42
1.2080
 43
1.0000
 50
0.0000
  0
INSERT
  8
17
  2
ROUNDP
 10
48.1400
 20
46.4500
 30
0.0000
 41
1.2080
 42
1.2080
 43
1.0000
 50
0.0000
  0
INSERT
  8
17
  2
ROUNDP
 10
48.1400
 20
46.4500
 30
0.0000
 41
1.2080
 42
1.2080
 43
1.0000
 50
0.0000
  0
INSERT
  8
17
  2
ROUNDP
 10
49.6400
 20
46.4500
 30
0.0000
 41
1.2080
 42
1.2080
 43
1.0000
 50
0.0000
  0
INSERT
  8
17
  2
ROUNDP
 10
49.6400
 20
46.4500
 30
0.0000
 41
1.2080
 42
1.2080
 43
1.0000
 50
0.0000
  0
INSERT
  8
17
  2
ROUNDP
 10
51.1400
 20
46.4500
 30
0.0000
 41
1.2080
 42
1.2080
 43
1.0000
 50
0.0000
  0
INSERT
  8
17
  2
ROUNDP
 10
51.1400
 20
46.4500
 30
0.0000
 41
1.2080
 42
1.2080
 43
1.0000
 50
0.0000
  0
INSERT
  8
17
  2
ROUNDP
 10
51.1400
 20
52.9500
 30
0.0000
 41
1.2080
 42
1.2080
 43
1.0000
 50
0.0000
  0
INSERT
  8
17
  2
ROUNDP
 10
51.1400
 20
52.9500
 30
0.0000
 41
1.2080
 42
1.2080
 43
1.0000
 50
0.0000
  0
INSERT
  8
17
  2
ROUNDP
 10
49.6400
 20
52.9500
 30
0.0000
 41
1.2080
 42
1.2080
 43
1.0000
 50
0.0000
  0
INSERT
  8
17
  2
ROUNDP
 10
49.6400
 20
52.9500
 30
0.0000
 41
1.2080
 42
1.2080
 43
1.0000
 50
0.0000
  0
INSERT
  8
17
  2
ROUNDP
 10
48.1400
 20
52.9500
 30
0.0000
 41
1.2080
 42
1.2080
 43
1.0000
 50
0.0000
  0
INSERT
  8
17
  2
ROUNDP
 10
48.1400
 20
52.9500
 30
0.0000
 41
1.2080
 42
1.2080
 43
1.0000
 50
0.0000
  0
INSERT
  8
17
  2
ROUNDP
 10
46.6400
 20
52.9500
 30
0.0000
 41
1.2080
 42
1.2080
 43
1.0000
 50
0.0000
  0
INSERT
  8
17
  2
ROUNDP
 10
46.6400
 20
52.9500
 30
0.0000
 41
1.2080
 42
1.2080
 43
1.0000
 50
0.0000
  0
INSERT
  8
17
  2
ROUNDP
 10
45.1400
 20
52.9500
 30
0.0000
 41
1.2080
 42
1.2080
 43
1.0000
 50
0.0000
  0
INSERT
  8
17
  2
ROUNDP
 10
45.1400
 20
52.9500
 30
0.0000
 41
1.2080
 42
1.2080
 43
1.0000
 50
0.0000
  0
INSERT
  8
17
  2
ROUNDP
 10
43.6400
 20
52.9500
 30
0.0000
 41
1.2080
 42
1.2080
 43
1.0000
 50
0.0000
  0
INSERT
  8
17
  2
ROUNDP
 10
43.6400
 20
52.9500
 30
0.0000
 41
1.2080
 42
1.2080
 43
1.0000
 50
0.0000
  0
INSERT
  8
17
  2
ROUNDP
 10
40.6400
 20
52.9500
 30
0.0000
 41
1.2080
 42
1.2080
 43
1.0000
 50
0.0000
  0
INSERT
  8
17
  2
ROUNDP
 10
40.6400
 20
52.9500
 30
0.0000
 41
1.2080
 42
1.2080
 43
1.0000
 50
0.0000
  0
POLYLINE
  8
16
 66
1
 10
0.0000
 20
0.0000
 30
0.0000
 40
0.4064
 41
0.4064
 70
0
  0
VERTEX
  8
16
 10
57.1500
 20
41.9100
 30
0.0000
  0
VERTEX
  8
16
 10
54.6100
 20
41.9100
 30
0.0000
  0
SEQEND
  8
0
  0
POLYLINE
  8
16
 66
1
 10
0.0000
 20
0.0000
 30
0.0000
 40
0.2032
 41
0.2032
 70
0
  0
VERTEX
  8
16
 10
54.6100
 20
42.0116
 30
0.0000
 42
1.0000
  0
VERTEX
  8
16
 10
54.6100
 20
41.8084
 30
0.0000
  0
SEQEND
  8
0
  0
POLYLINE
  8
16
 66
1
 10
0.0000
 20
0.0000
 30
0.0000
 40
0.2032
 41
0.2032
 70
0
  0
VERTEX
  8
16
 10
57.1500
 20
41.8084
 30
0.0000
 42
1.0000
  0
VERTEX
  8
16
 10
57.1500
 20
42.0116
 30
0.0000
  0
SEQEND
  8
0
  0
POLYLINE
  8
16
 66
1
 10
0.0000
 20
0.0000
 30
0.0000
 40
0.4064
 41
0.4064
 70
0
  0
VERTEX
  8
16
 10
57.1500
 20
41.9100
 30
0.0000
  0
VERTEX
  8
16
 10
58.1408
 20
41.9100
 30
0.0000
  0
SEQEND
  8
0
  0
POLYLINE
  8
16
 66
1
 10
0.0000
 20
0.0000
 30
0.0000
 40
0.2032
 41
0.2032
 70
0
  0
VERTEX
  8
16
 10
58.1408
 20
41.8084
 30
0.0000
 42
1.0000
  0
VERTEX
  8
16
 10
58.1408
 20
42.0116
 30
0.0000
  0
SEQEND
  8
0
  0
POLYLINE
  8
16
 66
1
 10
0.0000
 20
0.0000
 30
0.0000
 40
0.2032
 41
0.2032
 70
0
  0
VERTEX
  8
16
 10
57.1500
 20
42.0116
 30
0.0000
 42
1.0000
  0
VERTEX
  8
16
 10
57.1500
 20
41.8084
 30
0.0000
  0
SEQEND
  8
0
  0
POLYLINE
  8
16
 66
1
 10
0.0000
 20
0.0000
 30
0.0000
 40
0.4064
 41
0.4064
 70
0
  0
VERTEX
  8
16
 10
58.1408
 20
49.5300
 30
0.0000
  0
VERTEX
  8
16
 10
58.1408
 20
41.9100
 30
0.0000
  0
SEQEND
  8
0
  0
POLYLINE
  8
16
 66
1
 10
0.0000
 20
0.0000
 30
0.0000
 40
0.2032
 41
0.2032
 70
0
  0
VERTEX
  8
16
 10
58.0392
 20
41.9100
 30
0.0000
 42
1.0000
  0
VERTEX
  8
16
 10
58.2424
 20
41.9100
 30
0.0000
  0
SEQEND
  8
0
  0
POLYLINE
  8
16
 66
1
 10
0.0000
 20
0.0000
 30
0.0000
 40
0.2032
 41
0.2032
 70
0
  0
VERTEX
  8
16
 10
58.2424
 20
49.5300
 30
0.0000
 42
1.0000
  0
VERTEX
  8
16
 10
58.0392
 20
49.5300
 30
0.0000
  0
SEQEND
  8
0
  0
POLYLINE
  8
16
 66
1
 10
0.0000
 20
0.0000
 30
0.0000
 40
0.4064
 41
0.4064
 70
0
  0
VERTEX
  8
16
 10
58.1408
 20
49.5300
 30
0.0000
  0
VERTEX
  8
16
 10
55.8800
 20
49.5300
 30
0.0000
  0
SEQEND
  8
0
  0
POLYLINE
  8
16
 66
1
 10
0.0000
 20
0.0000
 30
0.0000
 40
0.2032
 41
0.2032
 70
0
  0
VERTEX
  8
16
 10
55.8800
 20
49.6316
 30
0.0000
 42
1.0000
  0
VERTEX
  8
16
 10
55.8800
 20
49.4284
 30
0.0000
  0
SEQEND
  8
0
  0
POLYLINE
  8
16
 66
1
 10
0.0000
 20
0.0000
 30
0.0000
 40
0.2032
 41
0.2032
 70
0
  0
VERTEX
  8
16
 10
58.1408
 20
49.4284
 30
0.0000
 42
1.0000
  0
VERTEX
  8
16
 10
58.1408
 20
49.6316
 30
0.0000
  0
SEQEND
  8
0
  0
POLYLINE
  8
16
 66
1
 10
0.0000
 20
0.0000
 30
0.0000
 40
0.4064
 41
0.4064
 70
0
  0
VERTEX
  8
16
 10
46.6400
 20
46.4500
 30
0.0000
  0
VERTEX
  8
16
 10
48.2600
 20
43.1800
 30
0.0000
  0
SEQEND
  8
0
  0
POLYLINE
  8
16
 66
1
 10
0.0000
 20
0.0000
 30
0.0000
 40
0.2032
 41
0.2032
 70
0
  0
VERTEX
  8
16
 10
48.1690
 20
43.1349
 30
0.0000
 42
1.0000
  0
VERTEX
  8
16
 10
48.3510
 20
43.2251
 30
0.0000
  0
SEQEND
  8
0
  0
POLYLINE
  8
16
 66
1
 10
0.0000
 20
0.0000
 30
0.0000
 40
0.2032
 41
0.2032
 70
0
  0
VERTEX
  8
16
 10
46.7310
 20
46.4951
 30
0.0000
 42
1.0000
  0
VERTEX
  8
16
 10
46.5490
 20
46.4049
 30
0.0000
  0
SEQEND
  8
0
  0
POLYLINE
  8
16
 66
1
 10
0.0000
 20
0.0000
 30
0.0000
 40
0.4064
 41
0.4064
 70
0
  0
VERTEX
  8
16
 10
48.2600
 20
43.1800
 30
0.0000
  0
VERTEX
  8
16
 10
49.5300
 20
39.3700
 30
0.0000
  0
SEQEND
  8
0
  0
POLYLINE
  8
16
 66
1
 10
0.0000
 20
0.0000
 30
0.0000
 40
0.2032
 41
0.2032
 70
0
  0
VERTEX
  8
16
 10
49.4336
 20
39.3379
 30
0.0000
 42
1.0000
  0
VERTEX
  8
16
 10
49.6264
 20
39.4021
 30
0.0000
  0
SEQEND
  8
0
  0
POLYLINE
  8
16
 66
1
 10
0.0000
 20
0.0000
 30
0.0000
 40
0.2032
 41
0.2032
 70
0
  0
VERTEX
  8
16
 10
48.3564
 20
43.2121
 30
0.0000
 42
1.0000
  0
VERTEX
  8
16
 10
48.1636
 20
43.1479
 30
0.0000
  0
SEQEND
  8
0
  0
POLYLINE
  8
16
 66
1
 10
0.0000
 20
0.0000
 30
0.0000
 40
0.4064
 41
0.4064
 70
0
  0
VERTEX
  8
16
 10
49.5300
 20
39.3700
 30
0.0000
  0
VERTEX
  8
16
 10
57.1500
 20
39.3700
 30
0.0000
  0
SEQEND
  8
0
  0
POLYLINE
  8
16
 66
1
 10
0.0000
 20
0.0000
 30
0.0000
 40
0.2032
 41
0.2032
 70
0
  0
VERTEX
  8
16
 10
57.1500
 20
39.2684
 30
0.0000
 42
1.0000
  0
VERTEX
  8
16
 10
57.1500
 20
39.4716
 30
0.0000
  0
SEQEND
  8
0
  0
POLYLINE
  8
16
 66
1
 10
0.0000
 20
0.0000
 30
0.0000
 40
0.2032
 41
0.2032
 70
0
  0
VERTEX
  8
16
 10
49.5300
 20
39.4716
 30
0.0000
 42
1.0000
  0
VERTEX
  8
16
 10
49.5300
 20
39.2684
 30
0.0000
  0
SEQEND
  8
0
  0
POLYLINE
  8
16
 66
1
 10
0.0000
 20
0.0000
 30
0.0000
 40
0.4064
 41
0.4064
 70
0
  0
VERTEX
  8
16
 10
57.1500
 20
39.3700
 30
0.0000
  0
VERTEX
  8
16
 10
57.1500
 20
41.9100
 30
0.0000
  0
SEQEND
  8
0
  0
POLYLINE
  8
16
 66
1
 10
0.0000
 20
0.0000
 30
0.0000
 40
0.2032
 41
0.2032
 70
0
  0
VERTEX
  8
16
 10
57.2516
 20
41.9100
 30
0.0000
 42
1.0000
  0
VERTEX
  8
16
 10
57.0484
 20
41.9100
 30
0.0000
  0
SEQEND
  8
0
  0
POLYLINE
  8
16
 66
1
 10
0.0000
 20
0.0000
 30
0.0000
 40
0.2032
 41
0.2032
 70
0
  0
VERTEX
  8
16
 10
57.0484
 20
39.3700
 30
0.0000
 42
1.0000
  0
VERTEX
  8
16
 10
57.2516
 20
39.3700
 30
0.0000
  0
SEQEND
  8
0
  0
POLYLINE
  8
16
 66
1
 10
0.0000
 20
0.0000
 30
0.0000
 40
0.4064
 41
0.4064
 70
0
  0
VERTEX
  8
16
 10
58.1408
 20
57.1500
 30
0.0000
  0
VERTEX
  8
16
 10
58.1408
 20
49.5300
 30
0.0000
  0
SEQEND
  8
0
  0
POLYLINE
  8
16
 66
1
 10
0.0000
 20
0.0000
 30
0.0000
 40
0.2032
 41
0.2032
 70
0
  0
VERTEX
  8
16
 10
58.0392
 20
49.5300
 30
0.0000
 42
1.0000
  0
VERTEX
  8
16
 10
58.2424
 20
49.5300
 30
0.0000
  0
SEQEND
  8
0
  0
POLYLINE
  8
16
 66
1
 10
0.0000
 20
0.0000
 30
0.0000
 40
0.2032
 41
0.2032
 70
0
  0
VERTEX
  8
16
 10
58.2424
 20
57.1500
 30
0.0000
 42
1.0000
  0
VERTEX
  8
16
 10
58.0392
 20
57.1500
 30
0.0000
  0
SEQEND
  8
0
  0
POLYLINE
  8
16
 66
1
 10
0.0000
 20
0.0000
 30
0.0000
 40
0.4064
 41
0.4064
 70
0
  0
VERTEX
  8
16
 10
49.5300
 20
57.1500
 30
0.0000
  0
VERTEX
  8
16
 10
58.1408
 20
57.1500
 30
0.0000
  0
SEQEND
  8
0
  0
POLYLINE
  8
16
 66
1
 10
0.0000
 20
0.0000
 30
0.0000
 40
0.2032
 41
0.2032
 70
0
  0
VERTEX
  8
16
 10
58.1408
 20
57.0484
 30
0.0000
 42
1.0000
  0
VERTEX
  8
16
 10
58.1408
 20
57.2516
 30
0.0000
  0
SEQEND
  8
0
  0
POLYLINE
  8
16
 66
1
 10
0.0000
 20
0.0000
 30
0.0000
 40
0.2032
 41
0.2032
 70
0
  0
VERTEX
  8
16
 10
49.5300
 20
57.2516
 30
0.0000
 42
1.0000
  0
VERTEX
  8
16
 10
49.5300
 20
57.0484
 30
0.0000
  0
SEQEND
  8
0
  0
POLYLINE
  8
16
 66
1
 10
0.0000
 20
0.0000
 30
0.0000
 40
0.4064
 41
0.4064
 70
0
  0
VERTEX
  8
16
 10
43.1800
 20
43.1800
 30
0.0000
  0
VERTEX
  8
16
 10
43.6400
 20
43.6400
 30
0.0000
  0
SEQEND
  8
0
  0
POLYLINE
  8
16
 66
1
 10
0.0000
 20
0.0000
 30
0.0000
 40
0.2032
 41
0.2032
 70
0
  0
VERTEX
  8
16
 10
43.7118
 20
43.5682
 30
0.0000
 42
1.0000
  0
VERTEX
  8
16
 10
43.5682
 20
43.7118
 30
0.0000
  0
SEQEND
  8
0
  0
POLYLINE
  8
16
 66
1
 10
0.0000
 20
0.0000
 30
0.0000
 40
0.2032
 41
0.2032
 70
0
  0
VERTEX
  8
16
 10
43.1082
 20
43.2518
 30
0.0000
 42
1.0000
  0
VERTEX
  8
16
 10
43.2518
 20
43.1082
 30
0.0000
  0
SEQEND
  8
0
  0
POLYLINE
  8
16
 66
1
 10
0.0000
 20
0.0000
 30
0.0000
 40
0.4064
 41
0.4064
 70
0
  0
VERTEX
  8
16
 10
43.6400
 20
43.6400
 30
0.0000
  0
VERTEX
  8
16
 10
43.6400
 20
46.4500
 30
0.0000
  0
SEQEND
  8
0
  0
POLYLINE
  8
16
 66
1
 10
0.0000
 20
0.0000
 30
0.0000
 40
0.2032
 41
0.2032
 70
0
  0
VERTEX
  8
16
 10
43.7416
 20
46.4500
 30
0.0000
 42
1.0000
  0
VERTEX
  8
16
 10
43.5384
 20
46.4500
 30
0.0000
  0
SEQEND
  8
0
  0
POLYLINE
  8
16
 66
1
 10
0.0000
 20
0.0000
 30
0.0000
 40
0.2032
 41
0.2032
 70
0
  0
VERTEX
  8
16
 10
43.5384
 20
43.6400
 30
0.0000
 42
1.0000
  0
VERTEX
  8
16
 10
43.7416
 20
43.6400
 30
0.0000
  0
SEQEND
  8
0
  0
POLYLINE
  8
16
 66
1
 10
0.0000
 20
0.0000
 30
0.0000
 40
0.4064
 41
0.4064
 70
0
  0
VERTEX
  8
16
 10
52.0700
 20
41.9100
 30
0.0000
  0
VERTEX
  8
16
 10
51.1400
 20
46.4500
 30
0.0000
  0
SEQEND
  8
0
  0
POLYLINE
  8
16
 66
1
 10
0.0000
 20
0.0000
 30
0.0000
 40
0.2032
 41
0.2032
 70
0
  0
VERTEX
  8
16
 10
51.2395
 20
46.4704
 30
0.0000
 42
1.0000
  0
VERTEX
  8
16
 10
51.0405
 20
46.4296
 30
0.0000
  0
SEQEND
  8
0
  0
POLYLINE
  8
16
 66
1
 10
0.0000
 20
0.0000
 30
0.0000
 40
0.2032
 41
0.2032
 70
0
  0
VERTEX
  8
16
 10
51.9705
 20
41.8896
 30
0.0000
 42
1.0000
  0
VERTEX
  8
16
 10
52.1695
 20
41.9304
 30
0.0000
  0
SEQEND
  8
0
  0
POLYLINE
  8
16
 66
1
 10
0.0000
 20
0.0000
 30
0.0000
 40
0.4064
 41
0.4064
 70
0
  0
VERTEX
  8
16
 10
40.6400
 20
46.4500
 30
0.0000
  0
VERTEX
  8
16
 10
40.6400
 20
48.2600
 30
0.0000
  0
SEQEND
  8
0
  0
POLYLINE
  8
16
 66
1
 10
0.0000
 20
0.0000
 30
0.0000
 40
0.2032
 41
0.2032
 70
0
  0
VERTEX
  8
16
 10
40.7416
 20
48.2600
 30
0.0000
 42
1.0000
  0
VERTEX
  8
16
 10
40.5384
 20
48.2600
 30
0.0000
  0
SEQEND
  8
0
  0
POLYLINE
  8
16
 66
1
 10
0.0000
 20
0.0000
 30
0.0000
 40
0.2032
 41
0.2032
 70
0
  0
VERTEX
  8
16
 10
40.5384
 20
46.4500
 30
0.0000
 42
1.0000
  0
VERTEX
  8
16
 10
40.7416
 20
46.4500
 30
0.0000
  0
SEQEND
  8
0
  0
POLYLINE
  8
16
 66
1
 10
0.0000
 20
0.0000
 30
0.0000
 40
0.4064
 41
0.4064
 70
0
  0
VERTEX
  8
16
 10
40.6400
 20
48.2600
 30
0.0000
  0
VERTEX
  8
16
 10
45.1400
 20
48.2600
 30
0.0000
  0
SEQEND
  8
0
  0
POLYLINE
  8
16
 66
1
 10
0.0000
 20
0.0000
 30
0.0000
 40
0.2032
 41
0.2032
 70
0
  0
VERTEX
  8
16
 10
45.1400
 20
48.1584
 30
0.0000
 42
1.0000
  0
VERTEX
  8
16
 10
45.1400
 20
48.3616
 30
0.0000
  0
SEQEND
  8
0
  0
POLYLINE
  8
16
 66
1
 10
0.0000
 20
0.0000
 30
0.0000
 40
0.2032
 41
0.2032
 70
0
  0
VERTEX
  8
16
 10
40.6400
 20
48.3616
 30
0.0000
 42
1.0000
  0
VERTEX
  8
16
 10
40.6400
 20
48.1584
 30
0.0000
  0
SEQEND
  8
0
  0
POLYLINE
  8
16
 66
1
 10
0.0000
 20
0.0000
 30
0.0000
 40
0.4064
 41
0.4064
 70
0
  0
VERTEX
  8
16
 10
45.1400
 20
48.2600
 30
0.0000
  0
VERTEX
  8
16
 10
45.1400
 20
46.4500
 30
0.0000
  0
SEQEND
  8
0
  0
POLYLINE
  8
16
 66
1
 10
0.0000
 20
0.0000
 30
0.0000
 40
0.2032
 41
0.2032
 70
0
  0
VERTEX
  8
16
 10
45.0384
 20
46.4500
 30
0.0000
 42
1.0000
  0
VERTEX
  8
16
 10
45.2416
 20
46.4500
 30
0.0000
  0
SEQEND
  8
0
  0
POLYLINE
  8
16
 66
1
 10
0.0000
 20
0.0000
 30
0.0000
 40
0.2032
 41
0.2032
 70
0
  0
VERTEX
  8
16
 10
45.2416
 20
48.2600
 30
0.0000
 42
1.0000
  0
VERTEX
  8
16
 10
45.0384
 20
48.2600
 30
0.0000
  0
SEQEND
  8
0
  0
POLYLINE
  8
16
 66
1
 10
0.0000
 20
0.0000
 30
0.0000
 40
0.4064
 41
0.4064
 70
0
  0
VERTEX
  8
16
 10
55.8800
 20
52.0700
 30
0.0000
  0
VERTEX
  8
16
 10
53.3400
 20
52.0700
 30
0.0000
  0
SEQEND
  8
0
  0
POLYLINE
  8
16
 66
1
 10
0.0000
 20
0.0000
 30
0.0000
 40
0.2032
 41
0.2032
 70
0
  0
VERTEX
  8
16
 10
53.3400
 20
52.1716
 30
0.0000
 42
1.0000
  0
VERTEX
  8
16
 10
53.3400
 20
51.9684
 30
0.0000
  0
SEQEND
  8
0
  0
POLYLINE
  8
16
 66
1
 10
0.0000
 20
0.0000
 30
0.0000
 40
0.2032
 41
0.2032
 70
0
  0
VERTEX
  8
16
 10
55.8800
 20
51.9684
 30
0.0000
 42
1.0000
  0
VERTEX
  8
16
 10
55.8800
 20
52.1716
 30
0.0000
  0
SEQEND
  8
0
  0
POLYLINE
  8
16
 66
1
 10
0.0000
 20
0.0000
 30
0.0000
 40
0.4064
 41
0.4064
 70
0
  0
VERTEX
  8
16
 10
53.3400
 20
52.0700
 30
0.0000
  0
VERTEX
  8
16
 10
53.3400
 20
50.8000
 30
0.0000
  0
SEQEND
  8
0
  0
POLYLINE
  8
16
 66
1
 10
0.0000
 20
0.0000
 30
0.0000
 40
0.2032
 41
0.2032
 70
0
  0
VERTEX
  8
16
 10
53.2384
 20
50.8000
 30
0.0000
 42
1.0000
  0
VERTEX
  8
16
 10
53.4416
 20
50.8000
 30
0.0000
  0
SEQEND
  8
0
  0
POLYLINE
  8
16
 66
1
 10
0.0000
 20
0.0000
 30
0.0000
 40
0.2032
 41
0.2032
 70
0
  0
VERTEX
  8
16
 10
53.4416
 20
52.0700
 30
0.0000
 42
1.0000
  0
VERTEX
  8
16
 10
53.2384
 20
52.0700
 30
0.0000
  0
SEQEND
  8
0
  0
POLYLINE
  8
16
 66
1
 10
0.0000
 20
0.0000
 30
0.0000
 40
0.4064
 41
0.4064
 70
0
  0
VERTEX
  8
16
 10
53.3400
 20
50.8000
 30
0.0000
  0
VERTEX
  8
16
 10
43.6400
 20
50.8000
 30
0.0000
  0
SEQEND
  8
0
  0
POLYLINE
  8
16
 66
1
 10
0.0000
 20
0.0000
 30
0.0000
 40
0.2032
 41
0.2032
 70
0
  0
VERTEX
  8
16
 10
43.6400
 20
50.9016
 30
0.0000
 42
1.0000
  0
VERTEX
  8
16
 10
43.6400
 20
50.6984
 30
0.0000
  0
SEQEND
  8
0
  0
POLYLINE
  8
16
 66
1
 10
0.0000
 20
0.0000
 30
0.0000
 40
0.2032
 41
0.2032
 70
0
  0
VERTEX
  8
16
 10
53.3400
 20
50.6984
 30
0.0000
 42
1.0000
  0
VERTEX
  8
16
 10
53.3400
 20
50.9016
 30
0.0000
  0
SEQEND
  8
0
  0
POLYLINE
  8
16
 66
1
 10
0.0000
 20
0.0000
 30
0.0000
 40
0.4064
 41
0.4064
 70
0
  0
VERTEX
  8
16
 10
43.6400
 20
50.8000
 30
0.0000
  0
VERTEX
  8
16
 10
43.6400
 20
52.9500
 30
0.0000
  0
SEQEND
  8
0
  0
POLYLINE
  8
16
 66
1
 10
0.0000
 20
0.0000
 30
0.0000
 40
0.2032
 41
0.2032
 70
0
  0
VERTEX
  8
16
 10
43.7416
 20
52.9500
 30
0.0000
 42
1.0000
  0
VERTEX
  8
16
 10
43.5384
 20
52.9500
 30
0.0000
  0
SEQEND
  8
0
  0
POLYLINE
  8
16
 66
1
 10
0.0000
 20
0.0000
 30
0.0000
 40
0.2032
 41
0.2032
 70
0
  0
VERTEX
  8
16
 10
43.5384
 20
50.8000
 30
0.0000
 42
1.0000
  0
VERTEX
  8
16
 10
43.7416
 20
50.8000
 30
0.0000
  0
SEQEND
  8
0
  0
POLYLINE
  8
16
 66
1
 10
0.0000
 20
0.0000
 30
0.0000
 40
0.4064
 41
0.4064
 70
0
  0
VERTEX
  8
16
 10
46.9900
 20
57.1500
 30
0.0000
  0
VERTEX
  8
16
 10
46.6400
 20
57.1500
 30
0.0000
  0
SEQEND
  8
0
  0
POLYLINE
  8
16
 66
1
 10
0.0000
 20
0.0000
 30
0.0000
 40
0.2032
 41
0.2032
 70
0
  0
VERTEX
  8
16
 10
46.6400
 20
57.2516
 30
0.0000
 42
1.0000
  0
VERTEX
  8
16
 10
46.6400
 20
57.0484
 30
0.0000
  0
SEQEND
  8
0
  0
POLYLINE
  8
16
 66
1
 10
0.0000
 20
0.0000
 30
0.0000
 40
0.2032
 41
0.2032
 70
0
  0
VERTEX
  8
16
 10
46.9900
 20
57.0484
 30
0.0000
 42
1.0000
  0
VERTEX
  8
16
 10
46.9900
 20
57.2516
 30
0.0000
  0
SEQEND
  8
0
  0
POLYLINE
  8
16
 66
1
 10
0.0000
 20
0.0000
 30
0.0000
 40
0.4064
 41
0.4064
 70
0
  0
VERTEX
  8
16
 10
46.6400
 20
52.9500
 30
0.0000
  0
VERTEX
  8
16
 10
46.6400
 20
57.1500
 30
0.0000
  0
SEQEND
  8
0
  0
POLYLINE
  8
16
 66
1
 10
0.0000
 20
0.0000
 30
0.0000
 40
0.2032
 41
0.2032
 70
0
  0
VERTEX
  8
16
 10
46.7416
 20
57.1500
 30
0.0000
 42
1.0000
  0
VERTEX
  8
16
 10
46.5384
 20
57.1500
 30
0.0000
  0
SEQEND
  8
0
  0
POLYLINE
  8
16
 66
1
 10
0.0000
 20
0.0000
 30
0.0000
 40
0.2032
 41
0.2032
 70
0
  0
VERTEX
  8
16
 10
46.5384
 20
52.9500
 30
0.0000
 42
1.0000
  0
VERTEX
  8
16
 10
46.7416
 20
52.9500
 30
0.0000
  0
SEQEND
  8
0
  0
POLYLINE
  8
16
 66
1
 10
0.0000
 20
0.0000
 30
0.0000
 40
0.4064
 41
0.4064
 70
0
  0
VERTEX
  8
16
 10
45.1400
 20
55.8800
 30
0.0000
  0
VERTEX
  8
16
 10
45.1400
 20
52.9500
 30
0.0000
  0
SEQEND
  8
0
  0
POLYLINE
  8
16
 66
1
 10
0.0000
 20
0.0000
 30
0.0000
 40
0.2032
 41
0.2032
 70
0
  0
VERTEX
  8
16
 10
45.0384
 20
52.9500
 30
0.0000
 42
1.0000
  0
VERTEX
  8
16
 10
45.2416
 20
52.9500
 30
0.0000
  0
SEQEND
  8
0
  0
POLYLINE
  8
16
 66
1
 10
0.0000
 20
0.0000
 30
0.0000
 40
0.2032
 41
0.2032
 70
0
  0
VERTEX
  8
16
 10
45.2416
 20
55.8800
 30
0.0000
 42
1.0000
  0
VERTEX
  8
16
 10
45.0384
 20
55.8800
 30
0.0000
  0
SEQEND
  8
0
  0
POLYLINE
  8
16
 66
1
 10
0.0000
 20
0.0000
 30
0.0000
 40
0.4064
 41
0.4064
 70
0
  0
VERTEX
  8
16
 10
40.6400
 20
52.9500
 30
0.0000
  0
VERTEX
  8
16
 10
40.6400
 20
55.8800
 30
0.0000
  0
SEQEND
  8
0
  0
POLYLINE
  8
16
 66
1
 10
0.0000
 20
0.0000
 30
0.0000
 40
0.2032
 41
0.2032
 70
0
  0
VERTEX
  8
16
 10
40.7416
 20
55.8800
 30
0.0000
 42
1.0000
  0
VERTEX
  8
16
 10
40.5384
 20
55.8800
 30
0.0000
  0
SEQEND
  8
0
  0
POLYLINE
  8
16
 66
1
 10
0.0000
 20
0.0000
 30
0.0000
 40
0.2032
 41
0.2032
 70
0
  0
VERTEX
  8
16
 10
40.5384
 20
52.9500
 30
0.0000
 42
1.0000
  0
VERTEX
  8
16
 10
40.7416
 20
52.9500
 30
0.0000
  0
SEQEND
  8
0
  0
POLYLINE
  8
16
 66
1
 10
0.0000
 20
0.0000
 30
0.0000
 40
0.4064
 41
0.4064
 70
0
  0
VERTEX
  8
16
 10
40.6400
 20
55.8800
 30
0.0000
  0
VERTEX
  8
16
 10
45.1400
 20
55.8800
 30
0.0000
  0
SEQEND
  8
0
  0
POLYLINE
  8
16
 66
1
 10
0.0000
 20
0.0000
 30
0.0000
 40
0.2032
 41
0.2032
 70
0
  0
VERTEX
  8
16
 10
45.1400
 20
55.7784
 30
0.0000
 42
1.0000
  0
VERTEX
  8
16
 10
45.1400
 20
55.9816
 30
0.0000
  0
SEQEND
  8
0
  0
POLYLINE
  8
16
 66
1
 10
0.0000
 20
0.0000
 30
0.0000
 40
0.2032
 41
0.2032
 70
0
  0
VERTEX
  8
16
 10
40.6400
 20
55.9816
 30
0.0000
 42
1.0000
  0
VERTEX
  8
16
 10
40.6400
 20
55.7784
 30
0.0000
  0
SEQEND
  8
0
  0
POLYLINE
  8
16
 66
1
 10
0.0000
 20
0.0000
 30
0.0000
 40
0.4064
 41
0.4064
 70
0
  0
VERTEX
  8
16
 10
55.8800
 20
46.9900
 30
0.0000
  0
VERTEX
  8
16
 10
53.3400
 20
46.9900
 30
0.0000
  0
SEQEND
  8
0
  0
POLYLINE
  8
16
 66
1
 10
0.0000
 20
0.0000
 30
0.0000
 40
0.2032
 41
0.2032
 70
0
  0
VERTEX
  8
16
 10
53.3400
 20
47.0916
 30
0.0000
 42
1.0000
  0
VERTEX
  8
16
 10
53.3400
 20
46.8884
 30
0.0000
  0
SEQEND
  8
0
  0
POLYLINE
  8
16
 66
1
 10
0.0000
 20
0.0000
 30
0.0000
 40
0.2032
 41
0.2032
 70
0
  0
VERTEX
  8
16
 10
55.8800
 20
46.8884
 30
0.0000
 42
1.0000
  0
VERTEX
  8
16
 10
55.8800
 20
47.0916
 30
0.0000
  0
SEQEND
  8
0
  0
POLYLINE
  8
16
 66
1
 10
0.0000
 20
0.0000
 30
0.0000
 40
0.4064
 41
0.4064
 70
0
  0
VERTEX
  8
16
 10
53.3400
 20
46.9900
 30
0.0000
  0
VERTEX
  8
16
 10
53.3400
 20
49.5300
 30
0.0000
  0
SEQEND
  8
0
  0
POLYLINE
  8
16
 66
1
 10
0.0000
 20
0.0000
 30
0.0000
 40
0.2032
 41
0.2032
 70
0
  0
VERTEX
  8
16
 10
53.4416
 20
49.5300
 30
0.0000
 42
1.0000
  0
VERTEX
  8
16
 10
53.2384
 20
49.5300
 30
0.0000
  0
SEQEND
  8
0
  0
POLYLINE
  8
16
 66
1
 10
0.0000
 20
0.0000
 30
0.0000
 40
0.2032
 41
0.2032
 70
0
  0
VERTEX
  8
16
 10
53.2384
 20
46.9900
 30
0.0000
 42
1.0000
  0
VERTEX
  8
16
 10
53.4416
 20
46.9900
 30
0.0000
  0
SEQEND
  8
0
  0
POLYLINE
  8
16
 66
1
 10
0.0000
 20
0.0000
 30
0.0000
 40
0.4064
 41
0.4064
 70
0
  0
VERTEX
  8
16
 10
53.3400
 20
49.5300
 30
0.0000
  0
VERTEX
  8
16
 10
40.6400
 20
49.5300
 30
0.0000
  0
SEQEND
  8
0
  0
POLYLINE
  8
16
 66
1
 10
0.0000
 20
0.0000
 30
0.0000
 40
0.2032
 41
0.2032
 70
0
  0
VERTEX
  8
16
 10
40.6400
 20
49.6316
 30
0.0000
 42
1.0000
  0
VERTEX
  8
16
 10
40.6400
 20
49.4284
 30
0.0000
  0
SEQEND
  8
0
  0
POLYLINE
  8
16
 66
1
 10
0.0000
 20
0.0000
 30
0.0000
 40
0.2032
 41
0.2032
 70
0
  0
VERTEX
  8
16
 10
53.3400
 20
49.4284
 30
0.0000
 42
1.0000
  0
VERTEX
  8
16
 10
53.3400
 20
49.6316
 30
0.0000
  0
SEQEND
  8
0
  0
POLYLINE
  8
16
 66
1
 10
0.0000
 20
0.0000
 30
0.0000
 40
0.4064
 41
0.4064
 70
0
  0
VERTEX
  8
16
 10
40.6400
 20
49.5300
 30
0.0000
  0
VERTEX
  8
16
 10
40.6400
 20
52.9500
 30
0.0000
  0
SEQEND
  8
0
  0
POLYLINE
  8
16
 66
1
 10
0.0000
 20
0.0000
 30
0.0000
 40
0.2032
 41
0.2032
 70
0
  0
VERTEX
  8
16
 10
40.7416
 20
52.9500
 30
0.0000
 42
1.0000
  0
VERTEX
  8
16
 10
40.5384
 20
52.9500
 30
0.0000
  0
SEQEND
  8
0
  0
POLYLINE
  8
16
 66
1
 10
0.0000
 20
0.0000
 30
0.0000
 40
0.2032
 41
0.2032
 70
0
  0
VERTEX
  8
16
 10
40.5384
 20
49.5300
 30
0.0000
 42
1.0000
  0
VERTEX
  8
16
 10
40.7416
 20
49.5300
 30
0.0000
  0
SEQEND
  8
0
  0
POLYLINE
  8
16
 66
1
 10
0.0000
 20
0.0000
 30
0.0000
 40
0.4064
 41
0.4064
 70
0
  0
VERTEX
  8
16
 10
45.1400
 20
52.9500
 30
0.0000
  0
VERTEX
  8
16
 10
46.6400
 20
52.9500
 30
0.0000
  0
SEQEND
  8
0
  0
POLYLINE
  8
16
 66
1
 10
0.0000
 20
0.0000
 30
0.0000
 40
0.2032
 41
0.2032
 70
0
  0
VERTEX
  8
16
 10
46.6400
 20
52.8484
 30
0.0000
 42
1.0000
  0
VERTEX
  8
16
 10
46.6400
 20
53.0516
 30
0.0000
  0
SEQEND
  8
0
  0
POLYLINE
  8
16
 66
1
 10
0.0000
 20
0.0000
 30
0.0000
 40
0.2032
 41
0.2032
 70
0
  0
VERTEX
  8
16
 10
45.1400
 20
53.0516
 30
0.0000
 42
1.0000
  0
VERTEX
  8
16
 10
45.1400
 20
52.8484
 30
0.0000
  0
SEQEND
  8
0
  0
ENDSEC
  0
EOF
